<svg xmlns="http://www.w3.org/2000/svg" width="140" height="40" fill="none" viewBox="0 0 140 40">
    <path fill="#F26F21" d="M40.448 30.293L33.643 16.93c-3.097.713-7.85 1.156-13.157 1.156-5.306 0-10.063-.453-13.16-1.156L.5 30.336c-.108.173-.201.355-.279.543-.145.345-.22.717-.221 1.092 0 4.125 9.174 7.468 20.486 7.468 11.312 0 20.486-3.343 20.486-7.468-.01-.6-.191-1.185-.524-1.685v.007z"/>
    <path fill="#891A1C" d="M13.342 31.4c0 5.574 7.137 7.059 7.137 7.059s7.137-1.481 7.137-7.059v-5.053c0-5.574-7.137-7.058-7.137-7.058s-7.136 1.484-7.136 7.058V31.4z"/>
    <path fill="#fff" d="M19.73 30.387c-.06 0-.207 0-.407-.021v-5.324c1.567 0 2.173.974 2.173 1.573.004.144-.048.283-.145.388-.098.106-.232.169-.376.176-.106 0-.21-.034-.294-.099-.085-.064-.146-.155-.173-.258-.182.024-.35.115-.469.254-.119.14-.182.32-.177.503.002.111.027.22.075.321.047.1.116.19.2.262.085.072.185.125.291.155.107.03.22.038.33.022.856 0 1.295-.774 1.295-1.542 0-1.07-.867-2.226-2.73-2.226v-1.428h1.335c1.752 0 2.976 1.449 2.976 3.522 0 1.71-1.07 3.73-3.904 3.73v-.008zm-3.415-2.69c-.001-.446.106-.885.313-1.28.207-.393.508-.731.875-.983v4.404c-.377-.212-.689-.524-.898-.902-.21-.378-.31-.807-.29-1.24zm4.343-5.021H16.65v.292c.237.034.453.152.61.332.157.18.243.41.243.65v.945c-.5.276-.919.682-1.209 1.175-.29.493-.442 1.055-.44 1.627-.017.512.107 1.02.36 1.466.251.447.62.816 1.068 1.067.075.043.15.086.225.121v3.412c0 1.217-.403 1.66-.657 1.784v.293s2.477-.136 2.477-2.587v-2.398c.167 0 .428.017.439.017 3.04 0 5.916-1.213 5.916-4.189 0-3.593-3.515-3.982-5.02-3.982l-.004-.025z"/>
    <path fill="#F26F21" d="M20.487 11.152c-9.335 0-16.904 1.392-16.904 3.108 0 1.717 7.569 3.109 16.904 3.109S37.39 15.977 37.39 14.26c0-1.716-7.568-3.108-16.903-3.108zm6.95 5.089c.772-.178 1.21-.386 1.21-.607 0-.685-4.281-1.242-9.545-1.242-5.263 0-9.542.557-9.542 1.242 0 .038.012.075.032.107-.813-.178-1.27-.381-1.27-.592 0-.739 5.445-1.335 12.161-1.335 6.716 0 12.161.596 12.161 1.335 0 .45-2.059.85-5.206 1.092z"/>
    <path fill="#F1EBDF" d="M27.056 15.794c.478-.078-.92-1.099-1.338-1.37-1.142-1.02-1.67-.385-1.642-.62.072-.59-1.206-.893-1.427-.597-.082-.06-1.627-.356-1.713-.228-.107-.185-2.266-.018-2.102.171-.398-.056-.803-.034-1.192.068.143-.457-1.805-.132-1.124.164-.05.018-1.784.232-1.463.585-.053 0-1.02.307-.992.3-.172.007-.34.063-.48.164-.14.1-.25.239-.312.4-.018.057-.051.108-.097.146-.045.039-.1.064-.16.072-.257 0-.417.446-.257.653-.292-.086-.485.196-.56.453 2.095.196 4.885.31 8.011.31 2.712 0 5.264-.085 7.337-.235 0-.282-.357-.293-.503-.436h.014z"/>
    <path fill="#FAD560" d="M13.01 15.062s.025-.182.16-.224c.136-.043.461.753.393.82-.04.047-.096.079-.157.09-.06.011-.124 0-.178-.029-.132-.079-.204-.57-.218-.657z"/>
    <path fill="#FFCA05" d="M21.874 14.495s.24-.028.314.072c.075.1-.878.574-.974.539-.096-.036-.218-.132-.136-.26.243-.165.512-.286.796-.358v.007zM23.684 13.476s.235-.029.314.071c.078.1-.878.575-.978.535-.1-.039-.214-.128-.132-.256.243-.164.512-.285.796-.357v.007zM25.064 13.483s.236-.028.31.068c.076.097-.877.578-.973.539-.097-.04-.215-.129-.136-.26.244-.165.514-.286.8-.357v.01z"/>
    <path fill="#FFCA05" d="M24.55 13.326s.197.132.19.26c-.007.13-1.042-.153-1.088-.245-.047-.093-.075-.24.067-.282.291.04.572.13.832.267zM22.727 14.952s.236-.028.31.072c.076.1-.877.574-.974.539-.096-.036-.217-.132-.135-.26.243-.165.514-.286.8-.358v.007z"/>
    <path fill="#FAD560" d="M14.87 14.122s-.104-.167 0-.26c.103-.093.952.474.934.56-.005.03-.017.06-.034.086-.016.026-.038.048-.064.066-.025.017-.054.03-.084.036-.03.006-.062.007-.092.001-.182-.018-.586-.417-.657-.489h-.003zM16.608 13.372s-.104-.171 0-.264c.103-.093.956.474.938.564-.013.061-.05.115-.101.15-.052.036-.116.05-.177.039-.179-.018-.582-.418-.653-.49h-.007zM14.591 14.513s-.1-.168 0-.26c.1-.093.957.474.939.56-.013.061-.05.115-.101.15-.052.036-.116.05-.177.039-.179-.018-.586-.418-.657-.49h-.004z"/>
    <path fill="#FFCA05" d="M15.137 14.736s-.171-.104-.125-.229c.046-.125 1.07-.021 1.088.064.018.06.012.124-.018.179-.03.055-.079.096-.139.114-.274.012-.549-.031-.806-.129zM25.721 16.219c.006.037.006.076 0 .114h-.317c-.214-.207-.493-.592-.453-.65.034-.06.09-.106.155-.127.067-.021.138-.016.201.013.165.06.393.55.432.635l-.018.015z"/>
    <path fill="#FAD560" d="M13.575 15.76s.22-.085.356 0c.136.086-.157.3-.378.504l-.56-.04c.183-.172.384-.325.6-.456l-.018-.007zM22.206 15.511s.043-.193.196-.221c.154-.029.418.856.336.92-.049.043-.11.07-.174.075-.064.005-.129-.011-.183-.046-.136-.1-.16-.632-.16-.714l-.015-.014z"/>
    <path fill="#FFCA05" d="M21.096 13.064s-.189-.11-.146-.235c.043-.125 1.16.05 1.188.139.012.028.017.059.015.09-.002.03-.01.06-.025.087-.016.027-.037.05-.062.067-.025.018-.054.03-.085.034-.303-.008-.602-.07-.885-.182z"/>
    <path fill="#F7F4EE" d="M20.222 16.462c.012-.065.05-.122.104-.16.054-.037.12-.052.185-.04.133.036.255.103.357.196l-.646.004z"/>
    <path fill="#FFCA05" d="M13.632 14.306c.046-.037.1-.065.158-.081.057-.017.118-.022.177-.015.146.046-.318.928-.435.942-.118.014-.293 0-.325-.153-.032-.154.357-.614.425-.693zM15.598 15.674c.046-.038.1-.066.158-.082.057-.017.118-.022.177-.015.11.036-.125.54-.296.796l-.468-.021c0-.165.357-.6.429-.678z"/>
    <path fill="#FAD560" d="M14.616 14.971s-.032-.2.107-.268c.14-.067.764.714.714.818-.036.059-.091.103-.156.125-.066.022-.137.02-.2-.004-.176-.064-.415-.578-.458-.671h-.007z"/>
    <path fill="#FFCA05" d="M19.63 15.579s-.228-.093-.214-.221c.014-.129 1.224-.072 1.274 0 .02.024.032.052.038.083.006.03.004.062-.005.091-.009.03-.025.057-.047.079-.022.021-.05.037-.079.046-.325.023-.652-.007-.967-.089v.01zM21.728 15.944s-.107-.218 0-.307c.107-.09.821.606.939.803h-.5c-.15-.161-.292-.33-.425-.507l-.014.01z"/>
    <path fill="#F8D075" d="M21.61 14.046s.229.086.229.207-1.164.093-1.224 0c-.021-.02-.037-.045-.046-.073-.01-.028-.012-.057-.006-.086.005-.029.018-.056.036-.078.018-.023.042-.04.07-.052.315-.027.633-.004.941.068v.014zM20.233 14.792s.228.086.228.207-1.163.093-1.224 0c-.021-.02-.037-.045-.046-.073-.01-.027-.011-.057-.006-.086.005-.029.018-.056.036-.078.019-.023.043-.04.07-.052.315-.027.633-.004.942.068v.014zM25.818 15.167s.228.086.232.207c.003.122-1.167.093-1.228 0-.021-.02-.037-.045-.046-.073-.01-.027-.011-.057-.006-.086.005-.029.018-.056.036-.078.019-.023.043-.04.07-.052.315-.027.633-.004.942.068v.014z"/>
    <path fill="#F7F4EE" d="M22.085 13.162s.028-.243.146-.275c.118-.032.357 1.114.3 1.189-.015.025-.037.045-.062.06-.026.014-.055.022-.084.022-.03 0-.059-.008-.084-.022-.026-.014-.047-.035-.063-.06-.101-.3-.153-.613-.153-.928v.014z"/>
    <path fill="#FFCA05" d="M19.819 12.846s-.086-.25 0-.357c.085-.107.835.81.817.924-.018.114-.09.264-.246.207-.157-.057-.51-.667-.571-.774z"/>
    <path fill="#F8D075" d="M16.24 13.305s.232.021.268.132c.035.11-1.042.357-1.117.307-.075-.05-.154-.168-.029-.275.282-.1.578-.156.878-.164z"/>
    <path fill="#FFCA05" d="M23.573 13.51s-.136-.16-.057-.268c.078-.107 1.035.357 1.031.46.001.032-.004.063-.016.091-.011.029-.029.055-.05.076-.023.022-.05.038-.079.05-.029.01-.06.014-.09.012-.27-.092-.521-.235-.739-.42zM18.427 13.424c-.238-.233-.51-.43-.806-.585-.182-.025-.214.11-.203.21.01.1 1.038.786 1.102.678.064-.107-.093-.303-.093-.303zM17.221 13.844s.24.021.278.128c.04.107-1.07.357-1.156.29-.085-.069-.16-.161-.032-.261.294-.098.6-.151.91-.157z"/>
    <path fill="#E5DED1" d="M15.305 16.36c.156-.139.338-.247.535-.317.125.018.29.09.246.232-.021.047-.056.086-.1.114l-.681-.028z"/>
    <path fill="#FFCA05" d="M14.127 15.935s-.292.082-.431 0c-.14-.083.881-.846 1.024-.821.143.025.332.1.282.264-.05.164-.75.51-.875.57v-.013zM21.51 15.719c-.128.053-.15.292-.15.292 0 .058.025.254.061.443h.41c-.082-.329-.239-.767-.32-.732v-.003zM17.171 14.438s.047-.182.186-.21c.14-.03.357.788.285.852-.044.043-.102.07-.163.075-.062.006-.124-.01-.176-.043-.12-.092-.132-.585-.132-.674zM24.17 14.34s.095.175 0 .261c-.097.086-.954-.524-.932-.61.017-.061.056-.113.111-.145.055-.032.12-.042.181-.026.182.028.578.446.646.52h-.007zM16.9 16.063s-.192.14-.324.097c-.133-.043.396-.914.51-.932.114-.018.267 0 .292.147.036.207-.381.667-.478.688z"/>
    <path fill="#FFCA05" d="M17.317 16.173s-.217.096-.357.025c-.139-.072.59-.807.714-.8.125.008.26.061.253.207 0 .211-.517.568-.613.568h.003z"/>
    <path fill="#FAD560" d="M23.544 15.503s.128-.186.293-.179c.164.008.06.989-.047 1.035-.063.033-.135.044-.206.032-.07-.012-.134-.047-.183-.1-.093-.139.107-.692.143-.788z"/>
    <path fill="#FFCA05" d="M19.316 13.22s-.26-.031-.3-.16c-.039-.128 1.185-.378 1.27-.31.086.068.172.2.03.314-.323.107-.66.16-1 .157z"/>
    <path fill="#fff" d="M19.38 14.101s-.232-.046-.325.047.768.642.871.61c.104-.032.24-.11.182-.246-.057-.136-.628-.357-.714-.41h-.014z"/>
    <path fill="#FFCA05" d="M18.374 16.03s0-.156.114-.174c.114-.018.357.357.46.596h-.403c-.067-.135-.124-.274-.171-.418v-.003zM14.905 14.008s.06-.185-.057-.26c-.118-.075-.839.642-.803.713.026.059.073.106.132.132.059.025.125.028.186.008.175-.05.485-.522.542-.604v.011z"/>
    <path fill="#fff" d="M17.221 13.277s0-.217.093-.282c.093-.064.532.853.485.939-.046.086-.15.186-.274.103-.146-.233-.249-.49-.304-.76z"/>
    <path fill="#FFCA05" d="M19.944 13.682s0-.21.15-.229c.15-.018.47.989.406 1.053-.02.023-.046.041-.074.054-.028.012-.059.019-.09.019-.03 0-.061-.007-.09-.02-.028-.012-.053-.03-.074-.053-.126-.257-.203-.535-.228-.82v-.004zM19.145 13.342s0-.207.15-.228c.15-.022.47.992.406 1.052-.02.023-.046.042-.074.054-.028.013-.059.02-.09.02-.03 0-.061-.007-.09-.02-.028-.012-.053-.03-.074-.054-.126-.257-.203-.535-.228-.82v-.004zM19.337 12.825s.1-.22.022-.317c-.079-.097-.853.731-.843.835.011.103.068.235.225.185.157-.05.532-.603.596-.713v.01zM24.25 13.72s-.224-.096-.317-.017c-.093.078.742.845.846.831.103-.014.235-.071.182-.228-.054-.157-.61-.521-.714-.585h.004z"/>
    <path fill="#fff" d="M23.512 13.36s.097-.203.025-.325c-.071-.121-.831.493-.82.603.01.111.06.268.21.264.15-.003.521-.46.585-.542z"/>
    <path fill="#F8D075" d="M16.808 13.17s0-.196-.154-.239c-.153-.043-.57.817-.503.889.044.048.104.08.168.091.065.01.132-.002.189-.034.153-.09.274-.614.292-.714l.008.007z"/>
    <path fill="#fff" d="M23.38 15.54s.193-.125.154-.243c-.04-.118-1.17.128-1.203.218-.012.027-.018.056-.017.086.001.03.01.06.024.086.014.026.035.048.06.065.025.016.053.027.083.03.311-.03.615-.113.9-.242z"/>
    <path fill="#FFCA05" d="M20.786 15.757s-.243.068-.268.19c-.024.12 1.142.181 1.217.11.075-.071.14-.203 0-.29-.313-.049-.632-.049-.945 0l-.004-.01z"/>
    <path fill="#FAD560" d="M16.415 15.811s-.253-.053-.357.05c-.103.104.336.357.646.543h.507c.014-.024.022-.05.022-.077 0-.027-.008-.054-.022-.077-.06-.15-.692-.41-.803-.453l.007.014z"/>
    <path fill="#FAD560" d="M16.319 14.893s-.075-.222-.21-.225c-.136-.004-.197 1.103-.115 1.163.022.022.049.039.078.049.03.01.061.013.092.009.03-.004.06-.014.087-.031.026-.017.048-.04.064-.066.055-.297.055-.602 0-.9h.004z"/>
    <path fill="#F8D075" d="M16.707 14.518s-.075-.222-.21-.229c-.136-.007-.197 1.106-.115 1.167.023.021.05.037.08.046.03.01.062.012.093.008.03-.004.06-.015.087-.031.026-.017.048-.04.065-.066.054-.296.054-.6 0-.896z"/>
    <path fill="#F7F4EE" d="M15.322 14.797s-.25 0-.285.121c-.036.122 1.138.457 1.22.403.027-.012.05-.032.066-.056s.026-.053.028-.082c.002-.03-.003-.059-.016-.085-.013-.026-.032-.049-.056-.066-.306-.125-.628-.205-.957-.235z"/>
    <path fill="#FFCA05" d="M14.966 15.995s.225-.143.217-.282c-.007-.139-1.195.147-1.249.25-.053.104-.085.26.083.31.33-.038.65-.132.949-.278z"/>
    <path fill="#fff" d="M22.342 14.34s-.225-.097-.21-.222c.013-.125 1.22-.072 1.273 0 .02.024.033.053.039.083.006.03.004.062-.005.091-.01.03-.026.057-.048.079-.022.022-.049.038-.079.047-.326.022-.654-.008-.97-.09v.011z"/>
    <path fill="#F8D075" d="M24.344 15.412s-.236.093-.357 0c-.122-.093.67-.825.788-.81.118.014.282.075.254.228-.029.154-.59.51-.685.571v.01z"/>
    <path fill="#fff" d="M20.515 13.324s0 .178.142.228c.143.05.514-.696.45-.763-.038-.048-.09-.082-.15-.097s-.122-.01-.178.014c-.136.068-.243.536-.264.618z"/>
    <path fill="#FFCA05" d="M26.195 14.883s.036.214-.11.289c-.146.075-.814-.782-.757-.87.038-.064.097-.112.167-.136.07-.024.146-.023.215.003.186.068.443.618.485.714zM14.295 15.457s.036.214-.11.29c-.147.074-.814-.782-.757-.871.038-.064.097-.112.167-.136.07-.024.146-.023.215.003.185.068.442.618.485.714z"/>
    <path fill="#fff" d="M18.798 12.977s.264.057.286.192c.021.136-1.264.286-1.342.207-.027-.017-.05-.041-.065-.07-.016-.028-.024-.06-.024-.092s.008-.064.024-.093c.015-.028.038-.052.065-.07.34-.078.69-.104 1.038-.074h.018z"/>
    <path fill="#FFCA05" d="M12.986 15.248s.25-.1.381 0c.132.1-.713.88-.842.867-.128-.015-.296-.082-.267-.247.028-.164.624-.542.713-.606l.015-.014z"/>
    <path fill="#fff" d="M22.47 15.066s-.214-.125-.164-.264c.05-.139 1.299.057 1.331.154.013.032.018.067.016.101-.002.035-.012.068-.029.098-.016.03-.04.057-.067.077-.028.02-.06.035-.095.041-.34-.01-.676-.08-.992-.207z"/>
    <path fill="#F8D075" d="M20.008 13.426s.232.035.24.196c.006.16-1.15.5-1.218.418-.045-.058-.066-.131-.059-.205.008-.073.043-.14.099-.188.295-.135.614-.21.938-.221zM22.245 13.535s.232.04.24.196c.007.157-1.15.5-1.214.418-.046-.058-.068-.131-.06-.204.007-.074.043-.141.1-.189.293-.135.611-.21.934-.22zM24.372 14.605s.228.04.24.197c.01.157-1.153.5-1.218.417-.045-.058-.066-.13-.059-.204.008-.073.043-.14.098-.188.296-.135.615-.21.939-.222z"/>
    <path fill="#F7F4EE" d="M12.953 15.938c.106-.083.24-.122.375-.107.068.022 0 .2-.072.407l-.51-.043c.09-.117.175-.221.207-.257z"/>
    <path fill="#fff" d="M25.418 14.746s-.054.225-.232.264c-.179.04-.493-1.014-.396-1.088.058-.054.133-.086.211-.093.08-.006.158.014.224.057.16.121.19.75.193.86z"/>
    <path fill="#F7F4EE" d="M21.61 16.456c.157-.03.318-.03.475 0h-.475z"/>
    <path fill="#FFCA05" d="M24.468 15.856s.29-.035.386.09c.057.067-.296.285-.635.453l-.771.021c-.007-.046.004-.094.032-.132.096-.157.853-.393.988-.432z"/>
    <path fill="#fff" d="M27.08 15.798s.293-.036.39.085c.046.061-.211.232-.5.386l-.91.053c.001-.033.012-.065.032-.092.096-.16.853-.393.988-.432z"/>
    <path fill="#FFCA05" d="M27.08 15.798s.293-.036.39.085c.046.061-.211.232-.5.386l-.91.053c.001-.033.012-.065.032-.092.096-.16.853-.393.988-.432zM20.133 16.094s.26.025.3.15c0 .053-.21.139-.475.214h-.881c-.007-.033-.004-.066.009-.097.013-.03.034-.056.062-.075.316-.114.649-.176.985-.185v-.007z"/>
    <path fill="#FFCA05" d="M26.31 15.395s-.15-.182-.06-.3c.088-.118 1.155.414 1.152.518.001.034-.005.068-.018.1-.013.031-.032.06-.056.084-.025.023-.054.042-.086.054-.032.012-.067.017-.1.015-.305-.104-.587-.263-.832-.471zM19.052 15.695c-.266-.263-.57-.484-.903-.656-.203-.029-.239.125-.225.239.015.114 1.164.878 1.232.76.067-.118-.104-.357-.104-.357v.014zM21.232 16.344c-.265-.264-.57-.485-.902-.657-.2-.028-.24.125-.225.24.203.21.438.389.695.527h.504c-.022-.037-.046-.072-.072-.107v-.003z"/>
    <path fill="#E5DED1" d="M24.361 16.39c-.032-.033-.046-.058-.042-.072.017-.069.061-.127.122-.163.061-.037.134-.047.202-.03.142.05.27.132.375.24l-.657.024z"/>
    <path fill="#FFCA05" d="M20.658 15.28s-.214.161-.357.111.446-1.024.57-1.042c.126-.018.304 0 .33.164.042.232-.429.746-.536.768h-.007z"/>
    <path fill="#FAD560" d="M21.84 13.588s-.293-.039-.336-.182c-.043-.143 1.324-.424 1.427-.357.104.068.19.222.032.357-.362.116-.74.175-1.12.175l-.004.007zM13.949 15.854s-.204-.082-.296.046c-.033.05.057.204.185.375l.643.036c-.164-.168-.342-.321-.532-.457z"/>
    <path fill="#FFCA05" d="M25.7 15.86s-.271.035-.318.167c-.046.132.453.214.835.279l.507-.029c.019-.016.034-.037.044-.06.01-.022.016-.047.016-.072 0-.025-.005-.05-.016-.072-.01-.023-.025-.044-.044-.06-.33-.106-.674-.158-1.02-.153H25.7z"/>
    <path fill="#fff" d="M17.756 15.493s0-.246.107-.314c.108-.068.59.953.54 1.05-.05.096-.165.21-.308.113-.142-.096-.31-.735-.357-.849h.018z"/>
    <path fill="#FFCA05" d="M18.435 13.996s.021-.232.168-.254c.146-.02.528 1.107.456 1.178-.023.024-.05.043-.081.056-.031.012-.064.019-.097.019s-.066-.007-.097-.02c-.03-.012-.058-.031-.082-.055-.143-.288-.23-.6-.257-.92l-.01-.004zM19.748 14.936s.11-.25.021-.357c-.09-.107-.956.82-.946.935.011.114.079.264.254.207.175-.057.596-.675.67-.785z"/>
    <path fill="#F8D075" d="M20.79 16.134s.11-.25.02-.357c-.088-.107-.53.382-.784.688h.528c.11-.15.203-.285.236-.331zM20.818 12.819s.11-.25.021-.357c-.089-.107-.956.82-.942.938.015.118.079.264.254.207.175-.057.592-.678.667-.785v-.003z"/>
    <path fill="#fff" d="M18.599 12.951s-.21-.178-.336-.125c-.125.054.518 1.15.632 1.17.114.022.275 0 .271-.185-.141-.315-.333-.605-.567-.86z"/>
    <path fill="#FFCA05" d="M23.252 16.337s-.207-.142-.357-.078c-.036 0-.029.078 0 .171h.435l-.078-.082v-.01z"/>
    <path fill="#F7F4EE" d="M17.242 14.847s0-.22-.174-.267c-.175-.047-.64.917-.56.995.05.055.118.091.192.103.073.012.15-.002.214-.038.171-.1.307-.69.328-.793z"/>
    <path fill="#fff" d="M13.856 15.538s0 .232.182.282c.182.05.675-.967.593-1.05-.054-.056-.126-.093-.203-.105-.077-.013-.157 0-.226.038-.178.104-.32.714-.356.835h.01zM18.13 14.327s-.285-.057-.402.057c-.118.114.952.792 1.07.756.118-.035.293-.139.225-.306-.068-.168-.778-.457-.903-.507h.01z"/>
    <path fill="#FFCA05" d="M17.867 16.035s-.086-.247-.236-.254c-.078 0-.135.325-.157.653h.432c0-.185-.032-.357-.04-.41v.01z"/>
    <path fill="#fff" d="M25.75 15.32s-.253-.104-.24-.247c.015-.143 1.371-.079 1.428 0 .022.027.037.059.044.093.007.034.005.07-.005.102-.01.034-.029.064-.054.088-.024.025-.055.043-.088.052-.36.022-.722-.013-1.07-.103l-.015.014zM24.787 16.285s-.265.104-.4 0c-.136-.103.753-.924.885-.91.132.014.314.086.282.257-.032.171-.657.571-.767.639v.014z"/>
    <path fill="#F8D075" d="M21.617 15.607s0 .196.157.253c.157.057.575-.778.504-.856-.042-.052-.1-.088-.164-.104s-.132-.011-.193.015c-.154.075-.275.6-.293.692h-.01zM15.337 14.19s0 .197.157.254c.157.057.574-.778.503-.856-.043-.05-.1-.086-.164-.102s-.131-.012-.193.012c-.153.079-.274.6-.292.693h-.011zM22.06 14.45s0 .2.157.254c.157.054.574-.774.503-.853-.042-.051-.1-.088-.164-.104s-.132-.01-.193.015c-.153.075-.275.596-.293.689h-.01zM23.87 14.573s0 .196.16.253c.16.057.575-.778.503-.856-.043-.05-.1-.085-.164-.101s-.131-.012-.193.011c-.153.079-.274.6-.296.693h-.01zM23.908 15.923s0 .196.157.254c.157.057.575-.778.503-.857-.042-.051-.099-.088-.163-.104-.065-.016-.132-.01-.194.015-.153.079-.274.6-.292.692h-.01z"/>
    <path fill="#FFCA05" d="M20.975 13.27c.118-.021 1.007.453.896.528-.114.042-.238.05-.357.025-.107-.035-.713-.246-.756-.357-.043-.11.103-.174.217-.196zM23.87 14.753s.156-.153.138-.278c-.018-.125-.878.242-.91.339-.032.096-.043.246.086.278.128.032.603-.282.685-.339zM18.313 12.82s.157-.154.14-.279c-.019-.125-.882.243-.914.34-.032.096-.043.245.085.278.129.032.607-.282.69-.34zM20.3 15.863s.158-.154.14-.279c-.018-.125-.882.243-.914.34-.032.096-.043.245.086.277.128.033.603-.281.689-.356v.018z"/>
    <path fill="#FAD560" d="M22.641 13.502s.029-.239.15-.27c.122-.033.357 1.109.3 1.187-.057.079-.186.15-.293 0-.1-.3-.154-.614-.157-.93v.013z"/>
    <path fill="#FFCA05" d="M25.236 15.444c.046-.11.26-.135.26-.135.266.002.529.05.778.142.1.1 0 .21-.06.268-.061.057-1.021-.168-.978-.275zM18.217 13.816s.039-.217-.06-.278c-.1-.06-.661.85-.625.935.007.027.021.052.04.073.02.02.043.036.07.046.026.01.055.013.083.01.028-.003.054-.013.078-.03.18-.226.32-.482.414-.756zM15.99 15.117s.04-.214-.06-.278c-.1-.064-.66.85-.621.935.007.028.02.053.038.074.019.021.042.037.069.048.026.01.054.013.082.01.028-.003.055-.013.079-.028.18-.228.32-.485.413-.76zM18.274 14.824s.125-.182.057-.278c-.068-.097-.946.506-.95.599-.003.093.044.221.208.203.164-.017.606-.446.685-.524z"/>
    <path fill="#fff" d="M19.976 15.54s-.078-.233-.214-.247c-.136-.014-.164 1.05-.09 1.163h.318c.047-.302.04-.61-.021-.91l.007-.007z"/>
    <path fill="#FFCA05" d="M24.865 14.988s0-.217-.118-.271c-.118-.053-.357.889-.303.97.053.083.153.172.25.08.1-.249.158-.512.17-.779zM21.203 15.648s.057.21.179.253c.121.043.203-.888.132-.963-.072-.075-.197-.154-.282-.057-.086.096-.04.667-.029.767z"/>
    <path fill="#FAD560" d="M15.544 14.592c.013.093.047.18.1.258.085.12.66-.743.642-.857-.018-.114-.103-.132-.246-.1-.143.032-.442.6-.496.714v-.014z"/>
    <path fill="#fff" d="M21.953 14.701s.204.107.332.029c.129-.079-.496-.882-.61-.875-.114.008-.275.061-.275.222 0 .16.468.553.553.624zM17.446 13.623s.203.107.335.033c.132-.075-.5-.882-.613-.875-.115.007-.275.061-.275.221 0 .161.47.554.553.621z"/>
    <path fill="#F48020" d="M15.54 15.5c-.01 0-.02-.005-.028-.013-.007-.008-.011-.018-.011-.029v-.032c.01-.095-.008-.191-.052-.276-.045-.084-.114-.154-.198-.199-.054-.025-.101-.062-.14-.107-.038-.046-.066-.1-.081-.157-.007-.053.005-.108.036-.153.003-.005.007-.008.012-.01.005-.003.01-.004.016-.004s.011 0 .016.003c.005.003.01.006.013.01.004.005.007.009.009.014l.003.015c0 .006-.001.011-.003.016-.002.005-.005.01-.01.013-.005.014-.008.03-.008.045s.003.03.009.044c.015.045.039.086.07.122.031.035.07.064.112.085.096.052.175.132.227.23.051.096.073.207.062.316v.029c0 .011-.005.022-.013.03s-.019.012-.03.012l-.01-.003zM25.97 15.68c-.005 0-.01 0-.015-.003-.005-.002-.01-.005-.013-.01-.004-.003-.007-.008-.009-.013-.001-.006-.002-.011-.001-.017-.005-.026-.012-.053-.022-.078-.047-.095-.057-.205-.029-.307.029-.103.093-.192.183-.25.043-.02.081-.048.113-.083s.056-.076.072-.12c.01-.029.01-.06 0-.09-.004-.003-.007-.008-.01-.013l-.002-.017c0-.005 0-.01.003-.016.002-.005.005-.01.01-.014.003-.004.007-.007.012-.01l.016-.002c.005 0 .01 0 .015.003.005.002.01.005.013.009.03.045.042.1.032.154-.015.056-.042.11-.08.155-.037.046-.084.083-.137.108-.218.133-.16.325-.122.464.014.032.022.066.025.1 0 .012-.004.023-.012.03-.008.009-.02.013-.03.013l-.011.007zM22.845 16.036c-.04.001-.078-.01-.11-.032-.004-.003-.008-.008-.01-.013l-.003-.015c0-.006.001-.01.003-.016.002-.005.006-.01.01-.013.007-.007.018-.01.028-.01.01 0 .02.003.029.01.014.006.03.01.046.01s.032-.004.046-.01c.087-.038.156-.109.193-.196.045-.1.12-.185.213-.242.093-.058.202-.087.312-.083h.028c.005 0 .01 0 .015.002.005.001.01.004.014.007s.007.008.01.012l.004.015v.016l-.007.015c-.004.004-.008.008-.013.01-.005.003-.01.005-.016.005h-.032c-.095-.004-.19.02-.271.071-.082.05-.146.124-.186.211-.022.055-.056.104-.099.145-.043.04-.094.072-.15.09h-.047l-.007.011zM17.25 13.462c-.039 0-.076-.01-.108-.032l-.009-.013-.003-.015c0-.006.001-.011.003-.016.003-.005.006-.01.01-.013.007-.007.017-.01.028-.01.01 0 .02.003.029.01.03.012.063.012.092 0 .068-.018.132-.086.193-.196.046-.1.12-.186.214-.243.094-.058.204-.087.314-.082h.029c.01 0 .02.005.028.012s.013.017.014.027c.001.006 0 .011-.001.017-.002.005-.005.01-.009.013-.003.005-.008.008-.013.01-.005.002-.01.003-.016.003h-.028c-.096-.004-.192.02-.274.07-.082.05-.147.125-.187.212-.021.055-.055.104-.097.145-.043.04-.093.071-.149.09h-.05l-.01.011zM20.219 13.942h-.043c-.027-.004-.052-.014-.075-.029-.022-.015-.042-.034-.057-.056-.004-.004-.007-.008-.009-.013-.002-.005-.003-.01-.003-.016 0-.005 0-.01.003-.015.002-.005.005-.01.01-.013.003-.004.007-.007.012-.01.005-.002.01-.003.016-.003l.015.003c.005.003.01.006.013.01.023.023.051.039.082.046.047 0 .094-.009.137-.027.044-.017.083-.043.117-.077.08-.075.181-.124.29-.142.109-.017.22 0 .32.046h.028c.009.005.015.013.018.022.003.01.003.02 0 .029-.004.009-.01.017-.018.022-.009.005-.019.007-.028.006h-.029c-.086-.042-.183-.057-.278-.042-.095.015-.183.058-.253.124-.077.07-.175.115-.279.125l.01.01zM13.014 15.714c-.049-.003-.096-.019-.136-.046-.041-.027-.074-.064-.096-.107-.005-.005-.01-.01-.012-.016-.003-.006-.004-.013-.004-.02 0-.006.002-.013.006-.018.003-.006.008-.011.013-.015.005-.004.012-.006.018-.007.007-.001.014 0 .02.002s.012.005.017.01c.004.005.008.01.01.017.078.107.14.196.442 0 .084-.061.187-.09.29-.078.104.011.199.06.267.139.003.004.006.009.007.014.002.005.002.01.001.016 0 .005-.002.01-.005.015-.002.005-.006.009-.01.012l-.014.007c-.005.001-.01.002-.016.001-.005 0-.01-.002-.015-.005-.005-.002-.009-.006-.012-.01-.056-.062-.133-.1-.216-.108-.082-.007-.165.017-.23.069-.096.067-.208.109-.325.12v.008zM20.261 14.939c-.005 0-.01-.001-.015-.004-.005-.002-.01-.005-.014-.009l-.008-.014c-.002-.005-.002-.01-.002-.016v-.043c.011-.095-.007-.192-.052-.277-.045-.085-.116-.154-.201-.197-.053-.027-.1-.064-.137-.11-.038-.045-.065-.098-.08-.155-.006-.026-.006-.054 0-.08.006-.027.018-.052.035-.073.006-.008.016-.014.027-.015.01-.002.021.001.03.008.008.006.014.016.015.027.002.01-.001.021-.008.03-.007.014-.01.03-.01.046s.003.032.01.047c0 .068.075.135.182.203.097.053.176.134.227.232.051.097.073.208.062.318v.025c0 .011-.004.022-.012.03s-.02.012-.03.012l-.019.015zM25.13 15.312c-.012 0-.023-.005-.031-.013s-.013-.019-.013-.03v-.029c.011-.095-.006-.191-.051-.276-.045-.084-.114-.154-.198-.198-.054-.027-.1-.064-.139-.11-.038-.045-.066-.097-.083-.154-.008-.055.005-.111.036-.157.004-.004.009-.008.014-.01.005-.002.01-.003.016-.003s.012.001.017.003c.005.002.01.006.014.01.003.003.007.008.009.013l.003.015c0 .006-.001.01-.003.016-.002.005-.006.009-.01.013-.01.029-.01.06 0 .089.016.045.04.086.07.122.032.035.07.064.113.085.097.052.176.131.228.229.051.097.072.207.06.317v.028c.001.006 0 .011-.001.017-.002.005-.005.01-.009.014-.003.003-.008.007-.013.009-.005.002-.01.003-.016.003l-.014-.003zM17.118 15.973c-.008 0-.016-.002-.023-.006-.007-.005-.013-.011-.016-.019-.004-.01-.003-.021.001-.031.005-.01.013-.018.024-.022.018-.01.037-.015.057-.018.075-.018.164-.036.214-.303.024-.196.109-.38.242-.525l.014-.008c.005-.002.01-.002.016-.002.005 0 .01.002.015.004.005.003.01.006.013.01l.008.013.002.016c0 .005-.002.01-.004.015-.003.005-.006.01-.01.013-.118.134-.192.3-.214.478-.057.296-.164.357-.278.357h-.047l-.014.028zM22.063 14.848l-.016-.006c-.005-.003-.009-.007-.012-.012-.003-.004-.006-.01-.007-.015-.001-.006-.002-.011 0-.017.017-.06.055-.112.107-.146.067-.033.14-.053.215-.057.074-.004.15.006.22.032.31.078.357.046.403 0 .026-.022.056-.037.09-.043l.131-.018c.108 0 .272-.025.272-.086 0-.005 0-.01.003-.016.002-.005.005-.01.01-.014.003-.004.008-.007.013-.01l.016-.002c.011 0 .021.005.028.013.008.008.012.019.012.03 0 .139-.193.153-.357.167h-.121c-.022.007-.043.018-.061.032-.072.05-.15.079-.468 0-.114-.045-.242-.045-.356 0-.035.021-.06.054-.072.093-.001.01-.006.018-.013.025-.007.006-.017.01-.026.01l-.01.04zM20.386 16.339c-.01 0-.02-.003-.028-.01s-.013-.016-.015-.026c0-.01.003-.02.01-.03.006-.008.016-.014.026-.016.096 0 .103-.065.1-.229v-.085c0-.136.085-.182.178-.229.069-.034.133-.077.19-.128.043-.056.072-.122.082-.192.01-.07.001-.142-.025-.208-.004-.01-.004-.02 0-.03.004-.01.011-.019.02-.023.006-.003.011-.004.017-.004.005 0 .01 0 .015.003.005.002.01.005.014.009.004.004.007.008.009.013.034.08.044.169.031.255-.013.086-.05.167-.107.234-.062.058-.133.106-.21.143-.093.05-.132.075-.132.157v.085c0 .143 0 .29-.171.31h-.004zM25.047 16.27h-.029c-.005 0-.01-.002-.014-.005-.005-.003-.009-.006-.012-.01l-.006-.015v-.016c0-.005.002-.01.005-.015.002-.005.006-.01.01-.013.005-.003.01-.006.015-.007h.017s.196.025.306-.29c.017-.05.03-.1.04-.153.032-.139.064-.282.21-.357.01-.003.021-.003.031 0 .01.005.018.012.023.022.004.01.004.022 0 .032-.004.01-.012.02-.022.025-.107.046-.132.15-.16.285-.012.056-.028.11-.047.165-.107.314-.296.356-.357.356l-.01-.003zM15.084 16.329c-.1.002-.2-.024-.286-.075-.088-.059-.153-.148-.182-.25v-.017c.002-.006.004-.011.008-.016.003-.004.007-.008.012-.011.005-.003.01-.005.016-.006h.016c.005.001.01.003.014.006s.008.007.01.011c.004.005.006.01.006.015.024.08.074.15.143.196.07.037.146.059.225.065.078.006.157-.004.232-.03.293-.07.357-.056.418-.028.009.003.019.003.028 0 .005 0 .01.002.016.005.005.003.009.006.012.01.004.005.006.01.007.015.002.006.002.011 0 .017 0 .005-.001.01-.004.015-.002.005-.006.01-.01.013-.005.003-.01.006-.015.007-.006.001-.011.002-.017 0-.017.004-.036.004-.053 0-.032 0-.075-.035-.357.033-.076.02-.154.03-.232.032l-.007-.007zM19.101 16.224c-.05-.002-.1-.018-.142-.046-.006-.007-.01-.016-.01-.025 0-.01.002-.019.007-.026.006-.008.013-.014.022-.017.009-.003.018-.003.027 0 0 0 .104.068.146 0 .02-.029.036-.06.047-.093.025-.064.05-.128.107-.146.016-.008.034-.012.052-.012.017 0 .035.004.051.012.086.05.122 0 .129 0 .008-.007.018-.01.028-.01.01 0 .021.003.029.01.004.004.007.008.009.013l.003.015c0 .006-.001.011-.003.016-.002.005-.005.01-.01.013-.012.018-.03.034-.049.045-.02.011-.041.019-.064.021-.022.003-.045.001-.066-.005-.022-.007-.042-.018-.06-.032h-.031c-.011 0-.043.06-.061.1-.013.04-.03.078-.054.114-.013.018-.03.033-.051.043-.02.01-.044.015-.066.014l.01-.004zM13.895 14.856c-.005-.001-.01-.004-.015-.008-.004-.003-.008-.008-.01-.013-.003-.005-.004-.01-.005-.016 0-.005 0-.01.002-.016.025-.085.08-.158.157-.204.08-.04.174-.047.26-.021.059.026.125.027.185.004.06-.022.11-.067.136-.125.01-.02.024-.038.043-.05l.012-.01.015-.002c.005 0 .01 0 .015.003l.012.009c.004.003.007.008.009.013l.003.015-.003.016c-.002.005-.005.009-.01.013v.025c-.035.073-.097.13-.173.16-.076.03-.16.03-.237 0-.042-.017-.088-.021-.133-.012-.045.01-.085.033-.117.066-.031.032-.055.07-.067.114-.003.008-.008.016-.015.021-.007.005-.016.008-.025.008l-.039.01zM26.645 15.922c-.156-.002-.313-.017-.467-.046-.006 0-.01-.002-.016-.005-.005-.003-.009-.006-.012-.01-.004-.005-.006-.01-.007-.015-.002-.006-.002-.011 0-.017.002-.01.008-.02.018-.026.01-.006.02-.008.031-.006.932.16 1.07-.182 1.07-.185.004-.01.011-.019.02-.024.01-.006.02-.007.03-.005.006.001.01.004.015.007.005.003.008.007.01.012.004.005.005.01.006.015 0 .005 0 .01-.002.016 0 0-.085.289-.678.289h-.018z"/>
    <path fill="#FFF9C1" d="M20.055.375C19.944.26 19.83.15 19.698.046L19.648 0l.064.14c.05.088.104.178.15.27.351.628.534 1.336.532 2.056-.049.976-.457 1.9-1.146 2.594-.453.453-.835.972-1.135 1.538-.312.637-.422 1.354-.317 2.055.106.647.383 1.253.803 1.756.132.168.292.318.439.475l.178.182v-.018c.1.11.207.214.307.321l.182.19c-.058-.167-.13-.329-.214-.483-.375-.688-.56-1.464-.54-2.248.058-.952.448-1.854 1.104-2.548.52-.554.913-1.215 1.152-1.937.193-.701.188-1.442-.016-2.14-.203-.699-.597-1.326-1.136-1.814V.375z"/>
    <path fill="#FFF9C1" d="M21.585 9.736c-.278-.318-.477-.697-.581-1.107-.104-.41-.109-.839-.015-1.251.054-.243.129-.482.193-.714-.057.052-.11.106-.16.16v-.02c-.132.125-.252.264-.357.413-.225.259-.392.562-.49.89-.099.328-.126.673-.081 1.012.085.542.307 1.053.646 1.485.36.485.559 1.072.567 1.677-.002.464-.088.925-.253 1.36.06-.046.113-.1.16-.158.034-.027.066-.057.097-.089.054-.04.104-.085.15-.136.314-.277.553-.63.695-1.024.138-.428.158-.886.059-1.325-.1-.44-.314-.844-.622-1.173h-.008z"/>
    <path fill="#fff" fill-rule="evenodd" d="M125.77 25.223c0 2.608-2.042 4.114-4.922 4.114-2.042 0-3.348-1.029-4.319-1.763l.234-.368c1.072-1.837 1.976.845 3.851.845 1.239 0 1.942-.55 1.942-1.837 0-2.681-5.993-3.16-5.993-7.457 0-2.388 2.276-3.6 4.62-3.6 2.043 0 3.315.918 4.051 1.652l-.703 1.176c-.435-.551-1.506-1.506-2.879-1.506-.971 0-1.641.624-1.641 1.653 0 2.755 5.759 2.902 5.759 7.09zM60.78 17.478c0 3.82-3.683 5.18-6.529 5.18h-.435c0-.33 0-.845.57-.992 1.64-.441 2.845-1.506 2.845-4.078 0-2.792-1.138-3.858-2.846-3.858h-1.171v15.357h-3.382V14.612c0-1.36-1.206-1.433-1.206-1.433v-.808h6.463c-.034.037 5.692-.294 5.692 5.107zM80.87 22.728l3.449 6.32h-1.942c-1.306 0-2.01-.515-2.444-1.507l-2.21-4.372v-.845h.268c1.071 0 2.343-.625 2.343-2.976 0-1.873-.87-2.792-2.076-2.792h-1.406v12.491h-3.114V17.181c0-1.103-1.004-1.176-1.004-1.176v-.661h6.127c2.578 0 4.855 1.175 4.855 4.004 0 1.874-1.406 2.866-2.846 3.38zM91.986 26.515c-.368.478-1.172.845-1.774.845-.87 0-1.976-.698-1.976-2.828 0-3.307 3.75-4.299 3.75-4.299v6.282zM90.915 15.09c-2.746 0-3.951 1.139-4.654 1.69l.335 1.396s1.44-1.617 3.381-1.617c1.105 0 2.01.478 2.01 1.396 0 .698-.168 1.066-1.106 1.47-1.74.735-5.658 1.727-5.658 5.694 0 3.637 2.645 4.225 3.582 4.225 1.24 0 2.378-.55 3.215-1.763.268.808.603 1.506 2.176 1.506h.904V19.72c-.033-2.388-.435-4.63-4.185-4.63zM67.812 26.515c-.368.478-1.172.845-1.774.845-.87 0-1.976-.698-1.976-2.828 0-3.307 3.75-4.299 3.75-4.299v6.282zM66.741 15.09c-2.746 0-3.951 1.139-4.654 1.69l.335 1.396s1.44-1.617 3.381-1.617c1.105 0 2.01.478 2.01 1.396 0 .698-.202 1.066-1.106 1.47-1.774.735-5.658 1.727-5.658 5.694 0 3.637 2.645 4.225 3.582 4.225 1.24 0 2.378-.55 3.215-1.763.268.808.602 1.506 2.176 1.506h.904V19.72c-.033-2.388-.435-4.63-4.185-4.63zM101.663 27.835h-.636V16.556h.636c2.243 0 3.917 1.433 3.917 5.621 0 4.078-1.373 5.658-3.917 5.658zm.837-12.491h-5.592v.661s1.005.073 1.005 1.176v11.866h4.587c3.482 0 6.529-1.947 6.529-6.87 0-4.886-2.947-6.833-6.529-6.833zM131.261 16.556v4.813h3.55v1.212h-3.55v5.254h5.123v1.212h-8.236V17.181c0-1.103-1.005-1.176-1.005-1.176v-.661h9.241v1.212h-5.123zM110.402 15.344h4.118v11.94c0 .992-.536 1.726-1.54 1.726h-1.574V17.18c0-1.102-1.004-1.175-1.004-1.175v-.661zM107.087 34.554c.536.073.971.404.971 1.065V36.575l-.034.036-.033.037-.033.037-.034.036-.033.037-.034.037H106.786c-.503 0-.938-.22-1.239-.661l-.034-.074.369-.367.033.073c.234.294.502.478.871.478.334 0 .636-.22.636-.588 0-.477-.469-.588-.837-.588h-.268l-.101-.33.938-1.14h-1.473v-.514h2.176v.331l-.77 1.139zm-3.917-.992l-.067.919c.167-.074.334-.11.535-.11.636 0 1.172.403 1.172 1.175V36.464l-.033.037-.034.037-.033.037-.034.036-.033.037-.034.037-.033.036-.034.037-.033.037-.034.037-.033.036H103.504c-.468 0-.87-.22-1.205-.587l-.033-.037.334-.404.067.073c.235.258.536.441.871.441.368 0 .703-.257.703-.698 0-.44-.335-.661-.737-.661-.234 0-.435.073-.636.184l-.033.036-.302-.22.101-1.837h1.975v.514h-1.439v-.11zm-2.11 1.47c-.201.257-.502.404-.837.404-.636 0-1.205-.441-1.205-1.176 0-.771.535-1.286 1.239-1.286.334 0 .636.11.904.368.368.404.435.881.435 1.432V35.583l-.034.036-.033.037-.034.037-.033.037-.034.036-.033.037-.034.037-.033.036-.033.037-.034.037-.033.037-.034.036-.033.037-.034.037-.033.037-.034.036-.033.037-.034.037-.033.037-.034.036-.033.037-.034.037-.033.037-.034.036-.033.037-.034.037H100.19c-.402 0-.737-.184-1.038-.441l-.067-.037.301-.44.067.073c.2.22.435.367.737.367.569.184.837-.477.87-1.028zm-3.683-1.433l-.57.184-.133-.478.87-.33h.369v3.71h-.502v-3.086h-.034zm-4.855-.037v1.029h1.741v.514h-1.74v1.066h1.975v.514H92.02V33.01h2.478v.514h-1.976v.037zm-2.612 3.196c-.97 0-1.674-.845-1.674-1.91 0-1.066.703-1.91 1.708-1.91.536 0 .904.183 1.306.587l.067.074-.335.404-.067-.074c-.268-.294-.57-.477-.971-.477-.703 0-1.172.624-1.172 1.36V35.765l.034.037.033.037.034.036.033.037.033.037.034.037.034.036.033.037.033.037.034.037.033.036.034.037.033.037.034.037H90.044c.402 0 .704-.184.971-.478l.067-.037.335.368-.067.073c-.502.33-.904.551-1.44.551zm-4.921-2.792v2.719h-.503V33.01h.436l1.908 2.645v-2.645h.502v3.674h-.401l-1.942-2.719zm-1.574-.955v3.674h-.502V33.01h.502zm-2.511 1.58c.535.147 1.105.367 1.105 1.065 0 .735-.57 1.066-1.172 1.066-.536 0-.971-.184-1.373-.588l-.067-.037.335-.404.067.073c.301.331.602.478 1.038.478.301 0 .636-.147.636-.514 0-.441-.469-.515-.77-.588-.57-.147-1.139-.368-1.139-1.102 0-.698.57-1.029 1.139-1.029.469 0 .803.147 1.172.44l.067.038-.302.44-.067-.036c-.267-.22-.535-.368-.87-.368-.268 0-.603.147-.603.478V34.334H80.535l.067.036h.067l.235.22zm-4.386 2.094v-.698h.569v.698h-.57zm-2.378 0h-1.172V33.01h1.172c.971 0 1.775.735 1.775 1.837 0 1.102-.804 1.837-1.775 1.837zm-4.553-2.719v2.719h-.503V33.01h.436l1.908 2.645v-2.645h.502v3.674h-.401l-1.942-2.719zm-3.349-.404v1.029h1.742v.514h-1.742v1.066h1.976v.514h-2.478V33.01h2.478v.514h-1.976v.037zm-1.942 2.388v-.735h-.97v-.514h1.473v1.506l-.034.037c-.368.367-.837.551-1.34.551-1.004 0-1.707-.808-1.707-1.91 0-1.066.703-1.91 1.674-1.91.503 0 .871.146 1.24.477l.066.037-.335.44-.067-.036c-.267-.258-.535-.368-.937-.368-.67 0-1.139.662-1.139 1.36 0 .808.436 1.396 1.206 1.396.335-.037.636-.147.87-.331zm-5.256-2.388v1.029h1.74v.514h-1.74v1.066h1.975v.514h-2.477V33.01h2.477v.514H59.04v.037zm-3.114 2.608h1.808v.515h-2.31V33.01h.502v3.16zm-3.784-.404h-1.64l-.369.919h-.535l1.54-3.71h.435l1.54 3.71h-.535l-.436-.919zm48.115-2.277c-.402 0-.704.294-.704.734 0 .441.335.698.704.698.368 0 .736-.294.736-.734 0-.441-.335-.698-.736-.698zm-26.786.073v2.608h.67c.702 0 1.238-.514 1.238-1.285 0-.809-.536-1.323-1.239-1.323h-.67zm-22.166.184l-.602 1.506h1.238l-.636-1.506zM138.46 11.887c.837 0 1.54.771 1.54 1.69 0 .918-.703 1.69-1.54 1.69-.837 0-1.54-.772-1.54-1.69 0-.919.703-1.69 1.54-1.69zm0 .183c.77 0 1.373.662 1.373 1.507 0 .845-.603 1.506-1.373 1.506s-1.373-.661-1.373-1.506.603-1.507 1.373-1.507z" clip-rule="evenodd"/>
    <path fill="#fff" d="M137.656 14.274V13.21h-.334v-.22h.904v.22h-.335v1.065h-.235zm.703 0v-1.249h.335l.201.845.201-.845h.335v1.25h-.201v-.993l-.234.992h-.235l-.234-.992v.992h-.168z"/>
</svg>
