<svg xmlns="http://www.w3.org/2000/svg" width="169" height="81" fill="none" viewBox="0 0 169 81">
    <mask id="nh5chxccta" width="160" height="80" x="9" y="0" maskUnits="userSpaceOnUse">
        <path fill="#fff" fill-rule="evenodd" d="M9 8c0-4.418 3.582-8 8-8h152v80H17c-4.418 0-8-3.582-8-8V8z" clip-rule="evenodd"/>
    </mask>
    <g mask="url(#nh5chxccta)">
        <mask id="d7n46pzghb" width="173" height="86" x="-3" y="-5" maskUnits="userSpaceOnUse">
            <path fill="#C4C4C4" d="M-3-5h172.266v85.08H-3V-5z"/>
        </mask>
        <g mask="url(#d7n46pzghb)">
            <g opacity=".56">
                <path fill="#8FD4E2" fill-rule="evenodd" d="M160.414 52.87l1.037-16.178-10.401-.622v3.585l-5.499-.119.534-10.015-13.354-.444-.346 14.667-8.578-.089.66-8.77h-10.15l.377-6.52-10.463-.622v3.586l-5.437-.119.597-10.015-13.354-.474-.314 14.697-8.579-.09.66-8.74H63.978l1.446 13.808-2.828.03.283-5.008-10.496-.622v3.585l-5.436-.119.597-10.015-13.323-.444-.345 14.667-8.579-.03.66-8.74H12.163l1.445 13.778-9.898.207 3.425 33.424h159.349l.497-28.001-6.567-.237z" clip-rule="evenodd" opacity=".3"/>
            </g>
            <g opacity=".56">
                <path fill="#78B8C4" fill-rule="evenodd" d="M156.895 66.137l1.381-9.728h-13.281l.635 6.163-8.255.055-.332-10.419-12.839.305.608 7.102-5.191.083v-2.543l-10.133.443.276 3.51-5.991-.139 1.242-12.298H92.95l.58 7.821-7.51.083-.277-13.017-11.651.387.552 8.927-4.722.083v-3.178l-9.166.552.497 8.761-6.82-.166 1.27-14.122H43.637l.58 8.954-7.51.138-.276-15.006-11.651.47.469 10.225-4.749.11v-3.647l-9.14.635.885 16.527-5.247.22.47-5.36H.814l.303 5.25-4.113.056-.166-8.872-6.433.277.359 6.052-2.568.055v-2.155l-5.108.359.442 9.756-3.175.138.773 11.773 26.616.028.166 2.57 53.785.055.055-1.188 43.79.055.083.774 60.397.028.401-16.803-9.526-.139z" clip-rule="evenodd" opacity=".4"/>
            </g>
            <path fill="#F1F2F2" d="M41.618 23.916c0-.608-1.574-1.796-3.093-1.16-.414-.47-1.104-.774-1.905-.774h-.138c-.027-.083-.055-.166-.11-.249-.387-.801-1.188-1.354-2.126-1.354-.47 0-.884.138-1.243.36-.331-.415-.828-.664-1.408-.664-.083 0-.165 0-.22.027-.056 0-.084 0-.139.028-.027-.193-.083-.36-.138-.525-.276-.636-.938-1.105-1.684-1.105-.11 0-.22 0-.331.027-.028 0-.083.028-.11.028-.056-.194-.111-.387-.194-.58-.414-.857-1.27-1.438-2.264-1.438-.884 0-1.657.443-2.099 1.134-.248-.111-.552-.166-.855-.166-1.243 0-2.237.94-2.347 2.155h-.166c-1.353 0-2.457.968-2.706 2.239-.22.083-.414.166-.607.276-.304-.11-.635-.193-1.022-.193-1.049 0-1.933.553-2.181 1.271-1.132.083-2.043.36-2.402.69h29.488v-.027zM143.91 19.956c0-.608-1.574-1.796-3.093-1.16-.414-.47-1.104-.774-1.905-.774h-.138c-.027-.083-.055-.166-.11-.249-.387-.801-1.187-1.354-2.126-1.354-.47 0-.884.138-1.243.36-.331-.415-.828-.664-1.408-.664-.083 0-.165 0-.221.027-.055 0-.083 0-.138.028-.027-.193-.083-.36-.138-.525-.276-.636-.939-1.105-1.684-1.105-.11 0-.221 0-.331.027-.028 0-.083.028-.111.028-.055-.194-.11-.387-.193-.58-.414-.857-1.27-1.438-2.264-1.438-.884 0-1.657.443-2.099 1.133-.248-.11-.552-.165-.855-.165-1.243 0-2.237.94-2.347 2.155h-.166c-1.353 0-2.457.968-2.706 2.239-.221.083-.414.166-.607.276-.304-.11-.635-.193-1.022-.193-1.049 0-1.933.553-2.181 1.271-1.132.083-2.043.36-2.402.691h29.488v-.028zM86.876 10.408c0-.608-1.573-1.797-3.092-1.161-.414-.47-1.104-.774-1.905-.774h-.138c-.028-.083-.055-.166-.11-.249-.387-.801-1.188-1.354-2.126-1.354-.47 0-.884.138-1.243.36-.331-.415-.828-.664-1.408-.664-.083 0-.166 0-.22.028-.056 0-.084 0-.139.027-.028-.193-.083-.359-.138-.525-.276-.635-.939-1.105-1.684-1.105-.11 0-.221 0-.332.027-.027 0-.082.028-.11.028-.055-.193-.11-.387-.193-.58-.414-.857-1.27-1.437-2.264-1.437-.884 0-1.657.442-2.099 1.133-.248-.11-.552-.166-.856-.166-1.242 0-2.236.94-2.347 2.155h-.165c-1.353 0-2.458.968-2.706 2.24-.22.082-.414.165-.607.275-.304-.11-.636-.193-1.022-.193-1.05 0-1.933.553-2.181 1.271-1.132.083-2.043.36-2.402.691h29.487v-.027z"/>
            <path fill="#333" d="M48.544 72.142c-.274-.017-.51.19-.526.464-.018.274.19.51.464.526l.062-.99zm-.062.99c.531.034.925-.025 1.238-.125.296-.095.528-.235.626-.284l-.444-.888c-.19.095-.285.163-.484.227-.182.058-.451.106-.874.08l-.062.99zm1.864-.41c.196-.097.649-.41 1.038-.748.199-.173.402-.37.556-.569.078-.1.153-.212.207-.334.053-.117.103-.28.08-.464l-.985.123c-.008-.065.012-.093 0-.064-.012.024-.037.068-.086.131-.097.126-.246.274-.422.427-.36.313-.742.566-.832.611l.444.888z"/>
            <path fill="#4B4141" d="M99.718 78.277c3.019-2.242 3.65-6.507 1.408-9.527-2.242-3.02-6.507-3.65-9.527-1.408-3.02 2.241-3.65 6.507-1.408 9.526 2.242 3.02 6.507 3.65 9.527 1.409z"/>
            <path fill="#352C2C" d="M96.616 76.865c2.24-.529 3.629-2.774 3.1-5.015-.53-2.241-2.775-3.629-5.016-3.1-2.24.529-3.629 2.774-3.1 5.015.53 2.241 2.775 3.63 5.016 3.1z"/>
            <path fill="#424242" d="M95.66 76.206c1.877 0 3.4-1.522 3.4-3.4s-1.523-3.4-3.4-3.4c-1.879 0-3.401 1.522-3.401 3.4s1.522 3.4 3.4 3.4z"/>
            <path fill="#7F6E6E" d="M96.675 72.386l-2.18-4.841c-.128-.266-.356-.47-.635-.567-.279-.097-.585-.08-.85.049-.132.064-.25.153-.347.262-.097.109-.172.236-.22.374-.048.138-.068.284-.06.43.01.146.047.289.11.42l2.18 4.841c.128.266.357.47.636.567.278.097.584.08.85-.05.131-.063.25-.152.346-.26.098-.11.172-.237.22-.375.048-.138.068-.284.06-.43-.009-.146-.046-.289-.11-.42z"/>
            <path fill="#5F5252" d="M96.032 73.559c.159-.075.292-.195.382-.346.09-.15.134-.324.125-.5-.01-.175-.07-.343-.176-.484-.105-.14-.25-.246-.415-.304-.166-.058-.345-.065-.515-.02-.17.043-.323.137-.439.269-.116.131-.19.294-.214.468-.023.174.006.351.084.509.102.207.282.366.5.442.219.077.459.064.668-.034z"/>
            <path fill="#483E3E" d="M94.864 73.15c-.05-.1-.078-.209-.087-.32.1.167.254.297.436.368.181.072.382.081.57.026.187-.054.351-.17.467-.327.115-.158.174-.35.17-.545l.019.037c.053.104.084.217.093.333.009.117-.006.233-.043.344-.037.11-.096.212-.173.3-.077.087-.17.158-.276.209-.104.05-.218.08-.335.086-.116.006-.232-.011-.342-.05-.11-.04-.21-.101-.296-.18-.085-.079-.155-.174-.203-.28z"/>
            <path fill="#000" d="M96.654 66.067c.908.133 1.78.449 2.562.929.783.48 1.46 1.113 1.99 1.861h-7.104c-.764 0-1.216.884-1.68 1.485-.462.6-.85 1.278-1.395 1.811-.597.572-1.351.952-2.165 1.093-.065-1.014.097-2.029.475-2.971.378-.943.962-1.79 1.709-2.477.746-.688 1.637-1.2 2.608-1.5.97-.3 1.995-.379 3-.231z" opacity=".1"/>
            <path fill="#EEAA48" d="M91.536 63.234c2.176-.354 4.441-.502 6.555.127 2.114.63 4.056 2.155 4.712 4.26h-8.996c-.764 0-1.214.883-1.679 1.484-.465.601-.85 1.278-1.396 1.812-.588.555-1.323.93-2.117 1.081-.795.151-1.616.072-2.367-.228.594-1.02.875-2.393 1.237-3.517.362-1.124.762-2.255 1.453-3.211.691-.956 1.433-1.617 2.598-1.808z"/>
            <path fill="#E59623" d="M87.23 69.073c1.303-.906 2.13-2.329 2.13-4.563v-.01c.547-.673 1.32-1.123 2.176-1.266 1.345-.242 2.713-.338 4.079-.286-2.463 1.228-4.434 3.257-5.59 5.754l-.884 1.913c-.29.626-.778 1.14-1.387 1.463-.518-.004-1.03-.109-1.508-.308.449-.782.72-1.77.985-2.697z" opacity=".5"/>
            <path fill="#4B4141" d="M58.217 79.615c3.76 0 6.81-3.048 6.81-6.81 0-3.76-3.05-6.809-6.81-6.809-3.761 0-6.81 3.05-6.81 6.81s3.049 6.81 6.81 6.81z"/>
            <path fill="#352C2C" d="M62.057 74.429c.894-2.122-.101-4.567-2.223-5.461-2.122-.894-4.567.101-5.461 2.223-.894 2.122.101 4.567 2.223 5.46 2.122.895 4.567-.1 5.46-2.222z"/>
            <path fill="#424242" d="M58.216 76.206c1.878 0 3.4-1.522 3.4-3.4s-1.522-3.4-3.4-3.4-3.4 1.522-3.4 3.4 1.522 3.4 3.4 3.4z"/>
            <path fill="#7F6E6E" d="M59.176 75.19l8.372-3.082c.306-.111.587-.282.826-.503.24-.22.434-.486.571-.781.137-.296.215-.615.228-.941.013-.325-.039-.65-.151-.956-.228-.616-.69-1.117-1.287-1.394-.596-.276-1.277-.305-1.895-.08l-8.379 3.07c-.306.112-.586.283-.826.503-.24.22-.433.486-.57.782-.137.295-.214.615-.227.94-.013.326.038.65.151.956.112.307.283.59.503.83.22.24.486.436.782.574.296.138.617.216.943.23.326.015.652-.036.959-.147z"/>
            <path fill="#5F5252" d="M56.712 73.5c.134.364.372.679.684.906.313.228.686.357 1.072.373.386.015.769-.084 1.098-.286.33-.202.593-.497.755-.848.162-.35.217-.742.156-1.124-.06-.381-.232-.737-.494-1.021-.262-.284-.603-.484-.979-.575-.375-.09-.77-.067-1.133.066-.24.089-.462.224-.65.398-.189.174-.341.384-.449.617-.108.233-.168.485-.179.741-.01.257.03.513.12.754zM61.4 72.385c.073.201.206.376.379.502.173.126.38.198.594.206.214.009.426-.046.609-.158.182-.112.328-.276.418-.47.09-.195.12-.412.086-.624-.033-.211-.129-.408-.274-.566-.146-.157-.335-.268-.543-.318-.208-.05-.427-.037-.628.037-.134.05-.256.124-.36.22-.105.097-.19.213-.25.343-.06.129-.093.269-.098.41-.006.143.017.285.066.418z"/>
            <path fill="#4B4141" d="M57.872 70.991c.235-.086.485-.126.735-.118-.418.167-.765.475-.981.87-.217.394-.29.852-.206 1.294.083.443.318.843.663 1.132.346.288.78.449 1.231.452l-.088.04c-.241.088-.497.128-.754.118-.256-.01-.508-.071-.741-.179-.233-.107-.443-.26-.617-.449-.174-.188-.31-.41-.398-.65-.089-.241-.129-.497-.119-.754.01-.256.071-.508.179-.741.108-.233.26-.443.449-.617.188-.174.41-.31.65-.398h-.003z"/>
            <path fill="#E5A652" d="M88.104 70.102l-.867 1.464c-.256.433-.62.792-1.058 1.041-.437.25-.931.381-1.434.381H69.89c-.714 0-1.403-.263-1.935-.74l-1.47-1.322 4.594.118s3.298 1.002 3.594 1.002c.295 0 7.894-.295 7.894-.295l5.537-1.649z"/>
            <path fill="#FFC77F" d="M73.54 34.7l2.3.907 1.282-3.246-2.301-.909-1.282 3.247z"/>
            <path fill="#FFC77F" d="M80.027 31.09c.875-2.217-.117-4.687-2.216-5.515-2.1-.83-4.51.297-5.386 2.515-.875 2.218.117 4.688 2.216 5.517 2.099.828 4.51-.298 5.386-2.516z"/>
            <path fill="#DC661E" d="M74.439 35.024c.145-.075.305-.118.468-.126.163-.009.326.018.478.077.152.06.29.151.404.268.114.117.202.257.258.41l1.6 4.419c.305.851.797 1.624 1.44 2.262.641.639 1.417 1.125 2.27 1.426l3.916 1.386c.071.024.138.062.194.113.057.05.103.111.136.18.033.068.052.142.056.217.004.076-.007.152-.033.223l-.394 1.085c-.05.144-.154.261-.29.328-.137.066-.295.075-.438.026l-3.911-1.386c-1.176-.413-2.245-1.082-3.129-1.96-.884-.878-1.561-1.941-1.983-3.114l-1.59-4.387c-.1-.266-.1-.56.001-.826.101-.267.295-.487.547-.621z"/>
            <path fill="#2C1400" d="M81.97 68.448c-.037.193-.03.392.022.582.052.19.145.366.274.515.261.295.583.53.944.688.722.352 1.505.56 2.307.615.273.017.611.058.707.314.027.108.016.222-.033.323-.048.1-.13.18-.233.225-.205.085-.428.12-.65.099l-6.009-.072c-.247 0-.53-.023-.679-.22-.148-.196-.092-.468-.028-.706.245-.917.51-1.83.797-2.738.38-.23.817-.343 1.26-.327.241-.016.483.005.718.06.226.07.512.419.602.642z"/>
            <path fill="#08334C" d="M80.562 51.612v-.015h4.219c.374 0 .743.088 1.076.259.333.17.62.418.839.722.218.303.361.655.417 1.025.056.37.023.748-.096 1.102l-4.864 14.477h-3.305l4.43-13.134c.051-.15.066-.31.042-.467-.023-.157-.083-.306-.176-.434-.092-.13-.214-.234-.355-.307-.141-.072-.297-.11-.456-.11h-7.647c-.866 0-1.702-.317-2.35-.891-.648-.574-1.064-1.365-1.169-2.225l9.395-.002z"/>
            <path fill="#002A41" d="M78.437 69.189h4.135v-1.06h-4.135v1.06z"/>
            <path fill="#FF3214" d="M53.587 62.257h2.132v-4.353h-1.174c-.4 0-.797.09-1.158.264-.361.174-.679.427-.93.74l-.3.376c-.214.27-.349.594-.388.936-.038.343.02.69.17 1 .15.31.383.572.675.756.291.183.629.28.973.28z"/>
            <path fill="#D1E9ED" d="M88.696 44.385l.767-.707s1.331 2.298 0 4.2l-.767-3.493z"/>
            <path fill="#000" d="M51.407 72.805c0-1.39.424-2.745 1.216-3.886.792-1.14 1.914-2.012 3.215-2.497 1.301-.485 2.72-.56 4.066-.216 1.345.345 2.553 1.093 3.461 2.143l2.474-.908c.618-.228 1.301-.2 1.9.076.597.276 1.06.779 1.288 1.397.227.618.2 1.3-.077 1.899-.276.597-.778 1.06-1.396 1.288l-1.944.716-14.2.02-.003-.032z" opacity=".1"/>
            <path fill="#512A00" d="M75.228 57.8h-12.24v-1.674c0-.765.304-1.498.845-2.039.54-.54 1.274-.844 2.038-.844h6.474c.764 0 1.498.304 2.038.844.54.54.845 1.274.845 2.038v1.676z"/>
            <path fill="#321800" d="M75.158 55.504c.046.204.07.413.071.622V57.8H62.99v-1.675c0-.21.024-.418.07-.622h12.098z"/>
            <path fill="#E59623" d="M87.005 51.402c-.255-.205-1.434-1.486-1.434-1.486l-.913-2.508s-.872-2.254.05-3.181c.924-.928 4.762-.562 4.762-.562v4.199s-1.997-.154-1.997 1.74c0 1.895-.468 1.798-.468 1.798z"/>
            <path fill="#E59623" d="M84.548 46.075c0 .233.07.461.199.655.13.194.314.344.53.433.215.09.452.112.68.066.229-.046.438-.159.603-.324.164-.165.276-.376.32-.605.045-.228.02-.465-.07-.68-.09-.215-.242-.398-.436-.527-.195-.129-.423-.196-.656-.195-.311.002-.608.127-.827.348-.22.22-.343.518-.343.83z" opacity=".5"/>
            <path fill="#EEAA48" d="M85.572 49.917l1.894-.305 6.716 10.906.197 2.405c-2.486 1.225-4.477 3.265-5.642 5.78l-.884 1.912c-.254.547-.659 1.01-1.167 1.335-.509.325-1.1.497-1.703.498h-14.91c-1.024 0-2.007-.4-2.74-1.114-1.223-1.193-3.014-2.914-3.114-2.88-.154.05-16.13 0-16.13 0 1.005-3.582 2.98-6.817 5.708-9.346l.51-.476c.643-.6 1.49-.935 2.369-.938h18.557v1.997s-3.381 2.356-3.381 5.224c0 2.869.353 5.735 5.427 5.735 5.075 0 10.806-.256 10.806-6.145 0-5.889-2.513-14.588-2.513-14.588z"/>
            <path fill="#E59623" d="M54.307 58.629c.643-.6 1.49-.934 2.368-.935h18.558v1.15H54.07l.237-.215z" opacity=".5"/>
            <path fill="#F4A633" d="M49.148 71.656c-.219 0-.435-.047-.635-.137-.199-.09-.377-.222-.521-.386-.145-.164-.253-.357-.318-.566-.064-.21-.084-.43-.057-.647.21-1.6.767-3.135 1.633-4.498 1.163-1.853 2.805-3.377 4.634-4.58 2.19-1.443 4.724-2.457 7.347-2.512 2.623-.055 5.329.94 7.011 2.952 1.16 1.385 1.782 3.17 1.96 4.97.11 1.234.063 2.477-.143 3.699-.073.466-.31.892-.669 1.2-.358.307-.815.477-1.287.478l-18.955.027z"/>
            <path fill="#E59623" d="M65.157 71.636c.473 0 .93-.17 1.288-.478.36-.308.596-.734.669-1.2.205-1.222.253-2.466.143-3.7-.177-1.799-.8-3.584-1.96-4.97-1.331-1.59-3.3-2.54-5.362-2.843.43-.062.863-.098 1.297-.108 2.62-.053 5.328.94 7.01 2.952 1.16 1.385 1.782 3.17 1.96 4.97.112 1.233.063 2.477-.142 3.698-.073.467-.31.893-.67 1.2-.358.308-.814.478-1.287.48l-18.955.019h-.074l16.083-.02zM81.855 71.125c-1.794.223-3.614.032-5.403-.23-1.353-.196-2.827-.516-3.647-1.617-.223-.307-.384-.653-.476-1.021.606 1.414 1.957 2.407 4.949 2.407 5.07 0 10.805-.256 10.805-6.145 0-5.889-2.511-14.602-2.511-14.602l1.205-.194c1.485 3.416 2.327 7.077 2.485 10.798.126 3.031-.334 6.354-2.522 8.455-1.302 1.255-3.09 1.92-4.885 2.15z" opacity=".5"/>
            <path fill="#9B6A28" d="M50.714 69.535l3.077.16c.056.002.11-.018.151-.055.042-.038.067-.09.07-.146.002-.055-.017-.11-.055-.15-.037-.041-.09-.066-.145-.069l-3.075-.159c-.028-.001-.055.002-.081.011-.026.01-.05.024-.07.042-.021.019-.038.04-.05.066-.012.025-.019.052-.02.08-.002.027.002.054.011.08.01.026.023.05.042.071.018.02.04.037.066.05.024.01.051.018.079.02zM50.64 68.864l3.076.159c.055.002.109-.017.15-.053.041-.036.067-.087.071-.142.003-.055-.017-.11-.054-.15-.038-.041-.09-.066-.146-.069l-3.075-.159c-.027-.002-.055.002-.082.012-.026.009-.05.023-.07.042-.021.019-.038.042-.05.067-.011.025-.018.053-.019.08 0 .055.02.107.056.147.037.04.088.063.142.066zM50.566 68.184l3.077.16c.055.002.11-.018.15-.055.042-.037.067-.088.07-.144.002-.027-.002-.055-.011-.081-.01-.026-.024-.05-.042-.07-.019-.021-.041-.038-.066-.05-.025-.011-.052-.018-.08-.02l-3.075-.159c-.055-.002-.109.018-.15.055-.04.037-.064.088-.068.143-.003.055.016.109.052.15.037.042.088.067.143.071z"/>
            <path fill="#AD9595" d="M86.665 45.861c.067.017.138.006.198-.03.059-.036.102-.093.118-.16l2.42-9.721c.008-.034.01-.068.005-.102-.005-.035-.017-.067-.035-.097-.017-.03-.04-.055-.068-.076-.028-.02-.06-.035-.093-.043-.066-.015-.135-.005-.193.03-.058.035-.1.09-.118.155l-2.42 9.72c-.009.034-.012.07-.007.104.004.034.015.067.032.097.018.03.04.057.068.078.028.021.06.036.093.045z"/>
            <path fill="#3E3B3B" d="M89.183 38.288c.069 0 .135-.028.184-.078.05-.05.077-.116.077-.185v-3.798c0-.07-.028-.137-.076-.186-.05-.05-.116-.077-.185-.078-.07 0-.137.029-.186.078-.049.05-.076.116-.076.186v3.798c0 .07.027.136.076.185.05.05.116.078.186.078z"/>
            <path fill="#FFC77F" d="M83.734 45.48c.234.063.483.034.696-.081.217-.101.415-.243.636-.338.24-.107.503-.157.766-.147.263.01.52.081.751.207.231.126.43.304.582.52.15.215.25.462.29.722.041.26.02.526-.058.777-.08.251-.216.48-.398.67-.182.19-.406.336-.653.426-.248.09-.513.12-.774.091-.137.095-.302.142-.468.132-.166-.01-.324-.077-.448-.189-.162-.177-.29-.382-.382-.604-.089-.227-.255-.414-.47-.53-.14-.046-.285-.076-.433-.09-.073-.008-.144-.031-.209-.068-.064-.037-.12-.087-.163-.146-.092-.167-.121-.361-.084-.548.037-.187.139-.354.287-.474.099-.074.214-.125.316-.194.103-.07.187-.014.216-.136z"/>
            <path fill="#3E3B3B" d="M85.732 47.798c.586 0 1.06-.475 1.06-1.06 0-.586-.474-1.06-1.06-1.06-.585 0-1.06.474-1.06 1.06 0 .585.475 1.06 1.06 1.06z"/>
            <path fill="#512A00" d="M78.877 68.448c-.037.193-.029.392.023.582.05.19.145.366.274.515.26.295.583.53.943.688.722.352 1.505.56 2.307.615.274.017.611.058.707.314.027.108.016.222-.033.323-.048.1-.13.18-.232.225-.206.085-.43.12-.65.099l-6.01-.072c-.247 0-.53-.023-.678-.22-.149-.196-.092-.468-.029-.706.245-.917.511-1.83.797-2.738.38-.23.818-.343 1.26-.327.241-.016.483.005.718.06.226.07.513.419.603.642z"/>
            <path fill="#1A4767" d="M75.202 51.222l-.056.374h6.63c.375 0 .744.09 1.077.26.333.17.62.418.839.721.218.304.361.656.417 1.026.056.37.023.747-.096 1.102l-4.864 14.477h-3.305l4.43-13.134c.052-.15.066-.31.042-.467-.023-.157-.083-.306-.176-.434-.092-.13-.214-.234-.355-.307-.141-.072-.297-.11-.456-.11h-7.647c-.934 0-1.83-.368-2.494-1.025-.664-.656-1.043-1.548-1.053-2.482l7.067-.001z"/>
            <path fill="#000" d="M69.959 51.222c.252 1.684 1.2 3.02 3.004 3.02h7.648c.158 0 .314.038.455.11.141.073.263.178.356.307.092.129.152.278.176.434.023.157.009.317-.042.467l-4.43 13.134h2.187l-.164.486h-3.305l4.43-13.134c.052-.15.066-.31.042-.467-.023-.156-.083-.305-.176-.434-.092-.13-.214-.234-.355-.307-.141-.072-.297-.11-.456-.11h-7.647c-.934 0-1.83-.368-2.494-1.024-.664-.657-1.043-1.549-1.053-2.482h1.824z" opacity=".05"/>
            <path fill="#303030" d="M80.428 26.615c.131.41.39.768.741 1.02.35.251.772.383 1.203.376-.297.257-.647.447-1.025.555-.377.108-.774.132-1.163.07.087.225.249.412.458.53-.628.168-1.286.186-1.922.052-.636-.134-1.231-.416-1.738-.822-.07-.853.473-1.624 1.237-2.023.348-.192.747-.272 1.143-.229.395.044.768.208 1.066.47zM76.528 31.763c-.313.67-.826 1.225-1.469 1.59-.643.365-1.383.52-2.119.446l.195-.354c-.855-.08-1.689-.312-2.462-.685.288-.292.504-.648.631-1.038s.16-.805.099-1.21c1.79-.049 3.56.383 5.125 1.25z"/>
            <path fill="#003956" d="M75.58 69.189h4.135v-1.06h-4.136v1.06z"/>
            <path fill="#871A1D" d="M80.653 27.042c-.206.056-.418.094-.63.113-.124.016-.248.03-.37.052-.418.044-.808.231-1.103.53-.278.316-.401.783-.353 1.347.014.176.038.353.063.509.04.218.063.44.067.662 0 .884-.615 1.741-1.518 2.153-.802.364-1.811.394-2.842.081-.974-.295-1.914-.9-2.718-1.444-.03-.019-.064-.033-.099-.04-.49-.663-.824-1.43-.975-2.24-.151-.811-.115-1.646.104-2.441.22-.796.618-1.53 1.163-2.149.546-.619 1.226-1.105 1.987-1.422.762-.317 1.585-.456 2.409-.408.824.049 1.625.285 2.344.689.72.405 1.337.967 1.806 1.646.469.678.778 1.455.902 2.27-.077.036-.156.067-.237.092z"/>
            <path fill="#000" d="M75.512 22.346c.637 0 1.27.111 1.868.33-.962.086-1.884.426-2.671.986-.787.56-1.41 1.319-1.806 2.2-.397.88-.55 1.85-.447 2.81.103.96.46 1.876 1.036 2.652.035.008.068.021.099.04.724.521 1.503.96 2.324 1.309-.654.083-1.317.022-1.944-.177-.974-.295-1.915-.9-2.719-1.444-.03-.02-.063-.033-.099-.04-.597-.809-.959-1.767-1.044-2.768-.086-1.002.108-2.007.56-2.905.451-.898 1.143-1.653 1.998-2.182.855-.528 1.84-.809 2.845-.81z" opacity=".1"/>
            <path fill="#C74132" d="M71.049 31.09c.044-.048.105-.078.17-.084.065-.006.13.013.183.052.75.54 1.626 1.141 2.536 1.435.965.313 1.91.282 2.662-.082.411-.194.762-.498 1.013-.877.25-.38.393-.82.411-1.275-.005-.222-.026-.444-.061-.663-.023-.164-.048-.334-.06-.509-.041-.564.075-1.03.335-1.347.27-.295.636-.483 1.032-.53.115-.021.232-.035.354-.051.2-.02.398-.057.592-.113.056-.02.466-.04.516-.06.062-.027.133-.028.195-.003.063.026.114.075.14.137.018.034.029.072.032.11.002.04-.003.078-.015.115-.012.036-.032.07-.057.1-.026.028-.057.052-.092.069-.069.03-.496.057-.562.078-.223.067-.452.112-.684.134-.108.014-.215.028-.321.048-.274.028-.529.154-.718.353-.205.25-.225.638-.203.921.01.154.031.306.054.467.043.248.066.499.07.75-.018.563-.19 1.11-.497 1.582s-.737.85-1.244 1.095c-.195.094-.399.17-.608.224-.806.195-1.652.155-2.436-.115-.986-.318-1.907-.95-2.693-1.518-.034-.025-.062-.057-.083-.093-.02-.037-.034-.077-.038-.119-.004-.042 0-.084.014-.124.013-.04.034-.076.063-.108z"/>
            <path fill="#F5AE48" d="M58.324 59.205l-.438.176c-.138.053-.311.13-.511.221l-.315.145-.339.177c-.237.116-.486.254-.75.404-.263.15-.53.32-.809.494-.28.173-.55.364-.827.583-.277.219-.548.426-.82.643-.272.218-.53.454-.772.697-.242.242-.481.478-.707.706-.227.228-.431.472-.617.707s-.366.45-.518.66l-.223.298c-.065.097-.129.19-.189.276-.118.177-.22.325-.298.454l-.25.403.281-.38c.087-.124.2-.267.334-.428l.209-.26.242-.277c.168-.196.354-.397.564-.608.21-.21.431-.422.66-.643.23-.221.485-.435.75-.642.265-.206.53-.412.804-.617.274-.204.557-.386.845-.558.288-.171.567-.337.843-.493.276-.156.55-.293.813-.412.264-.118.513-.237.748-.329l.334-.136.302-.122c.187-.07.353-.129.502-.176l.45-.142-.298-.822z"/>
            <path fill="#F27021" d="M68.111 51.236l2.105-14.022c.063-.462.217-.906.453-1.307.236-.402.55-.752.922-1.032s.797-.482 1.248-.596c.451-.114.921-.137 1.382-.069.46.07.902.229 1.3.47.4.24.746.559 1.02.935.275.376.472.803.58 1.255.109.453.126.923.052 1.383L75.228 51.23h-.024l-.046.31h-7.004c-.01-.103-.016-.205-.018-.31l-.025.006z"/>
            <path fill="#000" d="M72.1 36.326c-.058-.278-.012-.567.127-.814.14-.247.364-.435.632-.53.156-.05.32-.068.484-.05.163.017.32.07.462.154.14.084.262.197.356.331.093.135.157.288.186.45l.884 4.621c.184.969.6 1.879 1.212 2.651l-.42 2.805c-1.594-1.255-2.678-3.046-3.05-5.04l-.874-4.578z" opacity=".05"/>
            <path fill="#000" d="M70.217 37.213c.073-.491.25-.962.519-1.38.268-.418.623-.775 1.04-1.046.416-.271.885-.451 1.376-.528.492-.076.993-.048 1.473.084-.658.18-1.25.546-1.703 1.056-.453.51-.748 1.14-.85 1.814l-2.104 14.022h.02c0 .105 0 .207.019.31H68.15c-.01-.103-.016-.205-.018-.31h-.025l2.109-14.022z" opacity=".05"/>
            <path fill="#E59623" d="M90.755 61.856c.293 0 .53-.567.53-1.267s-.237-1.267-.53-1.267c-.293 0-.53.567-.53 1.267s.237 1.267.53 1.267z"/>
            <path fill="#9B6A28" d="M92.315 61.028h1.18c.054 0 .106-.021.145-.06.038-.038.06-.09.061-.145 0-.055-.022-.107-.06-.146-.04-.039-.092-.06-.147-.06h-1.179c-.027 0-.053.005-.078.015-.025.01-.048.026-.067.045-.02.02-.034.042-.044.067-.01.025-.016.052-.016.08 0 .054.022.106.06.144.039.039.091.06.145.06zM92.315 61.795h1.18c.054 0 .106-.022.145-.06.039-.04.06-.092.061-.147 0-.055-.022-.107-.06-.146-.04-.039-.092-.06-.147-.06h-1.179c-.027 0-.053.005-.078.015-.025.01-.048.026-.067.045-.02.02-.034.042-.044.067-.01.026-.016.052-.016.08 0 .054.022.106.06.145.039.039.09.06.145.061zM92.315 62.56h1.18c.054 0 .107-.021.145-.06.04-.039.061-.091.061-.146 0-.055-.022-.107-.061-.145-.039-.039-.091-.06-.146-.06h-1.179c-.054 0-.106.021-.145.06-.038.038-.06.09-.06.145 0 .027.005.054.016.079.01.025.025.048.044.067.019.02.041.035.067.045.025.01.051.016.078.016z"/>
            <path fill="#F47D35" d="M72.73 35.023c.145-.075.304-.118.468-.127.163-.008.326.018.478.078.153.06.29.15.404.268.115.117.202.257.258.41l1.59 4.419c.306.852.798 1.625 1.44 2.263.642.638 1.418 1.125 2.272 1.425l3.925 1.386c.072.025.138.063.195.113.056.05.102.112.135.18.033.068.052.142.056.218.004.075-.007.151-.032.222l-.394 1.086c-.025.07-.063.136-.113.192-.05.056-.11.102-.177.135-.068.033-.141.052-.216.056-.075.005-.15-.005-.22-.03l-3.903-1.377c-1.176-.412-2.244-1.082-3.129-1.96-.884-.877-1.561-1.941-1.982-3.114l-1.59-4.386c-.104-.267-.106-.561-.008-.83.099-.267.292-.49.543-.627z"/>
            <path fill="#000" d="M72.73 35.024c.056-.03.115-.053.176-.071-.072.146-.113.304-.122.466-.01.163.014.325.069.478l1.59 4.386c.422 1.173 1.1 2.236 1.983 3.114.885.878 1.953 1.548 3.129 1.96l3.898 1.379c.045.015.091.024.138.028l-.074.202c-.024.07-.063.136-.112.192-.05.056-.11.102-.178.135-.067.033-.14.052-.215.056-.075.005-.15-.005-.221-.03l-3.903-1.377c-1.175-.412-2.244-1.082-3.128-1.96-.884-.877-1.562-1.941-1.983-3.114l-1.59-4.386c-.103-.268-.105-.563-.005-.832.1-.268.295-.491.547-.626z" opacity=".05"/>
            <path fill="#847373" d="M62.05 57.694H49.714c-.077 0-.153-.015-.223-.044-.071-.029-.135-.072-.19-.126-.053-.054-.096-.118-.125-.189-.028-.07-.043-.147-.042-.223 0-.152.06-.298.168-.406.108-.108.254-.168.406-.168h12.336c.076 0 .15.014.22.043.07.029.134.071.187.124.053.054.096.117.124.187.03.07.044.145.044.22 0 .076-.013.15-.041.22-.029.071-.07.135-.123.189-.053.054-.116.097-.186.127-.07.03-.144.045-.22.046z"/>
            <path fill="#675959" d="M49.713 57.163H62.05c.106 0 .21-.029.3-.084.089-.055.162-.134.21-.228.045.087.067.185.064.283-.003.099-.032.195-.083.279-.051.084-.123.154-.209.202-.086.048-.183.074-.282.073H49.713c-.099.001-.196-.024-.282-.072-.087-.048-.159-.117-.21-.202-.051-.084-.08-.18-.082-.28-.003-.099.02-.196.067-.283.048.093.12.172.21.227.09.056.192.085.297.085z"/>
            <path fill="#871A1D" d="M62.094 56.54H46.246c-.719 0-1.408-.286-1.916-.794-.508-.509-.793-1.198-.793-1.916v-8.418c0-1.594.633-3.122 1.76-4.25 1.127-1.126 2.655-1.76 4.249-1.76h9.838c.719 0 1.408.286 1.916.794.508.509.794 1.198.794 1.916V56.54z"/>
            <path fill="#7B1517" d="M57.264 39.398h2.12c.72 0 1.408.285 1.916.794.508.508.794 1.197.794 1.915v14.434h-2.121V42.107c0-.718-.285-1.407-.794-1.915-.508-.508-1.197-.794-1.915-.794z"/>
            <path fill="#871A1D" d="M49.555 39.398h1.891c-.416.412-.762.89-1.023 1.414-.672 1.33-1.02 2.863-2.024 3.966-.845.926-2.07 1.436-3.307 1.643-.514.082-1.034.127-1.555.133v-1.139c-.001-.79.154-1.573.456-2.304.302-.73.745-1.394 1.304-1.953.56-.56 1.223-1.003 1.954-1.305.73-.302 1.513-.456 2.304-.455z"/>
            <path fill="#7B1517" d="M44.606 45.934c1.237-.207 2.462-.718 3.307-1.644 1.004-1.103 1.352-2.635 2.024-3.966.166-.328.365-.638.594-.926h.915c-.416.412-.762.89-1.023 1.414-.672 1.33-1.02 2.863-2.024 3.966-.845.926-2.07 1.437-3.307 1.644-.514.082-1.034.126-1.555.132v-.507c.358-.017.715-.055 1.07-.113z"/>
            <path fill="#F17021" d="M57.209 50.333l-1.467-2.875c-.935.18-1.886.264-2.838.249-.953.015-1.904-.069-2.839-.25l-1.472 2.885c-.024.036-.044.075-.06.117-.031.073-.047.153-.048.233 0 .883 1.978 1.606 4.419 1.606 2.44 0 4.418-.719 4.418-1.606-.003-.126-.042-.25-.113-.354v-.005z"/>
            <path fill="#891A1D" d="M51.362 50.57c0 1.197 1.541 1.517 1.541 1.517s1.542-.32 1.542-1.518v-1.087c0-1.2-1.542-1.518-1.542-1.518s-1.54.318-1.54 1.518v1.087z"/>
            <path fill="#fff" d="M52.94 48.693h-.863v.063c.05.009.094.035.127.074.032.039.05.088.05.138v.202c-.108.06-.198.147-.26.253-.062.106-.095.227-.094.35-.004.11.023.22.077.316s.134.175.23.23l.048.024v.732c0 .262-.087.353-.141.382v.062c.143-.007.278-.068.377-.172.099-.104.153-.242.153-.385v-.514h.095c.656 0 1.276-.262 1.276-.902 0-.774-.758-.857-1.083-.857l.009.004zm-.936 1.08c0-.096.023-.19.068-.276.044-.084.11-.157.188-.21v.945c-.08-.045-.148-.112-.193-.194-.045-.08-.067-.173-.063-.265zm.737.58h-.088V49.21c.339 0 .468.21.468.339 0 .03-.01.06-.032.082-.02.023-.049.036-.08.038-.022 0-.044-.007-.062-.02-.019-.013-.032-.032-.038-.054-.04.005-.076.024-.101.054-.026.03-.04.069-.039.108.002.024.008.047.019.068.01.021.025.04.043.055.018.016.039.027.061.034.023.007.046.01.07.008.04-.003.08-.014.116-.032.036-.018.068-.044.094-.075.027-.03.046-.067.058-.106.012-.038.016-.08.011-.12 0-.228-.177-.479-.588-.479v-.31h.288c.378 0 .641.31.641.758.004.11-.015.219-.057.32-.041.102-.104.194-.183.27-.08.075-.174.134-.278.17-.103.037-.214.051-.323.042v-.009z"/>
            <path fill="#F17021" d="M54.404 47.31c.166-.039.262-.083.262-.13 0-.149-.923-.267-2.06-.267-1.136 0-2.058.118-2.058.266-.002.008-.002.016 0 .023-.177-.038-.274-.08-.274-.127 0-.159 1.174-.286 2.623-.286 1.449 0 2.623.127 2.623.286 0 .097-.444.177-1.123.235h.007zm-1.5-1.096c-2.013 0-3.646.3-3.646.67 0 .37 1.633.668 3.646.668s3.653-.3 3.653-.668c0-.367-1.633-.67-3.646-.67h-.007z"/>
            <path fill="#F0EBDD" d="M54.321 47.211c.103-.016-.2-.236-.288-.295-.248-.219-.354-.083-.354-.132.016-.128-.26-.193-.303-.13-.12-.037-.245-.053-.37-.049-.023-.039-.49 0-.454.037-.086-.012-.173-.007-.256.014.03-.097-.39-.026-.242.038-.013 0-.384.049-.317.125-.01 0-.219.065-.214.064-.038 0-.075.012-.106.034-.032.022-.056.052-.07.088-.004.012-.011.023-.02.031-.01.008-.023.013-.035.014-.055 0-.09.098-.055.142-.12-.035-.164.215-.097.177h3.264c.07-.128-.048-.119-.087-.16l.004.002z"/>
            <path fill="#F9D460" d="M51.292 47.054s0-.039.034-.048c.033-.008.1.163.084.177-.008.01-.02.017-.033.02-.014.002-.027 0-.04-.006-.027-.017-.043-.123-.045-.143z"/>
            <path fill="#F7C22A" d="M53.199 46.93s.051 0 .067.016c.016.016-.19.124-.21.115-.022-.009-.046-.028-.03-.055.054-.035.113-.06.176-.076H53.2zM53.593 46.714s.05 0 .068.015c.018.016-.19.124-.212.115-.02-.008-.046-.028-.028-.055.054-.035.114-.06.177-.075h-.005zM53.892 46.716s.05 0 .067.016c.018.016-.189.124-.21.115-.021-.009-.046-.028-.03-.057.054-.034.114-.06.177-.074h-.004z"/>
            <path fill="#F7C22A" d="M53.78 46.681s.042.028.04.057c-.001.028-.224-.034-.235-.053-.01-.02-.016-.052.016-.062.062.009.122.029.177.058h.002zM53.386 47.03s.052 0 .07.015c.017.014-.192.124-.213.116-.02-.007-.046-.028-.028-.056.054-.034.114-.06.177-.074h-.006z"/>
            <path fill="#F9D460" d="M51.693 46.853s-.023-.038 0-.057c.023-.02.207.1.201.12 0 .007-.003.013-.007.019-.003.005-.008.01-.013.014-.006.004-.012.006-.018.008h-.02c-.039 0-.127-.09-.141-.104h-.002zM52.068 46.692s-.023-.038 0-.057c.023-.02.207.102.201.12 0 .007-.003.013-.006.019-.004.006-.008.01-.014.015-.005.003-.012.006-.018.007-.007.002-.014.001-.02 0-.039 0-.127-.088-.141-.104h-.002zM51.63 46.938s-.022-.038 0-.057c.02-.02.205.102.201.12-.001.007-.004.013-.008.019-.003.005-.008.01-.014.014-.005.004-.011.006-.018.008h-.02c-.039 0-.126-.09-.142-.104z"/>
            <path fill="#F7C22A" d="M51.75 46.985s-.036-.021-.027-.048c.009-.026.23 0 .235.013.004.013.003.027-.004.038-.006.012-.017.021-.03.025-.06.004-.12-.006-.176-.028h.002zM54.033 47.305s0 .04-.021.055c-.021.014-.157-.15-.145-.168.008-.012.019-.02.032-.025.013-.005.027-.005.04 0 .036.014.085.118.094.138z"/>
            <path fill="#F9D460" d="M51.412 47.206s.05-.02.074 0c.025.02-.138.168-.163.166-.024-.002-.056-.016-.05-.047.004-.032.12-.105.139-.117v-.002zM53.274 47.152s0-.041.043-.048c.042-.007.09.177.072.2-.011.008-.025.013-.04.013-.014 0-.028-.005-.04-.013-.03-.022-.035-.136-.035-.158v.006z"/>
            <path fill="#F7C22A" d="M53.036 46.624s-.042-.023-.031-.05c.01-.026.249.012.256.03.002.005.003.012.003.019 0 .007-.002.013-.006.019-.003.006-.007.011-.013.015-.005.004-.011.007-.018.008-.065-.002-.13-.016-.19-.04z"/>
            <path fill="#F6F3ED" d="M53.057 47.423s.023.039 0 .058c-.023.02-.218-.106-.212-.125.002-.014.01-.026.022-.035.011-.008.026-.011.04-.01.04 0 .132.096.148.112h.002z"/>
            <path fill="#F7C22A" d="M51.431 46.891c.01-.008.021-.013.034-.017.012-.003.024-.004.037-.002.032 0-.067.2-.094.203-.026.004-.062 0-.069-.033-.007-.034.076-.133.092-.15zM51.85 47.187s.039-.032.07-.021c.033.01-.066.2-.093.203-.026.004-.062 0-.069-.034-.007-.033.076-.13.092-.148z"/>
            <path fill="#F9D460" d="M51.639 47.037s0-.043.023-.057c.023-.014.164.157.152.177-.008.012-.02.022-.034.027-.014.004-.029.004-.042 0-.04-.015-.09-.126-.1-.146v-.001z"/>
            <path fill="#F7C22A" d="M52.718 47.167s-.048-.02-.044-.048c.004-.028.263-.016.274 0 .004.005.008.011.009.018v.02c-.003.006-.006.012-.011.016-.005.005-.011.008-.017.01-.071.005-.142-.002-.21-.02v.004zM53.176 47.243s-.025-.046 0-.066c.025-.02.209.161.205.177 0 .007-.002.013-.005.019-.004.005-.008.01-.014.014l-.018.006c-.007 0-.014-.001-.02-.004-.038-.012-.128-.13-.144-.152l-.004.006z"/>
            <path fill="#F7CF75" d="M53.146 46.837s.05.018.05.044c0 .027-.252.02-.264 0-.013-.019-.023-.045.01-.062.069-.006.137 0 .204.015v.003zM52.845 46.997s.05.018.05.044c0 .027-.252.022-.264 0-.012-.02-.023-.045.01-.061.069-.006.137-.002.204.014v.003zM54.054 47.077s.05.02.05.044c0 .025-.251.021-.265 0-.005-.004-.008-.01-.01-.016s-.002-.012-.001-.018c.001-.007.004-.012.008-.017.004-.005.01-.009.015-.01.068-.006.137-.001.203.013v.004z"/>
            <path fill="#F6F3ED" d="M53.25 46.646s0-.052.032-.059c.032-.007.078.239.064.255-.004.005-.008.01-.013.013-.006.003-.012.005-.018.005-.007 0-.013-.002-.018-.005-.006-.003-.01-.008-.013-.013-.023-.064-.035-.132-.034-.2v.004z"/>
            <path fill="#F7C22A" d="M52.76 46.577s-.019-.053 0-.076c.02-.023.177.177.177.2 0 .023-.017.056-.053.044-.035-.012-.11-.145-.122-.177l-.001.009z"/>
            <path fill="#F7CF75" d="M51.988 46.676s.05 0 .058.028c.009.029-.226.078-.242.068-.005-.004-.01-.008-.012-.013-.003-.006-.005-.012-.005-.018 0-.006.002-.011.005-.017.002-.005.007-.01.012-.013.06-.021.124-.033.189-.035h-.005z"/>
            <path fill="#E4DDD1" d="M51.391 47.413s-.03-.035-.012-.058c.017-.023.222.081.222.1 0 .007-.001.014-.004.02-.002.006-.006.011-.01.015-.006.005-.011.008-.018.01-.006.003-.012.004-.019.003-.039 0-.141-.076-.159-.09z"/>
            <path fill="#F7C22A" d="M53.57 46.722s-.03-.035-.013-.058c.018-.023.223.08.223.1 0 .007-.001.013-.004.02-.003.005-.006.01-.011.015-.005.005-.01.008-.017.01-.006.003-.013.004-.02.003-.038 0-.14-.076-.158-.09zM52.46 46.7c-.052-.05-.112-.092-.177-.125-.038 0-.046.023-.042.044.004.022.223.177.237.147.014-.03-.02-.065-.02-.065h.002zM52.2 46.792s.051 0 .06.029c.009.028-.233.072-.251.061-.018-.01-.034-.035 0-.056.063-.02.13-.032.196-.034H52.2z"/>
            <path fill="#E4DDD1" d="M51.785 47.422s-.055.016-.081 0c-.027-.016.166-.159.192-.155.027.003.062.02.053.05-.008.033-.141.096-.164.107v-.002z"/>
            <path fill="#F7C22A" d="M51.532 47.243c-.03.01-.063.01-.094 0-.03-.02.191-.176.221-.176s.073.021.062.056c-.01.036-.162.11-.189.122v-.002zM53.125 47.197c-.027.01-.032.062-.032.062.003.06.017.12.042.177.027.023.055 0 .07-.016.013-.016-.054-.244-.08-.232v.01zM52.19 46.922s.008-.04.038-.046c.03-.008.08.176.062.176-.01.008-.023.013-.036.013-.013 0-.026-.005-.036-.013-.027-.02-.029-.127-.029-.145v.015zM53.699 46.9s.02.037 0 .057c-.02.02-.207-.113-.202-.133.004-.013.013-.024.025-.031.011-.007.026-.01.039-.006.039 0 .123.097.14.113h-.002zM52.139 47.266s-.041.03-.07.021c-.028-.009.07-.198.101-.198.032 0 .059 0 .064.032.005.032-.083.143-.104.148l.008-.003z"/>
            <path fill="#F7C22A" d="M52.22 47.294s-.046.022-.072 0c-.027-.02.125-.176.15-.176.025 0 .056.012.055.044-.002.032-.112.122-.133.122v.01z"/>
            <path fill="#F9D460" d="M53.562 47.15s.029-.041.064-.04c.035.002.014.214-.01.223-.014.008-.03.01-.045.008s-.029-.01-.039-.022c-.019-.03.023-.149.03-.177v.007z"/>
            <path fill="#F7C22A" d="M52.65 46.659s-.056 0-.063-.036c-.007-.035.255-.081.274-.065.02.016.035.042 0 .067-.07.023-.142.035-.216.034h.006z"/>
            <path fill="#fff" d="M52.668 46.85s-.05-.011-.07.008c-.022.02.166.138.188.133.023-.006.052-.025.04-.053-.013-.029-.137-.08-.158-.089z"/>
            <path fill="#F7C22A" d="M52.448 47.266s0-.034.025-.039c.025-.005.124.157.111.168-.01.008-.021.012-.033.012-.013 0-.024-.004-.034-.012-.032-.038-.055-.083-.069-.13zM51.7 46.828s.014-.039-.013-.055c-.026-.016-.176.138-.176.156.006.012.016.022.028.028.013.005.027.006.04.002.038-.01.105-.112.117-.131h.004z"/>
            <path fill="#fff" d="M52.2 46.67s0-.046.02-.06c.02-.014.114.177.104.202-.01.025-.032.04-.058.023-.027-.018-.06-.142-.066-.165z"/>
            <path fill="#F7C22A" d="M52.783 46.757s0-.044.032-.05c.032-.005.102.214.088.227-.004.005-.01.009-.016.011-.006.003-.012.004-.019.004-.007 0-.013-.001-.02-.004-.005-.002-.01-.007-.015-.011-.028-.056-.044-.116-.05-.177zM52.613 46.685s0-.044.032-.05c.032-.005.103.214.088.228-.004.005-.01.01-.016.012s-.012.004-.019.004c-.007 0-.013-.002-.02-.004l-.015-.012c-.028-.055-.044-.115-.05-.176v-.002zM52.656 46.573s.021-.047 0-.069c-.021-.02-.176.158-.176.177 0 .02.014.05.047.039.034-.01.115-.129.13-.15v.003zM53.717 46.766s-.05-.021-.069 0c-.02.021.159.177.177.177.017 0 .051-.016.039-.05-.013-.033-.131-.113-.152-.127h.005z"/>
            <path fill="#fff" d="M53.553 46.688s.02-.044 0-.07c-.021-.027-.177.107-.177.13 0 .023.012.059.046.057.034-.002.111-.1.125-.117h.006z"/>
            <path fill="#F7CF75" d="M52.11 46.65s0-.043-.034-.052c-.034-.009-.122.177-.108.191.01.01.023.018.037.02.014.002.029 0 .041-.008.034-.02.06-.132.064-.152z"/>
            <path fill="#fff" d="M53.527 47.158s.043-.026.034-.053c-.009-.026-.253.028-.26.048-.002.006-.003.012-.003.019 0 .006.002.012.005.018.003.005.007.01.013.014.005.004.01.006.017.007.067-.007.133-.025.194-.053z"/>
            <path fill="#F7C22A" d="M52.969 47.204s-.053.014-.059.04c-.005.027.246.041.262.025.016-.016.032-.044 0-.063-.068-.01-.136-.01-.203 0v-.002z"/>
            <path fill="#F9D460" d="M52.025 47.218s-.055-.012-.078.011.177.152.209.145c.032-.007.056-.027.042-.058-.014-.032-.148-.089-.177-.098h.004z"/>
            <path fill="#F9D460" d="M52.004 47.019s-.016-.048-.045-.05c-.028-.002-.042.239-.024.251.004.005.01.008.016.01.007.003.014.003.02.002.007 0 .013-.003.019-.006.005-.004.01-.009.014-.015.012-.063.012-.129 0-.192z"/>
            <path fill="#F7CF75" d="M52.089 46.936s-.016-.046-.046-.048c-.03-.002-.042.237-.023.251.005.005.01.008.017.01.006.003.013.003.02.002.006 0 .013-.003.018-.006.006-.004.01-.009.014-.015.011-.064.011-.13 0-.194z"/>
            <path fill="#F6F3ED" d="M51.785 46.997s-.053 0-.062.027c-.009.026.245.097.263.086.006-.003.01-.007.014-.013.003-.005.004-.011.004-.017 0-.007-.001-.013-.004-.018-.004-.006-.008-.01-.014-.013-.066-.028-.135-.045-.207-.052h.006z"/>
            <path fill="#F7C22A" d="M51.715 47.266s.047-.032.045-.062c-.001-.03-.258.032-.268.055-.01.023-.02.057.016.067.071-.008.141-.029.206-.06z"/>
            <path fill="#fff" d="M53.305 46.9s-.05-.021-.046-.048c.004-.026.263-.016.274 0l.009.018c.001.007 0 .014-.001.02-.002.007-.005.013-.01.017-.005.005-.011.009-.017.01-.07.005-.141-.001-.21-.019v.002z"/>
            <path fill="#F7CF75" d="M53.729 47.132s-.051.02-.078 0c-.026-.02.145-.177.177-.177s.06.018.053.05c-.007.031-.126.11-.147.123l-.005.004z"/>
            <path fill="#fff" d="M52.91 46.683s0 .037.03.047c.03.01.111-.148.097-.164-.008-.01-.02-.017-.032-.02-.013-.003-.026-.002-.038.002-.03.016-.053.117-.057.135z"/>
            <path fill="#F7C22A" d="M54.136 47.015s0 .046-.025.062-.177-.177-.163-.187c.009-.014.021-.024.037-.03.015-.005.031-.004.046.001.04.016.096.133.105.154zM51.57 47.14s0 .046-.026.062c-.024.016-.176-.168-.162-.187.008-.014.02-.024.035-.029.015-.005.031-.005.046 0 .04.017.096.135.106.154z"/>
            <path fill="#fff" d="M52.54 46.607s.056.013.061.043c.005.03-.272.06-.29.044-.017-.016-.03-.048 0-.07.074-.018.15-.024.225-.017h.003z"/>
            <path fill="#F7C22A" d="M51.286 47.09s.053-.02.082 0c.028.019-.154.189-.177.185-.023-.003-.065-.018-.058-.051.007-.034.134-.117.157-.133l-.004-.002z"/>
            <path fill="#fff" d="M53.33 47.056s-.045-.027-.035-.057c.011-.03.282.012.289.033l.003.022c0 .008-.003.015-.007.021-.003.007-.008.012-.015.017-.006.004-.013.007-.02.008-.074-.002-.146-.017-.214-.044z"/>
            <path fill="#F7CF75" d="M52.801 46.7s.05 0 .052.041c.001.041-.248.108-.262.09-.01-.011-.017-.026-.017-.042 0-.016.006-.03.017-.042.064-.029.133-.045.203-.046h.007zM53.283 46.736s.05 0 .052.042c.001.042-.248.106-.262.088-.005-.005-.01-.012-.013-.019-.003-.007-.004-.014-.004-.022 0-.008.001-.016.004-.023.003-.007.008-.013.013-.019.063-.03.132-.046.202-.047h.008zM53.742 46.959s.049 0 .05.04c.002.041-.247.108-.26.09-.006-.005-.01-.012-.012-.02s-.003-.016-.002-.024c0-.007.003-.015.007-.022.004-.007.009-.013.015-.018.063-.029.132-.044.202-.046z"/>
            <path fill="#F6F3ED" d="M51.279 47.243c.022-.018.05-.026.08-.023.036.013-.077.224-.105.228-.028.004-.07 0-.078-.037-.007-.037.085-.147.103-.168z"/>
            <path fill="#fff" d="M53.968 46.987s-.013.048-.05.057c-.037.009-.106-.218-.087-.235.014-.01.031-.016.048-.016s.034.005.048.016c.034.026.039.16.04.176v.002z"/>
            <path fill="#F6F3ED" d="M53.376 47.37s.055.021.055.051c0 .03-.281.022-.295 0-.005-.005-.009-.01-.011-.017-.002-.007-.002-.014-.001-.021 0-.007.004-.014.008-.02.004-.005.01-.01.016-.012.076-.007.153-.002.228.016v.003zM54.366 47.344s.057.021.057.051c0 .03-.281.022-.297 0-.005-.005-.01-.01-.012-.018-.002-.007-.002-.014 0-.02 0-.008.004-.015.008-.02.005-.006.011-.01.018-.012.076-.007.152-.001.226.016v.003z"/>
            <path fill="#F7C22A" d="M53.763 47.226s.063 0 .083.019c.02.02-.235.152-.26.143-.025-.009-.058-.035-.037-.069.02-.033.176-.085.214-.093z"/>
            <path fill="#fff" d="M54.33 47.211s.061 0 .083.02c.02.019-.236.153-.262.143-.027-.01-.057-.036-.035-.07.065-.042.137-.074.213-.093z"/>
            <path fill="#F7C22A" d="M54.33 47.211s.061 0 .083.02c.02.019-.236.153-.262.143-.027-.01-.057-.036-.035-.07.065-.042.137-.074.213-.093zM52.827 47.277s.057 0 .066.033c.008.034-.253.087-.27.073-.007-.004-.012-.008-.015-.014-.004-.006-.005-.012-.005-.019 0-.007.001-.013.005-.02.003-.005.008-.01.014-.013.069-.023.14-.037.212-.04h-.007z"/>
            <path fill="#F7C22A" d="M54.16 47.126s-.032-.038-.014-.065c.018-.026.25.09.25.111 0 .008-.002.015-.005.022-.002.007-.007.013-.012.018-.005.005-.012.01-.019.012-.007.003-.014.004-.021.003-.065-.023-.125-.057-.177-.1h-.002zM52.595 47.19c-.058-.056-.124-.104-.195-.142-.044 0-.05.029-.05.052.003.023.252.189.268.164.016-.025-.023-.074-.023-.074zM53.064 47.332c-.056-.057-.122-.105-.194-.141-.044 0-.051.026-.05.051.002.025.252.19.267.163.016-.027-.023-.073-.023-.073z"/>
            <path fill="#E4DDD1" d="M53.957 47.409s.023.042 0 .063c-.023.022-.23-.127-.224-.148.004-.015.013-.027.027-.035.013-.007.029-.01.043-.006.044 0 .138.108.156.126h-.002z"/>
            <path fill="#F7C22A" d="M52.94 47.102s-.045.034-.08.025c-.033-.009.098-.221.125-.225.026-.003.065 0 .07.036.006.035-.091.159-.114.164z"/>
            <path fill="#F9D460" d="M53.199 46.736s-.064 0-.073-.04c-.009-.038.287-.091.308-.075.02.016.04.048 0 .076-.076.025-.155.038-.235.039zM51.493 47.226s-.044-.018-.064.01c-.02.029.145.21.166.202.015-.006.026-.016.033-.03.007-.014.009-.03.005-.044-.011-.043-.12-.124-.14-.138z"/>
            <path fill="#F7C22A" d="M54.027 47.227s-.058 0-.067.035c-.009.036.258.084.278.068.02-.016.04-.045.01-.07-.07-.023-.146-.035-.22-.033z"/>
            <path fill="#fff" d="M52.315 47.148s0-.053.023-.067c.023-.015.128.205.117.226-.002.006-.006.012-.011.017-.005.004-.01.008-.017.01-.006.003-.013.004-.02.003-.007 0-.013-.002-.02-.005-.033-.055-.057-.115-.072-.177v-.007z"/>
            <path fill="#F7C22A" d="M52.462 46.826s0-.05.035-.054c.036-.004.115.238.1.252-.006.006-.012.01-.019.014-.007.003-.014.004-.022.004-.007 0-.014-.001-.021-.004-.007-.003-.013-.008-.018-.014-.03-.062-.05-.129-.055-.198zM52.745 47.03s.023-.053 0-.078-.207.177-.205.201c.002.025.018.057.055.044.037-.012.129-.145.145-.176l.005.009z"/>
            <path fill="#F7CF75" d="M52.969 47.284s.025-.053 0-.076-.207.177-.203.202c.003.024.016.056.053.044.037-.013.129-.145.145-.177l.005.007zM52.976 46.572s.023-.053 0-.076-.205.176-.203.201c.001.025.017.057.054.044.037-.012.13-.145.145-.176l.004.007z"/>
            <path fill="#fff" d="M52.492 46.602s-.046-.039-.073-.026c-.026.012.112.247.137.25.024.004.058 0 .058-.038-.031-.065-.072-.125-.122-.177v-.009z"/>
            <path fill="#F7C22A" d="M53.501 47.33s-.046-.03-.078-.018c-.032.013.09.216.119.218.028.001.065 0 .069-.043.003-.042-.092-.14-.11-.157z"/>
            <path fill="#F6F3ED" d="M52.203 47.01s0-.046-.037-.057c-.037-.01-.138.197-.12.214.01.012.025.02.04.023.017.002.033 0 .047-.009.037-.02.067-.148.07-.176v.005z"/>
            <path fill="#fff" d="M51.474 47.157s0 .05.039.06c.038.01.144-.207.127-.225-.012-.012-.027-.02-.044-.023-.016-.002-.033 0-.048.01-.039.02-.07.155-.074.176v.002zM52.396 46.897s-.062-.012-.087.012c-.024.025.206.177.232.163.027-.014.064-.03.05-.065-.015-.036-.177-.098-.195-.11z"/>
            <path fill="#F7C22A" d="M52.338 47.266s-.017-.053-.05-.055c-.031-.002-.047.267-.028.281.005.006.011.01.018.014.006.003.014.005.021.005.008 0 .015-.002.022-.005.007-.003.013-.008.017-.014.014-.072.014-.145 0-.217v-.01z"/>
            <path fill="#fff" d="M54.038 47.11s-.053-.02-.052-.053c.002-.031.296-.016.31 0 .004.006.007.013.009.02.001.008 0 .016-.002.023-.002.007-.006.013-.011.019-.006.005-.012.009-.02.01-.078.006-.158-.002-.234-.022v.003zM53.832 47.315s-.057.023-.087 0c-.03-.023.163-.2.191-.196.029.004.067.02.06.057-.007.037-.141.122-.164.136v.003z"/>
            <path fill="#F7CF75" d="M53.148 47.173s0 .042.033.054c.034.013.124-.168.11-.176-.01-.012-.022-.02-.037-.024-.014-.004-.03-.002-.043.004-.033.016-.06.13-.063.149v-.007zM51.794 46.868s0 .043.034.055c.033.013.123-.168.107-.176-.009-.012-.022-.02-.036-.024-.014-.003-.03-.002-.043.004-.032.016-.059.13-.062.149v-.008zM53.243 46.924s0 .042.034.053c.033.01.123-.166.11-.177-.01-.011-.023-.019-.037-.022-.015-.004-.03-.003-.043.003-.034.017-.059.129-.064.15v-.007zM53.632 46.948c0 .011.005.022.01.032.007.01.015.017.025.023.03.012.124-.168.108-.177-.01-.011-.022-.019-.037-.023-.014-.003-.029-.002-.042.004-.034.015-.059.128-.064.148v-.007zM53.643 47.243s0 .043.033.055c.034.012.124-.177.108-.177-.009-.012-.022-.02-.036-.024-.015-.003-.03-.002-.044.005-.031.016-.058.129-.061.148v-.007z"/>
            <path fill="#F7C22A" d="M53.01 46.67c.024 0 .217.097.192.113-.024.008-.05.008-.076 0-.023 0-.153-.053-.164-.077-.01-.025.023-.037.048-.041v.005zM53.633 46.989s.034-.032.03-.06c-.003-.029-.19.052-.198.074-.007.02-.009.053.02.058.028.005.129-.06.148-.072zM52.435 46.574s.034-.032.03-.06c-.004-.029-.19.052-.198.074-.009.02 0 .053.02.058.019.005.13-.06.148-.072zM52.862 47.227s.034-.031.03-.058c-.003-.026-.189.051-.196.073-.007.02-.01.053.018.06.028.007.13-.062.148-.075z"/>
            <path fill="#F9D460" d="M53.376 46.72s0-.052.032-.059c.032-.007.078.239.065.256-.003.006-.008.01-.014.013-.005.003-.011.004-.018.004-.006 0-.012-.001-.018-.004-.005-.003-.01-.007-.013-.013-.022-.065-.033-.133-.034-.2v.003z"/>
            <path fill="#F7C22A" d="M53.929 47.138c.008-.023.054-.029.054-.029.06-.002.12.009.177.03.023.021 0 .046-.012.058-.013.013-.221-.037-.21-.06h-.01zM52.414 46.787s0-.046-.013-.06c-.012-.014-.143.177-.134.201.002.006.005.011.009.016.004.004.01.008.015.01.006.002.012.002.018.002.006-.001.011-.003.016-.006.038-.05.068-.104.089-.163zM51.933 47.066s0-.046-.012-.06c-.013-.014-.142.177-.135.202.002.006.005.011.009.016.004.005.01.008.015.01.006.002.012.003.018.002.006 0 .012-.003.017-.007.038-.049.068-.104.088-.163zM52.426 47.002s.026-.038.012-.06c-.014-.02-.205.11-.205.13 0 .019.011.047.045.044.033-.004.13-.098.148-.114z"/>
            <path fill="#fff" d="M52.794 47.158s-.017-.05-.046-.053c-.028-.003-.037.237-.02.251.018.014.05.028.07 0 .011-.064.011-.13 0-.194l-.004-.004z"/>
            <path fill="#F7C22A" d="M53.847 47.04s0-.046-.024-.059c-.025-.012-.076.191-.066.209.01.018.034.037.055.018.021-.054.033-.11.035-.168zM53.059 47.18s.012.046.037.054c.025.01.044-.19.03-.206-.014-.016-.042-.034-.062-.013-.02.022 0 .143 0 .165h-.005z"/>
            <path fill="#F9D460" d="M51.838 46.955c.003.02.01.038.021.055.018.026.143-.16.138-.186-.005-.026-.021-.026-.051-.02-.03.008-.097.128-.108.15z"/>
            <path fill="#fff" d="M53.22 46.977s.044.022.072 0c.029-.023-.107-.191-.132-.19-.025.002-.06.014-.058.048.001.034.1.12.118.134v.008zM52.25 46.745s.044.023.072 0c.028-.023-.108-.19-.133-.19-.025.003-.06.015-.058.049.002.033.1.118.118.134v.007z"/>
            <path fill="#F3801F" d="M52.845 46.814c-.012-.002-.022-.008-.029-.018v-.012c.002-.002.004-.003.007-.003l.006.003c.004.005.01.008.016.009.01 0 .02-.002.03-.005.009-.004.017-.01.025-.017.017-.016.039-.027.063-.03.023-.004.047 0 .069.01.002 0 .003.003.003.005 0 .003-.001.005-.003.007h-.01c-.02-.009-.04-.011-.06-.008-.02.003-.039.012-.054.025-.017.016-.038.026-.062.029l-.001.005zM53.906 47.109v-.01c.002-.02-.002-.04-.012-.059-.01-.018-.024-.033-.043-.043-.011-.005-.021-.013-.03-.023-.008-.01-.014-.021-.017-.033-.003-.006-.004-.011-.004-.017 0-.006.001-.012.004-.017h.012c.012 0 0 0 0 .013-.003.006-.003.013 0 .019.007.02.02.035.039.044.02.011.038.028.05.049.01.02.015.044.014.068V47.109h-.013zM52.605 47.305c-.01 0-.021-.004-.03-.01l-.002-.006c0-.003 0-.005.002-.007l.006-.001.007.001s.023.015.031 0l.011-.019c0-.014.01-.028.023-.032l.011-.002c.004 0 .008 0 .012.002.018.01.026 0 .026 0l.007-.002c.002 0 .004 0 .006.002s.002.004.002.006c0 .003 0 .005-.002.007-.007.006-.016.01-.026.01-.01 0-.019-.004-.025-.01-.006.006-.01.014-.013.023-.003.008-.007.015-.012.022-.003.005-.007.008-.01.01l-.015.003-.009.003zM51.482 47.012V47c.006-.018.018-.034.034-.044.009-.004.019-.006.028-.006.01 0 .02.002.029.006.013.005.027.005.04 0 .013-.005.023-.016.029-.029v-.01l.006-.002c.002 0 .004 0 .006.002v.012c-.009.016-.023.028-.039.034-.017.006-.035.006-.051 0-.01-.003-.02-.004-.029-.002-.009.003-.017.007-.024.014-.007.007-.012.016-.014.025l-.005.001-.004-.001-.006.01z"/>
            <path fill="#FFF8C1" d="M52.81 43.896c-.024-.025-.049-.049-.075-.071l-.012-.01c.004.01.01.02.016.03l.032.058c.075.135.115.287.114.441-.01.21-.098.41-.247.559-.097.098-.18.21-.246.33-.067.138-.09.293-.069.444.024.14.085.27.177.377.03.035.06.07.094.102l.037.04.065.07.041.042c-.013-.036-.028-.07-.046-.104-.08-.149-.12-.316-.117-.485.014-.204.098-.398.239-.547.111-.12.196-.262.247-.417.042-.151.041-.31-.003-.461-.044-.15-.129-.285-.246-.39l-.002-.008z"/>
            <path fill="#FFF8C1" d="M53.14 45.91c-.059-.068-.102-.15-.124-.238-.022-.088-.023-.18-.002-.269.01-.053.026-.104.04-.156l-.033.034c-.03.027-.056.057-.08.088-.048.056-.084.122-.105.192-.021.07-.028.145-.018.218.018.116.066.226.14.318.075.103.118.226.121.354 0 .1-.018.2-.053.293.012-.01.023-.021.034-.033l.02-.02c.012-.009.023-.019.033-.03.068-.059.12-.134.15-.219.03-.091.034-.188.012-.282-.021-.093-.068-.179-.134-.248v-.002z"/>
            <path fill="#E2E2E2" d="M41.534 56.059l.72-.098.72-.08 1.445-.151c.963-.083 1.928-.156 2.894-.209.967-.053 1.932-.088 2.899-.122.967-.033 1.926-.026 2.898-.04.972-.014 1.934.014 2.9.039.967.024 1.934.058 2.899.116 1.932.105 3.862.27 5.78.545v.042c-1.925-.14-3.855-.212-5.785-.265-1.93-.053-3.86-.072-5.79-.069-1.93.004-3.86.023-5.79.078-1.93.055-3.858.13-5.785.256l-.005-.042zM42.912 65.43c.435-.067.87-.122 1.308-.167l1.311-.14c.877-.073 1.754-.136 2.63-.19 1.753-.112 3.512-.149 5.269-.158 1.756-.008 3.515.043 5.268.15.884.055 1.755.115 2.63.19l1.311.141c.437.048.873.104 1.308.177v.035c-1.748-.138-3.501-.212-5.253-.265-1.75-.053-3.508-.072-5.26-.07-1.754.001-3.507.024-5.26.077-1.754.053-3.512.13-5.262.255v-.036z" opacity=".5"/>
            <g fill="#E2E2E2" opacity=".6">
                <path d="M46.129 41.063c.558-.066 1.115-.12 1.675-.166l1.676-.14c1.118-.072 2.237-.136 3.358-.193.56-.028 1.12-.055 1.68-.065l1.681-.04c1.12-.026 2.243-.04 3.358-.05 1.115-.01 2.243.024 3.358.047 1.115.023 2.241.04 3.358.103 1.117.064 2.24.115 3.358.189l1.677.141c.559.046 1.117.105 1.674.177v.035c-2.234-.137-4.473-.212-6.716-.265-2.243-.053-4.479-.072-6.716-.07-2.237.001-4.478.024-6.716.077-2.237.053-4.477.135-6.716.258l.01-.038z" opacity=".6"/>
                <path d="M41.534 56.06l.72-.098.72-.081 1.445-.15c.963-.084 1.928-.156 2.894-.209.967-.053 1.932-.088 2.899-.122.967-.034 1.926-.026 2.898-.04.972-.015 1.934.014 2.9.038.967.025 1.934.059 2.899.117 1.932.104 3.862.27 5.78.544v.043c-1.925-.14-3.855-.212-5.785-.265-1.93-.054-3.86-.073-5.79-.07-1.93.004-3.86.024-5.79.078-1.93.055-3.858.131-5.785.257l-.005-.043zM42.912 65.43c.435-.066.87-.121 1.308-.166l1.311-.14c.877-.073 1.754-.136 2.63-.19 1.753-.112 3.512-.15 5.269-.158 1.756-.009 3.515.042 5.268.15.884.055 1.755.115 2.63.19l1.311.14c.437.048.873.105 1.308.177v.036c-1.748-.138-3.501-.212-5.253-.265-1.75-.053-3.508-.073-5.26-.071-1.754.002-3.507.025-5.26.078-1.754.053-3.512.13-5.262.254v-.035z" opacity=".5"/>
                <path d="M46.129 41.063c.558-.066 1.115-.12 1.675-.166l1.676-.14c1.118-.072 2.237-.136 3.358-.193.56-.028 1.12-.055 1.68-.065l1.681-.04c1.12-.026 2.243-.04 3.358-.05 1.115-.01 2.243.024 3.358.047 1.115.023 2.241.04 3.358.103 1.117.064 2.24.115 3.358.189l1.677.141c.559.046 1.117.105 1.674.177v.035c-2.234-.137-4.473-.212-6.716-.265-2.243-.053-4.479-.072-6.716-.07-2.237.001-4.478.024-6.716.077-2.237.053-4.477.135-6.716.258l.01-.038z" opacity=".6"/>
            </g>
            <path fill="#fff" fill-rule="evenodd" d="M39.03 70.338v-.028c0-.593 1.041-1.074 2.326-1.074 1.02 0 1.888.303 2.202.725.1-.006.2-.009.304-.009 1.285 0 2.327.481 2.327 1.074 0 .322-.306.61-.792.807.273.176.434.392.434.625 0 .593-1.042 1.074-2.327 1.074-.54 0-1.037-.085-1.432-.227-.395.142-.892.227-1.432.227-1.285 0-2.327-.481-2.327-1.074 0-.055.009-.109.026-.162-.66-.189-1.1-.527-1.1-.912 0-.508.764-.934 1.791-1.046z" clip-rule="evenodd"/>
            <path fill="#fff" fill-rule="evenodd" d="M36.522 68.645v.018c0 .356-.624.644-1.395.644-.613 0-1.133-.182-1.321-.435-.06.004-.121.006-.183.006-.771 0-1.396-.289-1.396-.645 0-.193.184-.366.475-.484-.164-.106-.26-.235-.26-.375 0-.356.625-.644 1.396-.644.324 0 .622.05.86.136.236-.085.534-.136.858-.136.771 0 1.397.288 1.397.644 0 .033-.006.065-.016.097.396.113.66.316.66.547 0 .305-.459.56-1.075.627z" clip-rule="evenodd" opacity=".8"/>
        </g>
    </g>
</svg>
