<svg xmlns="http://www.w3.org/2000/svg" width="28" height="28" fill="none" viewBox="0 0 28 28">
    <path stroke="#666666" stroke-width="2" d="M23.254 5.817h0c.551.579.99 1.268 1.291 2.032.3.763.456 1.583.455 2.412 0 .829-.157 1.648-.458 2.41-.302.763-.742 1.452-1.294 2.03l-.002.002-.24.253h0l-6.198 6.534h0L15.3 23.079l-.566.597h-.001c-.205.215-.471.325-.737.325-.265 0-.53-.11-.735-.324l-.002-.001-.595-.63-.01-.01-.015-.018-.016-.018-1.44-1.516h0L4.98 14.946h0l-.24-.253s0 0 0 0 0 0 0 0C3.63 13.523 2.998 11.926 3 10.25c.001-1.675.634-3.272 1.745-4.44C5.855 4.644 7.347 3.999 8.891 4c1.544.001 3.036.648 4.143 1.816h0l.24.253.726.764.725-.764.24-.252s0 0 0 0c1.11-1.167 2.6-1.812 4.145-1.812 1.543 0 3.035.645 4.144 1.812z"/>
</svg>
