<svg xmlns="http://www.w3.org/2000/svg" width="98" height="80" fill="none" viewBox="0 0 98 80">
    <path fill="#fff" fill-opacity=".86" d="M59.747 70.892c-18.133 3.639-33.992-.494-42.72-7.771-3.627-3.023-7.254-7.649-8.606-13.014-4.856-19.49 9.466-35.65 20.53-29.544 18.134 9.93 20.838 2.837 35.59-12.212 11.188-11.348 46.594 4.564 28.153 37.993-7.376 13.63-19.977 21.957-32.947 24.548z"/>
    <path fill="#FFBE9D" d="M43.397 25.934c.43 0 .799.061 1.229.185 2.459.678 3.934 3.268 3.258 5.736l-.184.678-.185.617c-.123.431-.246.863-.369 1.233-.246.802-.553 1.666-.86 2.467-.308.802-.615 1.604-.984 2.468-.369.801-.737 1.603-1.168 2.405-.43.802-.86 1.604-1.352 2.405-.492.802-1.045 1.604-1.66 2.406-.614.802-1.29 1.603-2.151 2.405-.43.37-.922.802-1.414 1.172-.246.185-.553.37-.86.555l-.123.062c-.062 0-.062.061-.123.061l-.308.124c-.184.123-.368.185-.614.247-.8.308-1.599.493-2.398.555-.737.061-1.475.061-2.151 0-1.352-.124-2.459-.494-3.442-.864-1.045-.37-1.906-.863-2.766-1.357-.86-.493-1.66-.987-2.397-1.542-1.476-1.048-2.89-2.22-4.119-3.392-.615-.617-1.29-1.233-1.844-1.85l-.922-.925-.43-.494-.492-.555c-1.168-1.295-1.23-3.33-.123-4.687 1.29-1.542 3.565-1.789 5.102-.556l.184.124.43.308.43.37c.308.247.615.494.861.679.615.493 1.23.925 1.845 1.357 1.229.863 2.458 1.665 3.688 2.405.614.37 1.229.678 1.844.925.614.247 1.168.494 1.66.617.491.123.983.247 1.29.185.123 0 .246 0 .308-.062.06 0 0-.061 0-.061h-.062l11.372-16.406z"/>
    <path fill="#EAAD91" d="M31.902 42.771c.061-.061.123-.061.184-.123.123-.123.246-.247.43-.37.308-.309.677-.74 1.046-1.234.369-.493.737-1.048 1.045-1.665.368-.617.676-1.233.983-1.85.307-.617.615-1.296.922-1.974.307-.678.615-1.357.86-2.035.185-.494.431-.987.615-1.542.062-.185.123-.37.246-.617.123-.37.246-.678.37-1.049l.183-.493.185-.493.061-.185c.37-.987.984-1.789 1.783-2.344L31.902 42.77z"/>
    <path fill="#FFBE9D" d="M12.232 33.767s-3.442-1.296-5.41-.617c-1.966.617-1.597 2.467-1.597 2.467s6.393-.247 7.007-1.85z"/>
    <path fill="#F48020" d="M0 52.022c7.253.74 14.507.801 21.76.185-.123-.37-.308-.925-.43-1.604-.062-.185-.123-.37-.123-.555-.8-3.146-2.029-8.265-2.767-11.657-.245-1.172-.491-2.097-.614-2.714l-13.4-.185c-.062.247-.123.555-.185.864C3.504 39.316 1.844 45.977.8 49.8l-.184.555c-.308.74-.492 1.296-.615 1.666z"/>
    <path fill="#DC731D" d="M17.14 37.523l2.687 12.606-.24.052-2.688-12.606.24-.052zM4.973 36.327l.239.056L2.03 50.015l-.24-.056 3.182-13.632z"/>
    <path fill="#DEDEDE" d="M7.5 43.698c0 1.974 1.536 3.578 3.564 3.64 1.967 0 3.565-1.543 3.627-3.578 0-1.974-1.537-3.577-3.565-3.639-1.967 0-3.565 1.604-3.627 3.577z"/>
    <path fill="#F26F21" d="M13.462 44.506l-.824-1.623c-.375.086-.95.14-1.593.14-.642 0-1.218-.055-1.593-.14l-.826 1.628c-.013.021-.025.043-.034.066-.018.042-.027.087-.027.133 0 .501 1.11.907 2.48.907 1.37 0 2.48-.406 2.48-.907 0-.073-.023-.144-.063-.205v.001z"/>
    <path fill="#891A1C" d="M10.18 44.64c0 .676.864.857.864.857s.864-.18.864-.858v-.614c0-.677-.864-.857-.864-.857s-.864.18-.864.857v.614z"/>
    <path fill="#fff" d="M10.953 44.515c-.008 0-.025 0-.05-.003v-.647c.19 0 .264.119.264.192 0 .017-.006.034-.018.047-.012.013-.028.02-.045.021-.013 0-.026-.004-.036-.012-.01-.008-.018-.019-.021-.031-.022.003-.042.014-.057.03-.014.018-.022.04-.021.062 0 .013.003.026.009.039.006.012.014.023.024.032.01.008.022.015.035.018.013.004.027.005.04.003.104 0 .157-.094.157-.187 0-.13-.105-.27-.33-.27v-.174h.161c.212 0 .36.176.36.428 0 .207-.13.453-.472.453v-.001zm-.414-.327c0-.054.013-.107.038-.155s.062-.09.106-.12v.535c-.046-.026-.083-.063-.109-.11-.025-.045-.037-.098-.035-.15zm.526-.61h-.485v.036c.029.004.055.018.074.04.019.022.03.05.03.079v.115c-.061.033-.112.083-.147.142-.035.06-.054.129-.053.198-.002.062.012.124.043.178.03.054.075.1.13.13l.027.015v.414c0 .148-.05.202-.08.217v.035s.3-.016.3-.314v-.291l.053.002c.368 0 .716-.148.716-.51 0-.436-.425-.483-.607-.483v-.003z"/>
    <path fill="#F26F21" d="M11.046 42.176c-1.13 0-2.047.169-2.047.377 0 .209.916.378 2.046.378s2.047-.17 2.047-.378-.916-.377-2.046-.377zm.841.618c.093-.022.146-.047.146-.074 0-.083-.518-.15-1.155-.15s-1.155.067-1.155.15c0 .005.001.01.004.013-.099-.021-.154-.046-.154-.072 0-.09.659-.162 1.472-.162s1.472.073 1.472.162c0 .055-.249.103-.63.133z"/>
    <path fill="#F1EBDF" d="M11.842 42.742c.058-.01-.112-.133-.162-.166-.139-.124-.203-.047-.2-.075.01-.072-.145-.109-.172-.073-.01-.007-.197-.043-.207-.028-.013-.022-.275-.002-.255.021-.048-.007-.097-.004-.144.008.017-.055-.219-.016-.136.02-.006.003-.216.029-.177.072-.007 0-.124.037-.12.036-.021 0-.041.008-.059.02-.017.012-.03.029-.037.048-.002.007-.006.014-.012.018-.005.005-.012.008-.02.009-.03 0-.05.054-.03.08-.036-.011-.06.023-.068.054.253.024.591.038.97.038.328 0 .637-.01.888-.029 0-.034-.043-.035-.061-.053h.002z"/>
    <path fill="#FAD560" d="M10.14 42.653s.004-.023.02-.028c.017-.005.056.092.048.1-.005.006-.012.01-.02.01-.007.002-.014 0-.02-.003-.017-.01-.025-.07-.027-.08z"/>
    <path fill="#FFCA05" d="M11.213 42.587s.03-.004.038.008c.01.013-.106.07-.117.066-.012-.004-.027-.016-.017-.032.03-.02.062-.034.096-.043zM11.432 42.462s.028-.004.038.008c.01.013-.106.07-.118.066-.012-.005-.026-.016-.016-.032.03-.02.062-.034.096-.043zM11.6 42.466s.028-.003.037.008c.01.012-.106.07-.118.066-.012-.005-.026-.016-.016-.032.03-.02.062-.035.096-.043v.001z"/>
    <path fill="#FFCA05" d="M11.538 42.443s.024.016.023.031c-.001.016-.127-.018-.132-.03-.006-.01-.01-.029.008-.034.035.005.07.016.1.033zM11.317 42.642s.028-.004.037.008c.01.012-.106.07-.118.066-.011-.005-.026-.016-.016-.032.03-.02.062-.035.097-.043z"/>
    <path fill="#FAD560" d="M10.366 42.537s-.013-.02 0-.032c.012-.011.115.058.113.068 0 .004-.002.008-.004.01-.002.004-.005.007-.008.009l-.01.004h-.011c-.022-.002-.071-.05-.08-.06zM10.576 42.447s-.012-.02 0-.032c.013-.011.116.058.114.069-.002.007-.006.014-.012.018-.007.004-.014.006-.022.005-.021-.002-.07-.051-.079-.06zM10.333 42.588s-.012-.02 0-.032c.012-.011.115.058.113.068-.001.007-.006.014-.012.018-.006.005-.014.006-.021.005-.022-.002-.071-.05-.08-.06z"/>
    <path fill="#FFCA05" d="M10.397 42.617s-.02-.013-.015-.028c.005-.015.13-.002.132.008.002.007.001.015-.003.022-.003.006-.01.011-.016.013-.034.002-.067-.003-.098-.015zM11.679 42.797v.014h-.039c-.026-.025-.06-.072-.055-.08.004-.007.011-.012.02-.015.007-.002.016-.002.024.002.02.007.047.067.052.077l-.002.002z"/>
    <path fill="#FAD560" d="M10.208 42.739s.027-.01.043 0c.017.01-.019.036-.045.061l-.068-.005c.022-.02.046-.04.072-.055l-.002-.001zM11.254 42.707s.005-.024.023-.027c.019-.004.051.104.041.112-.006.005-.013.008-.021.009-.008 0-.016-.002-.022-.006-.017-.012-.02-.077-.02-.087l-.001-.001z"/>
    <path fill="#FFCA05" d="M11.12 42.413s-.023-.014-.018-.029c.005-.015.14.006.144.017l.002.011c0 .004-.002.007-.004.01-.002.004-.004.007-.007.009l-.01.004c-.037-.001-.073-.009-.107-.022z"/>
    <path fill="#F7F4EE" d="M11.014 42.825c.001-.007.006-.014.012-.019.007-.004.015-.006.023-.005.016.005.03.013.043.024h-.078z"/>
    <path fill="#FFCA05" d="M10.216 42.559c.006-.005.012-.008.02-.01.006-.002.013-.003.02-.002.018.006-.038.113-.052.115-.014.001-.036 0-.04-.019-.003-.019.044-.075.052-.084zM10.454 42.73l.02-.01c.006-.001.013-.002.02 0 .014.004-.015.065-.035.096l-.057-.003c0-.02.043-.073.052-.082z"/>
    <path fill="#FAD560" d="M10.335 42.642s-.004-.024.013-.032c.016-.008.092.087.086.1-.004.006-.011.012-.019.014-.008.003-.016.003-.024 0-.021-.008-.05-.07-.056-.082z"/>
    <path fill="#FFCA05" d="M10.942 42.716s-.028-.011-.026-.027c.002-.016.148-.009.154 0 .003.003.004.006.005.01v.011l-.006.01-.01.005c-.04.003-.079 0-.117-.01zM11.196 42.76s-.013-.026 0-.036c.013-.011.1.073.114.097h-.06c-.02-.02-.036-.04-.052-.061h-.002z"/>
    <path fill="#F8D075" d="M11.181 42.53s.028.011.028.026-.14.011-.148 0c-.003-.002-.005-.005-.006-.009v-.01c0-.004.002-.007.004-.01s.005-.005.008-.006c.038-.003.077 0 .114.008v.002zM11.015 42.62s.028.011.028.026-.141.011-.148 0l-.006-.009v-.01c0-.004.001-.007.004-.01.002-.003.005-.005.008-.006.038-.004.077 0 .114.008v.002zM11.691 42.668s.028.01.028.025c0 .014-.14.011-.148 0-.003-.003-.005-.006-.006-.01v-.01c0-.003.002-.006.004-.01l.008-.005c.039-.004.077 0 .114.008v.002z"/>
    <path fill="#F7F4EE" d="M11.239 42.424s.003-.03.018-.033c.014-.004.043.135.036.144-.002.003-.005.006-.008.007-.003.002-.006.003-.01.003s-.007 0-.01-.003c-.003-.001-.006-.004-.008-.007-.012-.036-.018-.074-.018-.113v.002z"/>
    <path fill="#FFCA05" d="M10.964 42.384s-.01-.03 0-.043c.01-.013.1.098.099.112-.003.014-.011.032-.03.025-.02-.007-.062-.08-.07-.094z"/>
    <path fill="#F8D075" d="M10.531 42.441s.028.003.033.016c.004.014-.126.044-.135.038-.01-.006-.019-.02-.004-.034.034-.012.07-.019.106-.02z"/>
    <path fill="#FFCA05" d="M11.42 42.468s-.017-.02-.007-.033c.01-.013.125.044.125.056 0 .004 0 .008-.002.011l-.006.01-.01.006-.01.001c-.034-.011-.064-.028-.09-.051zM10.796 42.458c-.029-.028-.062-.052-.098-.07-.022-.004-.026.013-.024.025.001.012.126.095.133.082.008-.013-.01-.037-.01-.037zM10.65 42.504s.028.003.033.016c.005.012-.13.043-.14.035-.01-.009-.02-.02-.004-.032.036-.012.073-.018.11-.02z"/>
    <path fill="#E5DED1" d="M10.418 42.808c.018-.017.04-.03.064-.038.015.002.035.01.03.028-.003.005-.007.01-.012.014l-.082-.004z"/>
    <path fill="#FFCA05" d="M10.275 42.76s-.035.01-.052 0c-.017-.01.107-.103.124-.1.017.003.04.012.034.032-.006.02-.09.062-.106.07v-.002zM11.17 42.734c-.016.007-.019.036-.019.036 0 .007.003.03.008.054h.05c-.01-.04-.03-.093-.04-.09zM10.645 42.577s.005-.023.022-.026c.017-.004.043.096.035.103-.006.006-.013.009-.02.01-.008 0-.015-.002-.021-.006-.015-.01-.016-.07-.016-.081zM11.491 42.568s.012.021 0 .032c-.011.01-.115-.064-.112-.074.002-.008.006-.014.013-.018.007-.004.014-.005.022-.003.022.003.07.054.078.063zM10.612 42.778s-.023.017-.04.012c-.015-.006.049-.111.062-.114.014-.002.033 0 .036.018.004.025-.046.081-.058.084z"/>
    <path fill="#FFCA05" d="M10.662 42.793s-.026.012-.043.003c-.017-.008.071-.098.087-.097.015.001.031.008.03.025 0 .026-.063.07-.074.07z"/>
    <path fill="#FAD560" d="M11.416 42.71s.016-.023.036-.023c.02.001.007.12-.006.126-.008.004-.016.006-.025.004-.008-.001-.016-.006-.022-.012-.011-.017.013-.084.017-.096z"/>
    <path fill="#FFCA05" d="M10.903 42.43s-.031-.004-.036-.02c-.005-.015.143-.046.154-.037.01.008.02.024.003.038-.039.013-.08.02-.12.019z"/>
    <path fill="#fff" d="M10.912 42.54s-.028-.005-.04.006c-.01.011.093.078.106.074.012-.004.029-.013.022-.03-.007-.016-.076-.043-.086-.05h-.002z"/>
    <path fill="#FFCA05" d="M10.79 42.771s0-.019.014-.02c.014-.003.043.042.056.072h-.05l-.02-.051zM10.37 42.525s.008-.023-.006-.032c-.014-.01-.102.078-.098.087.004.007.01.012.017.016.007.003.015.003.022 0 .021-.006.059-.063.066-.073v.002z"/>
    <path fill="#fff" d="M10.65 42.437s0-.026.012-.034c.01-.008.064.103.058.114-.005.01-.018.022-.033.012-.018-.028-.03-.06-.037-.092z"/>
    <path fill="#FFCA05" d="M10.98 42.489s0-.026.018-.028c.018-.002.057.12.05.128-.003.003-.007.005-.01.006-.003.002-.007.003-.01.003-.005 0-.008-.001-.012-.003l-.009-.006c-.015-.031-.024-.065-.027-.1zM10.883 42.446s0-.025.019-.028c.018-.003.057.12.049.128-.003.003-.006.005-.01.006-.003.002-.006.003-.01.003s-.007-.001-.01-.003c-.004-.001-.007-.003-.01-.006-.015-.031-.024-.065-.027-.1zM10.907 42.383s.012-.027.003-.038c-.01-.012-.104.089-.102.101 0 .013.008.029.027.023.019-.006.064-.074.072-.087v.001zM11.502 42.49s-.027-.011-.039-.002c-.011.01.09.103.103.101.012-.002.028-.009.022-.028-.007-.019-.074-.063-.087-.07z"/>
    <path fill="#fff" d="M11.412 42.448s.011-.025.003-.04c-.009-.015-.1.06-.1.073.002.014.008.033.026.032.018 0 .063-.055.07-.065z"/>
    <path fill="#F8D075" d="M10.6 42.424s0-.024-.018-.03c-.019-.005-.07.1-.061.109.005.006.012.01.02.01.008.002.016 0 .023-.003.018-.011.033-.075.035-.087h.001z"/>
    <path fill="#fff" d="M11.396 42.713s.023-.015.018-.03c-.004-.014-.141.016-.145.027-.002.003-.002.007-.002.01 0 .004 0 .008.003.01.001.004.004.007.007.009.003.002.006.003.01.003.037-.003.074-.013.109-.029z"/>
    <path fill="#FFCA05" d="M11.081 42.738s-.03.008-.032.023c-.003.014.138.022.147.013.009-.009.017-.025 0-.035-.038-.006-.077-.006-.114 0l-.001-.001z"/>
    <path fill="#FAD560" d="M10.552 42.744s-.03-.007-.043.006c-.012.013.04.043.078.066h.062l.002-.01c0-.003 0-.006-.002-.009-.008-.018-.084-.05-.097-.055v.002z"/>
    <path fill="#FAD560" d="M10.54 42.633s-.009-.027-.025-.028c-.017 0-.024.134-.014.142l.01.006h.01c.004 0 .008-.001.011-.003l.008-.008c.007-.036.007-.073 0-.11z"/>
    <path fill="#F8D075" d="M10.588 42.586s-.01-.026-.026-.027c-.016-.001-.024.134-.014.141.003.003.006.005.01.006h.011c.004 0 .007 0 .01-.003.004-.002.006-.005.008-.008.007-.036.007-.073 0-.109z"/>
    <path fill="#F7F4EE" d="M10.42 42.625s-.03 0-.035.015c-.004.014.138.055.148.049l.008-.007c.002-.003.003-.007.003-.01 0-.004 0-.007-.002-.01-.001-.004-.004-.006-.007-.008-.037-.016-.075-.025-.115-.029z"/>
    <path fill="#FFCA05" d="M10.378 42.77s.027-.018.026-.035c0-.017-.145.018-.151.03-.007.013-.01.032.01.038.04-.005.079-.016.115-.034z"/>
    <path fill="#fff" d="M11.27 42.563s-.027-.011-.025-.027c.001-.015.147-.008.154 0 .002.003.004.007.004.01v.012c-.001.003-.003.007-.006.01l-.01.005c-.04.003-.079-.001-.117-.011v.001z"/>
    <path fill="#F8D075" d="M11.512 42.696s-.029.011-.043 0c-.015-.011.081-.1.095-.098.014.001.034.009.03.027-.002.02-.07.062-.082.07v.001z"/>
    <path fill="#fff" d="M11.049 42.445s0 .022.017.028c.017.006.062-.085.054-.093-.004-.006-.01-.01-.018-.012-.007-.002-.015-.001-.021.002-.017.008-.03.065-.032.075z"/>
    <path fill="#FFCA05" d="M11.736 42.632s.004.026-.013.035c-.018.01-.099-.095-.092-.105.005-.008.012-.014.02-.017.009-.003.018-.003.026 0 .023.009.054.075.059.087zM10.296 42.703s.004.025-.014.035c-.018.009-.098-.095-.091-.106.004-.008.011-.014.02-.017.008-.003.018-.002.026 0 .022.009.053.076.059.087z"/>
    <path fill="#fff" d="M10.841 42.4s.032.007.035.023c.002.017-.153.035-.163.025l-.008-.008c-.002-.003-.003-.007-.003-.011l.003-.012.008-.008c.041-.01.084-.013.126-.01h.002z"/>
    <path fill="#FFCA05" d="M10.137 42.677s.03-.012.047 0c.016.012-.087.107-.102.106-.016-.002-.036-.01-.033-.03.004-.02.076-.066.087-.074l.001-.002z"/>
    <path fill="#fff" d="M11.286 42.655s-.026-.015-.02-.032c.006-.017.158.007.161.019.002.004.003.008.002.012l-.003.012-.008.01-.012.004c-.04-.001-.082-.01-.12-.025z"/>
    <path fill="#F8D075" d="M10.987 42.457s.028.004.03.024c0 .02-.14.06-.148.05-.006-.006-.008-.015-.007-.024 0-.01.005-.017.012-.023.035-.017.074-.026.113-.027zM11.259 42.469s.028.005.029.024c0 .019-.14.06-.147.05-.005-.007-.008-.016-.007-.024 0-.01.005-.018.012-.023.035-.017.074-.026.113-.027zM11.515 42.602s.028.004.03.023c0 .02-.14.061-.148.051-.006-.007-.008-.016-.007-.025 0-.009.005-.017.011-.023.036-.016.075-.025.114-.026z"/>
    <path fill="#F7F4EE" d="M10.134 42.756c.012-.01.029-.015.045-.013.008.002 0 .024-.009.049l-.061-.005c.01-.014.02-.027.025-.031z"/>
    <path fill="#fff" d="M11.643 42.615s-.007.028-.028.032c-.022.005-.06-.123-.048-.132.007-.006.016-.01.025-.01.01-.002.02 0 .027.006.02.015.023.091.024.104z"/>
    <path fill="#F7F4EE" d="M11.182 42.823c.019-.004.038-.004.057 0h-.057z"/>
    <path fill="#FFCA05" d="M11.527 42.75s.035-.004.047.011c.007.009-.036.035-.077.055l-.093.003c-.001-.006 0-.011.004-.016.011-.019.103-.048.12-.052z"/>
    <path fill="#fff" d="M11.844 42.743s.035-.005.047.01c.005.008-.026.028-.06.047l-.111.007c0-.005.002-.009.004-.012.011-.02.103-.047.12-.052z"/>
    <path fill="#FFCA05" d="M11.844 42.743s.035-.005.047.01c.005.008-.026.028-.06.047l-.111.007c0-.005.002-.009.004-.012.011-.02.103-.047.12-.052zM11.003 42.781s.031.003.036.019c0 .006-.026.016-.058.026h-.106v-.012l.008-.01c.039-.013.079-.02.12-.022z"/>
    <path fill="#FFCA05" d="M11.75 42.695s-.018-.022-.008-.037c.011-.014.14.05.14.063 0 .004 0 .008-.002.012s-.004.008-.007.01c-.003.003-.006.006-.01.007-.004.002-.008.002-.012.002-.037-.013-.072-.032-.101-.057zM10.871 42.733c-.032-.032-.069-.06-.11-.08-.024-.004-.028.015-.026.029.001.014.14.106.149.092.008-.014-.013-.043-.013-.043v.002zM11.137 42.81c-.033-.031-.07-.058-.11-.08-.024-.003-.029.016-.027.03.025.026.053.047.084.064h.061l-.008-.013z"/>
    <path fill="#E5DED1" d="M11.514 42.814c-.004-.004-.006-.007-.005-.008.002-.009.007-.016.015-.02.007-.005.016-.006.024-.004.017.006.033.016.046.03l-.08.002z"/>
    <path fill="#FFCA05" d="M11.066 42.68s-.026.02-.043.014c-.017-.006.054-.125.07-.127.014-.002.036 0 .039.02.005.028-.052.09-.065.093z"/>
    <path fill="#FAD560" d="M11.209 42.473s-.035-.005-.04-.022c-.006-.017.16-.052.172-.044.013.009.023.027.004.044-.044.014-.09.021-.136.021v.001zM10.254 42.745s-.025-.01-.036.006c-.004.006.007.025.022.046l.078.004c-.02-.02-.041-.04-.064-.056z"/>
    <path fill="#FFCA05" d="M11.677 42.754s-.033.004-.038.02c-.006.016.055.026.1.034l.062-.003.006-.008.002-.008-.002-.01-.006-.006c-.04-.013-.081-.02-.123-.02z"/>
    <path fill="#fff" d="M10.715 42.706s0-.03.012-.038c.014-.008.072.116.066.128-.006.011-.02.025-.037.014-.018-.012-.038-.09-.044-.104h.003z"/>
    <path fill="#FFCA05" d="M10.797 42.523s.002-.028.02-.03c.018-.003.064.134.056.142l-.01.007c-.004.002-.008.002-.012.002s-.008 0-.012-.002l-.01-.007c-.017-.035-.028-.073-.03-.112h-.002zM10.955 42.642s.014-.03.003-.043c-.01-.013-.116.1-.114.113 0 .014.009.032.03.025.021-.007.072-.081.081-.095z"/>
    <path fill="#F8D075" d="M11.082 42.787s.014-.03.003-.043c-.011-.013-.065.046-.095.084h.064l.028-.04zM11.086 42.38s.013-.03.002-.043c-.01-.013-.116.1-.114.114.002.014.01.032.03.025.022-.007.072-.082.082-.095z"/>
    <path fill="#fff" d="M10.818 42.4s-.026-.023-.041-.016c-.015.007.063.14.076.142.014.003.034 0 .033-.022-.017-.039-.04-.074-.068-.105z"/>
    <path fill="#FFCA05" d="M11.38 42.808s-.024-.017-.042-.01c-.005 0-.004.01 0 .022h.052l-.01-.01v-.002z"/>
    <path fill="#F7F4EE" d="M10.653 42.63s0-.027-.022-.032c-.02-.006-.077.111-.067.12.006.007.014.012.023.013.009.002.018 0 .026-.004.02-.012.037-.084.04-.097z"/>
    <path fill="#fff" d="M10.242 42.712s0 .028.022.034c.022.006.082-.117.072-.127-.007-.007-.015-.011-.024-.013-.01-.002-.02 0-.028.005-.021.012-.039.086-.043.101h.001zM10.76 42.564s-.034-.007-.048.007c-.014.014.115.096.13.092.014-.004.035-.017.027-.037-.009-.02-.095-.056-.11-.062h.002z"/>
    <path fill="#FFCA05" d="M10.73 42.773s-.011-.03-.03-.03c-.009 0-.016.039-.018.078h.052c0-.022-.004-.043-.005-.05v.002z"/>
    <path fill="#fff" d="M11.682 42.689s-.03-.013-.029-.03c.002-.018.166-.01.173 0 .003.003.005.007.005.011v.012c-.001.005-.004.008-.007.011l-.01.007c-.044.002-.088-.002-.13-.013l-.002.002zM11.565 42.806s-.032.013-.048 0c-.017-.013.091-.112.107-.11.016.001.038.01.034.03-.004.021-.08.07-.093.078v.002z"/>
    <path fill="#F8D075" d="M11.182 42.72s0 .024.02.03c.018.008.069-.094.06-.103-.005-.007-.012-.011-.02-.013-.007-.002-.016-.001-.023.002-.018.009-.033.072-.035.084h-.002zM10.422 42.552s0 .023.02.03c.018.007.069-.094.06-.104-.005-.006-.012-.01-.02-.012s-.016-.001-.023.002c-.019.009-.033.072-.036.084zM11.236 42.579s0 .024.02.03c.018.007.069-.093.06-.103-.005-.006-.012-.01-.02-.013-.007-.002-.015-.001-.023.002-.018.01-.033.073-.035.084h-.002zM11.455 42.598s0 .024.019.031c.02.007.07-.094.06-.104-.004-.006-.011-.01-.019-.012s-.016-.002-.023.001c-.019.01-.034.073-.036.084h-.001zM11.46 42.755s0 .024.018.03c.02.008.07-.094.061-.103-.005-.007-.012-.011-.02-.013-.007-.002-.016-.001-.023.002-.019.01-.033.073-.036.084z"/>
    <path fill="#FFCA05" d="M11.105 42.438c.014-.003.122.055.108.064-.013.005-.028.006-.043.003-.013-.005-.086-.03-.091-.044-.006-.013.012-.02.026-.023zM11.455 42.619s.019-.019.017-.034c-.002-.015-.106.03-.11.041-.004.012-.005.03.01.034.016.004.073-.034.083-.041zM10.783 42.38s.019-.018.017-.033c-.003-.015-.107.03-.11.041-.005.012-.006.03.01.034.015.004.073-.034.083-.041zM11.023 42.752s.018-.019.016-.034c-.002-.015-.106.03-.11.041-.004.012-.005.03.01.034.016.004.073-.034.084-.043v.002z"/>
    <path fill="#FAD560" d="M11.307 42.463s.003-.03.018-.033c.015-.004.043.135.036.144-.007.01-.022.018-.035 0-.012-.036-.019-.075-.02-.113v.002z"/>
    <path fill="#FFCA05" d="M11.62 42.7c.006-.013.032-.016.032-.016.032 0 .064.006.094.017.012.012 0 .026-.007.032-.007.007-.124-.02-.119-.033zM10.77 42.503s.005-.026-.007-.034c-.012-.007-.08.103-.075.114 0 .003.002.006.005.009l.008.005c.003.001.007.002.01.001.003 0 .007-.001.01-.003.021-.028.038-.059.05-.092zM10.501 42.66s.005-.027-.007-.035c-.012-.007-.08.104-.075.114 0 .003.002.006.004.009.002.003.005.005.008.006l.01.001c.004 0 .007-.002.01-.004.022-.027.039-.058.05-.092zM10.778 42.625s.015-.022.007-.034c-.009-.012-.115.062-.115.073 0 .011.005.027.025.025.02-.002.073-.054.083-.064z"/>
    <path fill="#fff" d="M10.983 42.71s-.01-.029-.026-.03c-.016-.002-.02.127-.01.141h.038c.005-.037.005-.074-.003-.11l.001-.001z"/>
    <path fill="#FFCA05" d="M11.575 42.647s0-.027-.014-.033c-.014-.007-.043.108-.037.117.007.01.019.021.03.01.012-.03.02-.062.021-.094zM11.133 42.724s.007.025.021.03c.015.006.025-.107.016-.117-.008-.009-.023-.018-.034-.007-.01.012-.004.081-.003.094z"/>
    <path fill="#FAD560" d="M10.446 42.598c.002.012.006.022.012.032.01.014.08-.09.078-.104-.002-.014-.013-.017-.03-.013-.017.004-.053.073-.06.087v-.002z"/>
    <path fill="#fff" d="M11.223 42.61s.025.014.04.004c.016-.01-.06-.107-.074-.106-.014 0-.033.007-.033.027s.057.067.067.076zM10.677 42.481s.024.013.04.004-.06-.107-.074-.106c-.014 0-.033.007-.033.027s.057.067.067.075z"/>
    <path fill="#F48020" d="M10.447 42.709c-.002 0-.003 0-.004-.002l-.001-.003V42.7c.001-.012-.001-.023-.007-.034-.005-.01-.013-.018-.023-.024-.007-.003-.013-.007-.017-.013-.005-.005-.008-.012-.01-.019-.001-.006 0-.013.004-.018l.002-.002h.004l.001.002.001.001v.004l-.001.002-.001.005.001.005c.002.006.005.01.008.015.004.005.009.008.014.01.012.007.021.017.028.028.006.012.008.026.007.039v.003c0 .002 0 .003-.002.004l-.003.002-.001-.001zM11.709 42.728h-.002l-.002-.001-.001-.002v-.002l-.003-.01c-.006-.011-.007-.024-.003-.037.003-.012.011-.023.022-.03.005-.002.01-.006.013-.01.004-.004.007-.01.01-.015v-.01l-.002-.002v-.002-.002l.001-.002.002-.001h.004l.001.001c.004.005.005.012.004.019-.002.007-.005.013-.01.019-.004.005-.01.01-.016.013-.027.016-.02.04-.015.056l.003.012c0 .002 0 .003-.002.004l-.003.002h-.002zM11.332 42.773c-.005 0-.01 0-.014-.004l-.001-.001v-.002-.002l.001-.002h.007l.006.002c.002 0 .004 0 .005-.002.01-.004.02-.013.024-.023.005-.012.014-.023.025-.03.012-.007.025-.01.038-.01h.005l.002.001.001.002v.005l-.002.002h-.005c-.012 0-.024.003-.033.009-.01.006-.018.015-.023.025-.002.007-.007.013-.012.018-.005.005-.011.009-.018.011h-.006v.001zM10.654 42.46c-.005 0-.009 0-.013-.003l-.001-.002v-.002-.001l.001-.002.004-.001.003.001c.004.002.008.002.011 0 .008-.002.016-.01.024-.024.005-.012.014-.022.026-.03.011-.006.024-.01.038-.01h.003l.003.002.002.004v.002l-.001.001-.002.001h-.005c-.012 0-.023.003-.033.01-.01.005-.018.014-.023.025-.002.007-.006.013-.012.018-.005.005-.01.008-.018.01h-.006v.002zM11.013 42.515h-.005c-.003 0-.006-.002-.009-.004-.003-.001-.005-.004-.007-.006v-.002l-.001-.002V42.5l.001-.001.002-.001h.005c.003.004.006.005.01.006.006 0 .011 0 .017-.003.005-.002.01-.005.014-.01.01-.008.022-.014.035-.017.013-.002.027 0 .039.006h.003l.002.003v.003l-.002.003h-.007c-.01-.005-.022-.006-.034-.005-.011.002-.022.008-.03.016-.01.008-.021.014-.034.015l.001.001zM10.14 42.733c-.006 0-.011-.002-.016-.005-.005-.004-.01-.008-.012-.013l-.001-.002v-.003-.002l.002-.002h.004l.002.001.002.002c.009.013.016.024.053 0 .01-.008.023-.01.035-.01.013.002.024.008.033.017v.006l-.001.001-.002.001h-.002-.002l-.001-.002c-.007-.007-.016-.012-.026-.013-.01 0-.02.002-.028.009-.012.008-.025.013-.04.014v.001zM11.018 42.64h-.001l-.002-.001-.001-.002v-.007c.001-.012-.001-.024-.006-.034-.006-.01-.014-.018-.025-.024-.006-.003-.012-.008-.017-.013l-.01-.019v-.01l.005-.009.003-.001h.004l.002.004-.001.004-.001.005v.006c0 .008.01.016.023.024.012.007.021.017.027.029.007.011.01.025.008.038v.003c0 .002 0 .003-.002.004l-.003.002-.003.001zM11.608 42.685l-.004-.001-.001-.004v-.003c.001-.012-.001-.023-.006-.034-.006-.01-.014-.019-.024-.024-.007-.003-.013-.008-.017-.013-.005-.006-.008-.012-.01-.019-.001-.007 0-.014.004-.02h.007l.002.002v.004l-.002.002v.01c.002.006.005.011.009.015.004.005.008.008.013.01.012.007.022.017.028.029.006.011.009.025.007.038v.007l-.003.001h-.003zM10.637 42.766l-.003-.001-.001-.002v-.004l.003-.003.007-.002c.009-.002.02-.004.025-.037.003-.023.014-.046.03-.063l.002-.001h.003l.002.001v.007c-.015.016-.024.036-.027.058-.007.036-.02.043-.033.043h-.006l-.002.004zM11.237 42.624h-.002l-.001-.002-.001-.002v-.002c.002-.007.006-.014.013-.018.008-.004.017-.006.026-.007.009 0 .018.001.026.004.038.01.044.006.05 0 .002-.003.006-.004.01-.005l.016-.002c.013 0 .033-.003.033-.01v-.003l.001-.001.002-.001h.005l.002.004c0 .017-.024.02-.043.02h-.015l-.007.005c-.01.006-.019.01-.057 0-.014-.006-.03-.006-.043 0-.004.002-.008.006-.009.011 0 .001 0 .002-.002.003l-.003.001v.005zM11.033 42.807l-.003-.001-.002-.003.001-.004.003-.002c.012 0 .013-.008.012-.028v-.01c0-.016.01-.022.022-.028.008-.004.016-.01.023-.015.005-.007.009-.015.01-.024.001-.008 0-.017-.003-.025v-.004l.002-.002h.006l.001.002c.004.01.005.02.004.031-.002.01-.006.02-.013.029-.008.007-.016.012-.026.017-.01.006-.016.01-.016.019v.01c0 .018 0 .035-.02.038zM11.597 42.799h-.005l-.002-.002v-.002-.002-.002l.002-.001.001-.001h.002s.024.003.037-.035l.005-.019c.004-.017.008-.034.026-.043h.003c.002 0 .003.001.003.002v.004c0 .002-.001.003-.002.003-.013.006-.016.018-.02.035l-.005.02c-.013.038-.036.043-.044.043h-.001zM10.39 42.811c-.011 0-.023-.003-.034-.009-.01-.007-.018-.018-.022-.03v-.002l.001-.002.002-.002h.005l.002.002v.002c.003.01.01.018.018.023.008.005.017.008.027.008.01.001.019 0 .028-.003.035-.009.043-.007.05-.004h.006l.001.002.001.002v.004l-.002.001-.002.001h-.008c-.004 0-.009-.004-.043.004-.01.003-.019.004-.028.004h-.001zM10.878 42.798c-.006 0-.012-.002-.017-.005l-.001-.004v-.003l.003-.002h.003s.013.009.018 0l.006-.01c.003-.009.006-.017.013-.019l.006-.001.006.001c.01.006.015 0 .016 0l.003-.001.004.001v.002l.001.002v.002l-.001.001-.006.006-.008.002h-.008l-.007-.004h-.004c-.002 0-.005.007-.007.012l-.007.014-.006.005-.008.002h.001zM10.248 42.63h-.002l-.001-.002v-.002-.002c.003-.01.01-.02.019-.025.01-.005.02-.006.031-.002.007.003.015.003.023 0 .007-.003.013-.008.016-.015.001-.003.003-.005.005-.006l.002-.001h.005v.002l.001.002v.002l-.001.002v.003c-.005.009-.012.016-.021.02-.01.003-.02.003-.029 0-.005-.003-.01-.004-.016-.002-.005 0-.01.004-.014.008-.004.003-.007.008-.008.014l-.002.002-.003.001-.005.001zM11.79 42.756c-.018 0-.037-.002-.056-.005l-.002-.001-.001-.001-.001-.002v-.002c0-.001 0-.003.002-.003l.004-.001c.113.02.13-.022.13-.023 0 0 0-.002.002-.003h.005l.002.002v.004s-.01.035-.082.035h-.002z"/>
    <path fill="#FFF9C1" d="M10.993 40.87c-.013-.014-.027-.028-.043-.04l-.006-.006.008.017.018.033c.043.076.065.162.064.25-.005.118-.055.23-.138.315-.055.055-.101.118-.138.187-.037.077-.05.164-.038.25.013.078.046.152.097.213.016.02.036.038.053.057l.022.023v-.003l.037.04.022.022c-.007-.02-.016-.04-.026-.058-.045-.084-.068-.178-.065-.273.007-.116.054-.226.133-.31.063-.067.111-.148.14-.235.023-.085.023-.175-.002-.26-.025-.085-.072-.161-.138-.22v-.002z"/>
    <path fill="#FFF9C1" d="M11.178 42.006c-.033-.039-.057-.085-.07-.135-.013-.05-.013-.101-.002-.152.007-.029.016-.058.024-.086l-.02.02v-.003c-.016.015-.03.032-.043.05-.027.031-.047.068-.06.108-.011.04-.014.082-.01.123.011.066.038.128.08.18.043.06.067.13.068.204 0 .057-.01.113-.03.165l.019-.019.011-.01c.007-.005.013-.011.018-.017.038-.034.067-.077.085-.124.016-.053.019-.108.007-.162-.012-.053-.038-.102-.076-.142z"/>
    <path fill="#DC731D" d="M.492 50.418c3.626.431 7.192.616 10.326.616 4.672.062 8.422-.246 10.45-.431-.061-.185-.123-.37-.123-.556-3.442.309-11.617.802-20.469-.246-.061.246-.123.431-.184.617zM4.118 36.417l14.26 1.974c-.245-1.172-.49-2.097-.614-2.714l-13.4-.185c-.123.309-.184.617-.246.925z"/>
    <path fill="#F48020" d="M3.995 36.11l14.015.123c.553 0 .984-.432.984-.925v-.124c0-.555-.43-.986-.922-.986l-14.015-.124c-.553 0-.984.432-.984.925v.124c0 .555.43.987.922.987z"/>
    <path fill="#FFBE9D" d="M16.904 34.2s-2.029-1.727-3.443-1.727c-1.413.061-3.258 1.603-3.75 2.837-.491 1.233 2.582-.37 2.582-.37l2.705-.802 1.906.062z"/>
    <path fill="#891A1C" d="M38.295 28.895s-1.66 3.516-2.52 5.243c-.86 1.727-2.582 4.256-2.582 4.256l6.393 10.546s3.503-3.762 3.565-8.326c.123-4.502.983-12.274-4.856-11.719z"/>
    <path fill="#E2806D" d="M33.685 46.346s.061 0 0 0c.184-.061.246-.123.246-.246-.43-2.098-1.66-3.27-1.66-3.331-.062-.062-.246-.062-.307 0-.062.062-.062.247 0 .308 0 0 1.106 1.172 1.536 3.146 0 .062.062.123.185.123z"/>
    <path fill="#E2806D" d="M34.053 43.636c.123 0 .185-.062.246-.185 0-.123-.061-.247-.184-.247l-1.967-.493c-.123 0-.246.062-.246.185s.061.247.184.247l1.967.493c-.061 0-.061 0 0 0z"/>
    <path fill="#891A1C" d="M63.435 25.989c-.369-.185-.799-.247-1.23-.309l-.921-.185c-1.291-.247-2.274-.678-3.135-1.048l-.369-.185c-1.168-.617-1.844-1.172-1.844-1.172l-7.806.247c-.677 1.048-1.906 1.418-2.89 1.85-.122.061-.184.123-.307.123-.184.062-.43.185-.614.247-.738.247-1.537.493-2.275.678-1.967.556-3.626 1.234-4.118 3.578-.43 2.22 1.23 6.722 1.045 15.912 0 .679-.062 1.357-.062 2.097-.061.679-.061 1.357-.123 2.097 0 .124 0 .309-.061.432-.062.555-.062 1.11-.123 1.665-.061.617-.123 1.296-.184 1.912-.062.679-.185 1.357-.246 2.097-.553 3.824-.86 6.723-1.475 11.78-.308 2.468-1.537 8.142-1.168 8.45 2.335 5.305 17.764 1.604 29.32 1.542.061-.246.123-.37.184-.925.984-2.652 2.213-10.423 3.074-15.296.184-1.172.307-2.282.369-2.96.061-.679.123-1.48.123-2.159.245-3.33.553-6.784.368-10.3v-.555c-.123-2.899.86-6.908 1.107-10.3 0 0 1.598-6.476-6.639-9.313z"/>
    <path fill="#3E3B3A" d="M39.094 47.823c-.123 0-.246-.123-.246-.246l.246-12.46c0-.123.123-.246.245-.246.123 0 .246.123.246.247l-.245 12.459c0 .123-.123.246-.246.246z"/>
    <path fill="#3E3B3A" d="M39.217 39.187c-.062 0-.185-.062-.185-.124l-.799-2.035c-.061-.123 0-.247.123-.309.123-.061.246 0 .307.124l.8 2.035c.06.124 0 .247-.123.309-.062-.062-.123 0-.123 0zM63.066 77.678h-.061c-.123-.062-.184-.185-.123-.309 3.012-8.264 3.872-17.27 4.057-23.375.184-6.6-.307-11.287-.307-11.349 0-.123.061-.247.184-.247s.246.062.246.185c0 .062.553 4.75.307 11.41-.184 6.107-1.045 15.173-4.057 23.5-.123.123-.184.185-.246.185zM45.18 68.427c-1.722 0-3.627-.185-5.656-.617-.123 0-.184-.123-.184-.246 0-.124.122-.185.245-.185 7.623 1.665 13.216-.37 16.597-2.344 3.627-2.159 5.532-4.688 5.532-4.75.062-.123.184-.123.307-.06.123.06.123.184.062.307-.062.124-1.967 2.653-5.655 4.873-2.52 1.48-6.27 3.022-11.249 3.022z"/>
    <path fill="#3E3B3A" d="M46.47 64.603c-.492 0-.984-.061-1.537-.123-.123 0-.184-.123-.184-.247 0-.123.123-.185.246-.185 5.9 1.049 8.913-4.687 8.913-4.749.061-.123.184-.123.307-.123.123.061.123.185.123.308-.062.062-.8 1.542-2.336 2.899-1.168 1.11-3.012 2.22-5.532 2.22zM49.666 30.373c-1.29 0-2.52-.432-3.688-1.295-.123-.062-.123-.185-.061-.309.061-.123.184-.123.307-.061 1.29.986 2.705 1.357 4.18 1.172 3.75-.494 6.884-4.688 6.946-4.688.061-.123.184-.123.307-.062.123.062.123.185.062.309-.123.185-3.258 4.317-7.254 4.872-.246 0-.491.062-.799.062z"/>
    <path fill="#122052" d="M45.302 4.407s-1.106 1.172-1.106 2.467c0 0-.738 1.419-.554 2.652.185 1.234.8 2.837.8 2.837s1.044-5.797 2.335-6.044c1.291-.308 2.95-1.295 2.95-1.295s-.675-1.604-4.425-.617zM59.194 9.342s.43 1.42-.184 2.098c-.615.678.061 1.85-.8 2.528-.86.679-2.212.247-2.212.247s-.37-7.216-.984-7.895c-.061 0 2.336 0 4.18 3.022z"/>
    <path fill="#FFBE9D" d="M48.13 22.232v2.097c.246.185.491.37.737.493 3.627 2.159 7.5-.493 7.5-.493V17.05l-7.254 4.564-.983.617z"/>
    <path fill="#122052" d="M48.13 22.168v2.158c.245.185.491.37.737.494 3.074-1.234 5.287-4.441 5.287-4.441l-5.04 1.233-.984.556z"/>
    <path fill="#E2806D" d="M45.548 12.978s-1.168-1.418-1.844 0c-.676 1.419-.185 4.256 1.66 3.762l.184-3.762z"/>
    <path fill="#FFBE9D" d="M44.319 17.91s0 4.318 4.487 4.318c4.425 0 7.438-3.516 7.622-3.639l.061-.925.246-4.688.123-2.528s.553-4.503-3.688-5.366c-3.135-.617-6.085-.062-7.56 1.542-.062.061-.123.123-.123.185-.492.555-.738 1.295-.861 2.097l-.123 4.502-.062 1.11-.122 3.392z"/>
    <path fill="#E2806D" d="M50.22 13.965c0 .309.614.556 1.413.556.8 0 1.414-.247 1.414-.556 0-.308-.615-.555-1.414-.555-.738-.061-1.414.247-1.414.555zM44.38 14.52h.369c.799 0 1.414-.246 1.414-.555 0-.308-.615-.555-1.414-.555h-.308l-.061 1.11z"/>
    <path fill="#F8F8F8" d="M54.83 12.61s-1.353 2.713-2.705 2.22c-1.414-.494-3.074-.555-4.426 0 0 0-2.09-1.357-3.442-.555-.922.555-.676 6.537 2.336 7.524 3.012.987 7.191.124 8.298-2.713 1.106-2.838 1.168-5.305 1.168-5.305l-1.23-1.172z"/>
    <path fill="#415999" d="M47.453 16.557c1.66.062 3.012-1.295 3.074-1.295.061-.062.061-.185 0-.247-.062-.062-.184-.062-.246 0-.061.062-2.274 2.159-4.241.617-.062-.062-.185-.062-.246.062-.062.061-.062.184.061.246.492.37 1.045.555 1.599.617z"/>
    <path fill="#E0E0E0" d="M45.912 17.144c1.4.544 3.07.376 4.327-.463-.244.336-.487.692-.839.92-.409.253-.912.317-1.379.358-.389.035-.777.07-1.143-.075-.365-.144-.645-.434-.908-.745"/>
    <path fill="#E0E0E0" d="M50.412 17.08s-.101.186-.354.425c-.234.236-.62.526-1.113.708-.493.181-.96.223-1.294.213-.334-.01-.535-.07-.537-.09-.001-.02.218.02.55.01.332-.01.798-.051 1.272-.23.474-.18.862-.45 1.097-.668.236-.218.358-.386.379-.368z"/>
    <path fill="#263238" d="M50.392 16.629s-.055.044-.147.111-.24.159-.447.256c-.188.095-.434.196-.7.278-.268.083-.575.15-.906.18-.33.029-.643.037-.92.002-.277-.034-.535-.07-.736-.13-.202-.061-.362-.106-.484-.154-.103-.05-.164-.084-.164-.084-.002-.02.261.075.662.177.2.041.457.077.734.112.276.014.589.006.9-.021.31-.028.618-.095.885-.177.267-.083.495-.162.702-.26.396-.172.62-.31.62-.29z"/>
    <path fill="#122052" d="M52.678 10.017c-.246.493-.799.74-1.29.493-.308-.123-.615-.246-.984-.308-.492-.123-.86-.617-.676-1.172-.123 0 1.967-.185 2.95.987zM44.564 10.017c.246.493.8.74 1.291.493.308-.123.615-.246.984-.308.492-.123.86-.617.676-1.172.123 0-1.967-.185-2.95.987z"/>
    <path fill="#122052" d="M45.425 6.746c.676-.247 1.23 0 2.274.494 1.599.678 3.32.061 4.918-.74 1.537-.802 2.52.308 1.967 1.048-.553.74-.492 1.295.123 2.282.614.925-1.107 1.357-.185 2.097.37.308.37.74.185 1.172-.185.493.246.925.737.863.492-.123 1.23-1.048 1.23-1.048l.123-2.529s.553-4.502-3.688-5.366c-3.135-.617-6.086-.061-7.561 1.542-.062.123-.123.123-.123.185zM50.342 12.235c0 .432.185.802.43.802.247 0 .43-.37.43-.802 0-.431-.183-.801-.43-.801-.245 0-.43.37-.43.801zM46.04 12.235c0 .432.184.802.43.802s.43-.37.43-.802c0-.431-.184-.801-.43-.801s-.43.37-.43.801zM54.953 16.8c0 .063.614 1.358 1.413 1.728l.062-.925s-.738-.124-1.475-.802z"/>
    <path fill="#EAAD91" d="M55.752 13.783s1.72-2.344 2.95-.493c1.045 1.48-.922 5.427-2.95 4.07v-3.577z"/>
    <path fill="#122052" d="M55.998 16.68c.061 0 .184-.062.184-.186.184-1.727 1.66-2.344 1.721-2.405.062-.062.123-.123.123-.247-.061-.062-.123-.123-.246-.123-.061 0-1.72.74-1.905 2.652-.062.185 0 .247.123.308z"/>
    <path fill="#122052" d="M57.657 15.568c.062 0 .123 0 .123-.061.062-.062.062-.185 0-.247-.061-.062-.676-.555-1.23-.432-.122 0-.122.124-.122.185 0 .124.123.124.184.124.307-.062.8.246.922.37 0 .061.062.061.123.061zM48.252 14.397c.123 0 .185-.062.185-.185s-.062-.185-.184-.185c-.677 0-.984-.37-1.045-.493.676-1.48 1.413-2.9 1.413-2.961.062-.062 0-.185-.061-.247-.062-.061-.185 0-.246.062 0 0-.738 1.542-1.475 3.022v.123c0 .124.369.864 1.413.864z"/>
    <path fill="#DE7061" d="M59.317 10.575L57.165 8.6l-.307-.247-.615-.555c-4.364-2.343-9.958-2.343-9.958-2.343s1.291-4.318 6.516-4.256c1.906 0 3.442.555 4.549 1.418.184.124.369.309.553.432 1.045.987 1.598 2.159 1.783 3.392.491 2.714-.37 4.133-.37 4.133z"/>
    <path fill="#BD493F" d="M57.166 8.596l-.308-.247c.922-.925 1.23-2.22 1.045-3.885-.123-.74-.307-1.357-.492-1.85.185.123.37.308.554.431.122.37.245.864.307 1.357.246 1.727-.123 3.207-1.106 4.194zM50.465 2.185s1.967-.555 4.488.74l-.492 1.418s-2.459-.986-4.18-1.048l.184-1.11z"/>
    <path fill="#BD493F" d="M44.196 6.934S38.233 3.17 41.367.766c3.135-2.405 10.45 1.11 14.752 6.97 0 0-8.298-3.948-11.924-.802z"/>
    <path fill="#FFBE9D" d="M50.404 54.73l.369.247.369.247.676.431c.43.309.922.555 1.352.864.922.555 1.844 1.048 2.766 1.603 1.906.987 3.811 1.974 5.963 2.776 1.045.37 2.151.74 3.38 1.048 1.168.247 2.46.494 3.934.494.738 0 1.476-.062 2.336-.247.8-.185 1.721-.432 2.582-.863.43-.247.86-.494 1.29-.802.185-.124.37-.309.615-.494.123-.061.185-.185.308-.246l.061-.062c.062-.062.123-.123.123-.185.123-.123.185-.247.307-.308.185-.185.308-.432.43-.617.062-.124.124-.185.185-.309.062-.061.062-.185.123-.246l.062-.124.061-.123c0-.062.061-.185.061-.247.062-.123.062-.308.123-.431 0-.124.062-.247.062-.37.061-.432.061-.802.061-1.11 0-.31 0-.556-.061-.803 0-.246-.061-.431-.061-.616-.124-.802-.246-1.357-.43-1.974-.185-.617-.308-1.11-.492-1.665-.37-1.049-.677-2.097-1.107-3.084-.553-1.419-1.106-2.776-1.66-4.07l-.553-1.296-.184-.37c-.8-1.85-1.66-3.7-2.52-5.551l-1.291-2.775-.676-1.357-.677-1.419c-1.229-2.467-4.18-3.454-6.638-2.282-2.459 1.234-3.442 4.194-2.274 6.661 0 .062.061.123.061.185h-.061l.676 1.295.676 1.296c.43.863.922 1.726 1.352 2.59.8 1.542 1.537 3.022 2.274 4.564.123.247.246.432.308.679.307.555.553 1.171.799 1.727.553 1.171 1.045 2.343 1.537 3.515.368.864.737 1.727.983 2.529v.061c-.369 0-.738-.061-1.106-.184-.738-.124-1.537-.37-2.398-.617-1.66-.555-3.319-1.234-4.979-2.097-.799-.432-1.66-.864-2.458-1.295-.43-.247-.8-.432-1.23-.679l-.614-.37-.554-.308-.123-.062c-1.905-1.172-4.425-.617-5.593 1.295-.86 1.912-.369 4.317 1.475 5.551z"/>
    <path fill="#E2806D" d="M64.419 44.989c.123.246.246.431.307.678.308.555.553 1.172.8 1.727l8.42-4.009-.553-1.295-8.974 2.899z"/>
    <path fill="#EAAD91" d="M44.688 50.599c1.414 2.097 4.794 2.59 4.794 2.59 2.766-.062 4.057-2.035 4.61-3.392.308-.74.43-1.542.246-2.282-.553-2.22 1.045-5.613-.123-6.353-.922-.555-2.274 3.454-2.274 3.454s-3.32-3.207-4.057-3.269c-.737-.062-1.352.987-1.106 1.789 0 0-1.721.493-1.291 2.22 0 0-1.352.617-1.107 2.22 0 0-.676.186-.676 1.357-.061.432.984 1.666.984 1.666z"/>
    <path fill="#E2806D" d="M71.734 55.289c.061 0 .123-.062.184-.123.062-.124.062-.247-.061-.309-1.291-.802-3.381-1.418-3.443-1.418-.123-.062-.245.061-.307.123-.061.123.062.247.123.308 0 0 2.09.617 3.32 1.419h.184z"/>
    <path fill="#E2806D" d="M68.599 53.869c.061 0 .061 0 .123-.062.86-.555 2.397-.432 2.397-.432.123 0 .246-.061.246-.185 0-.123-.061-.246-.184-.246-.062 0-1.721-.124-2.705.493-.123.062-.123.185-.061.309 0 .123.122.123.184.123z"/>
    <path fill="#33062B" d="M56.49 49.059s-1.476 4.379-4.303 6.784c-.615 0-1.353-.493-1.721-.987 0 0 2.889-2.529 4.425-6.97.677.124 1.23.556 1.599 1.173z"/>
    <path fill="#33062B" d="M52.31 50.043c-.738 1.11-.308 2.652.86 3.392 1.168.74 2.705.432 3.442-.678.738-1.11.308-2.652-.86-3.392-1.168-.679-2.705-.432-3.442.678z"/>
    <path fill="#fff" d="M53.54 52.885c.86.555 1.966.308 2.458-.493.492-.802.246-1.913-.615-2.468-.86-.555-1.967-.308-2.459.494-.491.863-.245 1.912.615 2.467z"/>
    <path fill="#891A1C" d="M57.965 31.912c0 .185-.062.37-.062.555-.246 4.75 5.47 14.248 5.47 14.248l.738-.309.308-.123 4.856-1.912.307-.123 5.286-2.097c-.307-.987-.676-2.036-1.72-4.256-.062-.185-.185-.37-.247-.555-.614-1.234-1.352-2.837-2.397-4.873-.738-1.48-1.414-2.467-2.151-3.207-.062-.062-.185-.123-.246-.247-.43-.431-.922-.801-1.475-1.11-1.906-1.11-4.18-1.172-6.024-.061-1.107 1.233-1.967 2.59-2.643 4.07z"/>
    <path fill="#3E3B3A" d="M63.435 46.965h.123c.123-.062.123-.186.123-.309l-4.917-9.251c-.062-.124-.185-.124-.308-.124-.123.062-.123.185-.123.309l4.856 9.19c.062.123.123.184.246.184z"/>
    <path fill="#3E3B3A" d="M59.747 39.931c.123 0 .184-.061.246-.184 0-.124-.062-.247-.184-.247l-1.476-.309c-.123 0-.246.062-.246.185 0 .124.062.247.185.247l1.475.309c-.061 0-.061 0 0 0z"/>
</svg>
