<svg xmlns="http://www.w3.org/2000/svg" width="24" height="24" fill="none" viewBox="0 0 24 24">
    <path fill="#fff" fill-rule="evenodd" d="M12 24c6.627 0 12-5.371 12-12S18.627 0 12 0 0 5.371 0 12s5.373 12 12 12zm5.709-15.93c.148.383.251.82.28 1.457l.022.68c.007.352.008.816.008 1.793l-.006 1.574c-.006.356-.015.57-.03.899-.028.64-.13 1.074-.278 1.457-.18.468-.47.879-.839 1.203-.267.234-.577.422-.917.555-.38.144-.818.25-1.456.277-.64.027-.844.035-2.473.035-.985 0-1.449-.004-1.803-.012-.233-.004-.417-.011-.67-.023-.638-.027-1.073-.133-1.456-.277-.399-.153-.762-.387-1.062-.692-.304-.3-.542-.664-.694-1.066-.058-.149-.11-.305-.151-.48-.066-.274-.11-.587-.127-.977-.016-.352-.025-.575-.03-.977L6.02 12c0-1.629.007-1.832.038-2.473.012-.293.04-.543.082-.765.05-.262.117-.485.197-.692.1-.265.24-.515.413-.746.085-.113.178-.219.278-.316.162-.168.342-.313.536-.434.166-.101.343-.191.529-.261.38-.145.817-.25 1.455-.278l.157-.004h.153c.251-.011.479-.023.867-.027L12.022 6c1.63 0 1.833.008 2.476.04.268.01.5.034.708.07.286.05.525.12.747.206.4.149.763.387 1.063.692.306.3.54.66.693 1.062zm-1.008 7.47c.082-.212.18-.528.207-1.114.027-.633.035-.82.035-2.422 0-.856-.002-1.305-.008-1.64-.005-.29-.014-.489-.027-.782-.026-.582-.125-.902-.207-1.113-.04-.11-.09-.215-.15-.313-.081-.136-.18-.265-.297-.379-.193-.199-.43-.351-.69-.445-.21-.082-.527-.18-1.113-.207-.63-.027-.82-.035-2.424-.035-1.601 0-1.79.008-2.423.035-.584.027-.904.125-1.115.207-.092.035-.18.074-.265.121-.156.086-.297.195-.423.324-.202.196-.355.43-.45.692l-.026.066c-.038.11-.078.238-.11.41-.033.168-.059.375-.07.637l-.014.313-.017.695-.005 1.414.004 1.305c.005.504.014.726.032 1.12.005.133.015.255.028.36l.016.133c.043.289.106.48.162.621.095.262.248.496.447.691.192.2.43.352.69.446l.196.066c.076.024.164.047.266.067l.25.043.4.03.46.02.45.012 1.514.004c1.602 0 1.791-.008 2.424-.035.584-.028.904-.125 1.114-.207.523-.2.938-.617 1.14-1.14zm-4.678-6.622c-1.703 0-3.084 1.383-3.084 3.082 0 .648.2 1.25.541 1.746.18.258.396.488.643.684.524.41 1.183.656 1.9.656 1.702 0 3.082-1.383 3.082-3.086 0-1.7-1.38-3.082-3.082-3.082zm0 5.082c-1.105 0-2-.895-2-2 0-1.102.895-1.996 2-1.996 1.103 0 1.998.894 1.998 1.996 0 1.105-.895 2-1.998 2zm3.204-4.484c.398 0 .72-.32.72-.72 0-.398-.322-.718-.72-.718-.397 0-.72.32-.72.719 0 .223.103.422.264.555.123.101.283.164.456.164z" clip-rule="evenodd"/>
</svg>
