<svg xmlns="http://www.w3.org/2000/svg" width="108" height="31" fill="none" viewBox="0 0 108 31">
    <path fill="#F26F21" d="M31.203 23.622l-5.25-10.31c-2.39.551-6.056.892-10.15.892-4.093 0-7.762-.35-10.152-.892L.385 23.655c-.083.133-.154.273-.214.418-.112.267-.17.553-.171.843 0 3.182 7.077 5.761 15.804 5.761 8.726 0 15.803-2.58 15.803-5.761-.007-.463-.148-.914-.404-1.3v.006z"/>
    <path fill="#891A1C" d="M10.293 24.476c0 4.3 5.506 5.445 5.506 5.445s5.505-1.143 5.505-5.445v-3.898c0-4.3-5.505-5.445-5.505-5.445s-5.506 1.145-5.506 5.445v3.898z"/>
    <path fill="#fff" d="M15.22 23.695c-.046 0-.159 0-.313-.017v-4.107c1.208 0 1.676.752 1.676 1.214.003.11-.037.218-.112.3-.075.08-.18.13-.29.135-.082 0-.162-.026-.227-.076s-.112-.12-.133-.2c-.14.02-.27.089-.361.197-.093.108-.141.246-.137.387.001.086.02.17.057.248.037.078.09.146.155.202.066.055.142.096.225.12.082.024.169.03.254.017.66 0 .999-.598.999-1.19 0-.825-.67-1.717-2.106-1.717v-1.101h1.03c1.351 0 2.295 1.117 2.295 2.717 0 1.318-.826 2.876-3.011 2.876v-.005zm-2.634-2.076c0-.343.082-.682.242-.986.16-.304.392-.565.675-.759v3.397c-.291-.163-.531-.404-.693-.696-.162-.291-.24-.622-.224-.956zm3.35-3.873h-3.09v.226c.181.026.348.116.47.255.12.14.187.318.187.502v.73c-.387.212-.709.525-.933.905-.223.38-.34.814-.339 1.255-.013.396.083.787.277 1.132.194.345.48.63.824.823.058.033.116.066.174.093V26.3c0 .939-.311 1.28-.507 1.376v.226s1.91-.104 1.91-1.996v-1.85c.13 0 .331.014.34.014 2.345 0 4.563-.936 4.563-3.232 0-2.772-2.711-3.072-3.873-3.072l-.003-.019z"/>
    <path fill="#F26F21" d="M15.804 8.86c-7.201 0-13.04 1.073-13.04 2.397 0 1.324 5.839 2.398 13.04 2.398 7.201 0 13.04-1.074 13.04-2.398s-5.839-2.398-13.04-2.398zm5.362 3.925c.595-.138.934-.297.934-.468 0-.529-3.304-.958-7.364-.958-4.06 0-7.36.43-7.36.958 0 .03.008.058.024.082-.628-.137-.98-.294-.98-.456 0-.57 4.2-1.03 9.381-1.03s9.382.46 9.382 1.03c0 .346-1.589.655-4.017.842z"/>
    <path fill="#F1EBDF" d="M20.872 12.437c.37-.06-.71-.848-1.032-1.057-.88-.787-1.288-.297-1.266-.479.055-.454-.93-.688-1.101-.46-.064-.046-1.256-.275-1.322-.176-.082-.143-1.748-.013-1.621.132-.307-.043-.62-.026-.92.053.11-.353-1.393-.102-.867.126-.038.014-1.376.18-1.128.452-.042 0-.788.237-.766.231-.133.005-.262.049-.37.126-.109.077-.192.185-.24.309-.014.044-.04.083-.075.113-.035.03-.078.049-.124.055-.198 0-.322.344-.198.504-.226-.066-.375.151-.432.35 1.616.15 3.768.239 6.18.239 2.092 0 4.06-.066 5.66-.182 0-.217-.276-.226-.389-.336h.011z"/>
    <path fill="#FAD560" d="M10.036 11.874s.02-.14.124-.174c.105-.032.355.581.303.634-.031.036-.074.06-.121.069-.047.008-.096 0-.138-.023-.102-.06-.157-.44-.168-.506z"/>
    <path fill="#FFCA05" d="M16.874 11.435s.184-.022.242.055c.058.077-.677.443-.751.416-.074-.028-.168-.102-.105-.201.187-.126.395-.22.614-.275v.005zM18.27 10.65s.183-.022.243.055-.677.443-.754.413c-.077-.03-.165-.1-.102-.198.187-.127.395-.22.614-.275v.005zM19.335 10.657s.182-.022.24.052c.058.074-.677.446-.752.416-.074-.03-.165-.1-.105-.201.188-.127.397-.22.617-.276v.009z"/>
    <path fill="#FFCA05" d="M18.94 10.535s.15.101.145.2c-.005.1-.804-.118-.84-.19-.035-.071-.057-.184.053-.217.224.031.441.101.641.207zM17.533 11.787s.181-.022.24.055c.057.077-.678.443-.752.415-.075-.027-.168-.101-.105-.2.188-.127.397-.22.617-.276v.006z"/>
    <path fill="#FAD560" d="M11.47 11.146s-.08-.129 0-.2c.08-.072.736.366.722.432-.005.023-.014.046-.026.066-.013.02-.03.037-.05.05-.02.014-.042.024-.065.029-.024.005-.048.005-.071 0-.14-.013-.452-.322-.507-.377h-.003zM12.811 10.567s-.08-.132 0-.204c.08-.071.738.367.724.435-.01.048-.038.09-.078.117-.04.027-.089.037-.136.03-.138-.015-.45-.323-.504-.378h-.006zM11.257 11.451s-.077-.13 0-.2c.077-.072.738.365.724.431-.01.048-.038.09-.078.117-.04.027-.09.037-.137.03-.137-.015-.451-.323-.506-.378h-.003z"/>
    <path fill="#FFCA05" d="M11.678 11.623s-.132-.08-.097-.176c.036-.096.826-.016.84.05.014.046.009.095-.014.137-.023.043-.061.074-.107.088-.212.01-.424-.024-.622-.099zM19.842 12.767c.005.03.005.06 0 .088h-.245c-.165-.16-.38-.457-.35-.5.027-.047.07-.082.12-.099.052-.016.107-.013.156.01.126.047.303.424.333.49l-.014.011z"/>
    <path fill="#FAD560" d="M10.472 12.412s.17-.066.275 0c.104.066-.121.231-.292.388l-.432-.03c.141-.133.296-.251.462-.352l-.013-.006zM17.13 12.218s.033-.149.152-.17c.118-.023.322.66.259.71-.038.033-.085.053-.134.057-.05.004-.1-.008-.142-.035-.104-.077-.124-.488-.124-.55l-.01-.012z"/>
    <path fill="#FFCA05" d="M16.274 10.329s-.145-.086-.112-.182c.033-.097.894.038.916.107.01.022.013.046.012.07-.002.023-.009.046-.02.067-.012.02-.028.038-.047.052-.02.013-.042.022-.066.026-.234-.007-.465-.054-.683-.14z"/>
    <path fill="#F7F4EE" d="M15.6 12.954c.009-.05.038-.094.08-.123.041-.029.093-.04.143-.031.102.028.196.08.275.151l-.498.003z"/>
    <path fill="#FFCA05" d="M10.516 11.291c.036-.028.078-.05.122-.063.044-.012.09-.016.137-.01.113.035-.245.715-.336.726-.09.01-.226 0-.25-.119-.025-.118.275-.473.327-.534zM12.033 12.342c.036-.029.077-.05.121-.063.045-.012.091-.016.137-.011.086.027-.096.416-.228.614l-.36-.017c0-.126.274-.462.33-.523z"/>
    <path fill="#FAD560" d="M11.276 11.8s-.025-.155.082-.207c.108-.052.59.55.551.63-.027.046-.07.08-.12.097-.05.018-.106.016-.155-.003-.135-.05-.32-.446-.353-.518h-.005z"/>
    <path fill="#FFCA05" d="M15.143 12.269s-.176-.072-.165-.171c.011-.1.944-.055.983 0 .015.019.025.04.03.064.004.024.003.048-.005.07-.007.024-.02.044-.036.061-.017.017-.038.03-.06.036-.252.018-.504-.006-.747-.069v.009zM16.762 12.551s-.083-.168 0-.236c.082-.07.633.468.724.619H17.1c-.116-.124-.225-.255-.327-.39l-.011.007z"/>
    <path fill="#F8D075" d="M16.67 11.091s.177.066.177.16-.898.072-.944 0c-.017-.015-.029-.035-.036-.056-.007-.022-.009-.045-.004-.067.004-.022.013-.043.028-.06.014-.018.032-.031.053-.04.243-.02.489-.003.727.052v.011zM15.608 11.662s.176.066.176.16c0 .093-.897.07-.944 0-.017-.016-.029-.036-.036-.057-.007-.022-.008-.044-.004-.067.004-.022.013-.043.028-.06.014-.018.032-.031.053-.04.243-.02.489-.003.727.053v.01zM19.917 11.955s.176.066.179.16c.003.093-.9.07-.947 0-.017-.016-.029-.036-.036-.057-.007-.021-.008-.044-.004-.066.004-.023.013-.044.028-.061.014-.017.032-.031.053-.04.244-.02.489-.003.727.053v.01z"/>
    <path fill="#F7F4EE" d="M17.037 10.408s.022-.187.113-.212c.09-.025.275.859.23.917-.011.019-.028.035-.047.046-.02.011-.042.017-.065.017s-.045-.006-.065-.017c-.02-.011-.036-.027-.048-.046-.078-.231-.118-.473-.118-.716v.01z"/>
    <path fill="#FFCA05" d="M15.289 10.165s-.066-.193 0-.275c.066-.083.644.624.63.712-.014.089-.069.204-.19.16-.121-.044-.394-.515-.44-.597z"/>
    <path fill="#F8D075" d="M12.528 10.516s.178.016.206.101c.028.086-.804.276-.861.237-.058-.038-.119-.13-.023-.212.218-.077.447-.12.678-.126z"/>
    <path fill="#FFCA05" d="M18.185 10.676s-.105-.124-.044-.207c.06-.082.798.276.796.355 0 .024-.004.048-.013.07-.009.022-.022.042-.04.059-.016.016-.037.03-.06.038-.022.008-.045.011-.07.01-.208-.072-.401-.182-.569-.325zM14.216 10.61c-.185-.18-.394-.332-.623-.451-.14-.02-.165.085-.156.162.008.077.8.606.85.523.05-.083-.072-.234-.072-.234zM13.285 10.934s.184.016.215.099c.03.082-.826.275-.892.223-.066-.053-.124-.124-.025-.201.226-.076.463-.117.702-.121z"/>
    <path fill="#E5DED1" d="M11.807 12.874c.12-.108.26-.191.413-.245.096.014.223.069.19.179-.017.036-.043.066-.077.088l-.526-.022z"/>
    <path fill="#FFCA05" d="M10.898 12.548s-.225.063-.333 0c-.107-.064.68-.653.79-.633.11.019.256.077.218.203-.039.127-.578.394-.675.44v-.01zM16.594 12.379c-.1.041-.116.226-.116.226 0 .044.02.195.047.341h.316c-.063-.253-.184-.592-.247-.564v-.003zM13.246 11.393s.036-.14.143-.162c.108-.022.276.608.22.658-.034.033-.079.053-.126.058-.047.004-.095-.007-.135-.033-.094-.072-.102-.452-.102-.52zM18.645 11.318s.074.135 0 .2c-.074.067-.735-.404-.718-.47.012-.047.043-.088.085-.112.043-.025.093-.032.14-.02.14.022.446.344.499.402h-.006zM13.038 12.645s-.149.107-.25.074c-.103-.033.305-.705.393-.718.088-.014.206 0 .226.112.027.16-.295.515-.37.532z"/>
    <path fill="#FFCA05" d="M13.36 12.73s-.169.075-.276.02c-.107-.056.454-.623.55-.617.097.005.201.047.196.16 0 .162-.4.437-.474.437h.003z"/>
    <path fill="#FAD560" d="M18.163 12.216s.099-.143.225-.138c.127.006.047.763-.036.799-.048.025-.104.034-.158.024-.055-.01-.104-.036-.142-.077-.071-.107.083-.534.11-.608z"/>
    <path fill="#FFCA05" d="M14.901 10.454s-.2-.024-.23-.124c-.031-.099.913-.291.98-.24.065.053.131.155.021.243-.248.083-.509.123-.77.121z"/>
    <path fill="#fff" d="M14.95 11.134s-.178-.036-.25.036c-.071.071.592.495.672.47.08-.024.184-.085.14-.19-.044-.104-.484-.275-.55-.316h-.011z"/>
    <path fill="#FFCA05" d="M14.174 12.62s0-.121.088-.135c.088-.014.276.275.355.46h-.31c-.052-.104-.096-.212-.133-.322v-.003zM11.498 11.06s.047-.143-.044-.2c-.091-.058-.647.495-.62.55.02.046.057.082.102.101.046.02.097.023.143.007.135-.039.375-.402.419-.466v.009z"/>
    <path fill="#fff" d="M13.286 10.497s0-.168.071-.217c.072-.05.41.658.375.724-.036.066-.116.143-.212.08-.113-.18-.192-.379-.234-.587z"/>
    <path fill="#FFCA05" d="M15.386 10.81s0-.163.115-.177c.116-.014.364.763.314.812-.016.018-.035.032-.057.042-.022.01-.046.014-.07.014-.023 0-.047-.005-.069-.014-.021-.01-.041-.024-.057-.042-.097-.198-.157-.413-.176-.633v-.003zM14.769 10.547s0-.16.116-.176c.115-.016.363.766.313.812-.016.018-.035.032-.057.042-.022.01-.045.015-.07.015-.023 0-.047-.005-.068-.015-.022-.01-.042-.024-.058-.042-.097-.198-.157-.413-.176-.633v-.003zM14.917 10.146s.078-.171.017-.245c-.06-.075-.658.564-.65.644.008.08.053.181.174.143.12-.039.41-.465.46-.55v.008zM18.708 10.838s-.173-.074-.245-.013c-.072.06.573.652.652.64.08-.01.182-.054.14-.175-.04-.121-.47-.402-.55-.452h.003z"/>
    <path fill="#fff" d="M18.138 10.56s.075-.157.02-.25c-.055-.095-.642.379-.634.464.009.086.047.207.163.204.115-.003.402-.355.451-.418z"/>
    <path fill="#F8D075" d="M12.966 10.416s0-.151-.118-.184-.44.63-.388.685c.034.038.08.062.13.07.05.008.101 0 .145-.026.118-.069.212-.473.226-.55l.005.005z"/>
    <path fill="#fff" d="M18.037 12.243s.148-.097.118-.188c-.03-.09-.903.1-.928.168-.01.021-.014.044-.013.067 0 .023.007.046.019.066.01.02.027.037.046.05.02.013.041.021.064.024.24-.024.474-.088.694-.187z"/>
    <path fill="#FFCA05" d="M16.035 12.411s-.187.053-.206.146c-.02.094.88.14.939.085.057-.055.107-.156 0-.223-.242-.038-.488-.038-.73 0l-.003-.008z"/>
    <path fill="#FAD560" d="M12.663 12.452s-.195-.04-.275.039c-.08.08.259.275.498.418h.391c.011-.017.017-.038.017-.059 0-.02-.006-.041-.017-.059-.047-.116-.534-.317-.62-.35l.006.011z"/>
    <path fill="#FAD560" d="M12.589 11.74s-.058-.17-.163-.174c-.104-.002-.151.851-.088.898.017.017.038.03.06.037.024.008.048.01.071.007.024-.003.047-.01.067-.024.02-.013.037-.03.05-.05.043-.23.043-.465 0-.694h.003z"/>
    <path fill="#F8D075" d="M12.888 11.45s-.058-.171-.162-.176c-.105-.006-.152.853-.088.9.017.016.039.028.061.035.023.007.048.01.072.006.023-.003.046-.011.067-.024.02-.013.037-.03.05-.05.041-.229.041-.463 0-.691z"/>
    <path fill="#F7F4EE" d="M11.82 11.672s-.193 0-.22.093c-.028.094.878.353.941.311.02-.01.038-.024.05-.043.013-.019.02-.04.023-.063.001-.023-.003-.045-.013-.066-.01-.02-.025-.038-.043-.05-.236-.097-.485-.159-.738-.182z"/>
    <path fill="#FFCA05" d="M11.545 12.594s.173-.11.168-.217c-.006-.108-.923.112-.964.192-.041.08-.066.201.063.24.255-.03.503-.102.733-.215z"/>
    <path fill="#fff" d="M17.235 11.318s-.173-.074-.162-.17c.01-.097.941-.055.982 0 .015.018.026.04.03.064.005.023.003.047-.004.07-.007.023-.02.044-.036.06-.017.018-.038.03-.061.037-.252.017-.505-.006-.749-.069v.008z"/>
    <path fill="#F8D075" d="M18.78 12.14s-.183.072-.276 0c-.094-.07.517-.635.608-.624.091.01.218.058.196.176-.022.118-.454.394-.529.44v.009z"/>
    <path fill="#fff" d="M15.826 10.53s0 .137.11.175c.11.039.396-.537.347-.589-.03-.037-.07-.063-.116-.074-.046-.012-.094-.008-.138.01-.104.053-.187.414-.203.477z"/>
    <path fill="#FFCA05" d="M20.208 11.735s.027.165-.086.223c-.113.057-.627-.603-.583-.672.03-.05.075-.086.128-.105.054-.018.113-.017.166.003.144.052.342.476.375.55zM11.027 12.18s.028.165-.085.223c-.113.058-.627-.603-.583-.672.029-.049.075-.086.128-.104.054-.019.113-.018.166.002.143.053.341.476.374.55z"/>
    <path fill="#fff" d="M14.502 10.263s.203.044.22.149c.016.104-.975.22-1.035.16-.021-.014-.039-.033-.05-.055-.013-.021-.019-.046-.019-.071 0-.025.006-.05.018-.071.012-.022.03-.04.05-.054.263-.061.533-.08.802-.058h.014z"/>
    <path fill="#FFCA05" d="M10.017 12.019s.193-.077.295 0c.102.077-.55.68-.65.669-.099-.011-.228-.064-.206-.19.022-.127.481-.419.55-.468l.011-.011z"/>
    <path fill="#fff" d="M17.334 11.874s-.165-.097-.127-.204c.038-.107 1.002.044 1.027.118.01.025.014.052.012.079-.002.026-.01.052-.022.076-.013.023-.03.043-.052.059s-.047.026-.073.031c-.263-.008-.522-.062-.765-.16z"/>
    <path fill="#F8D075" d="M15.435 10.613s.179.028.184.152c.006.124-.886.385-.938.322-.035-.045-.052-.101-.046-.158.005-.056.033-.108.076-.145.227-.104.473-.162.724-.17zM17.16 10.695s.18.03.185.152c.006.12-.886.385-.936.322-.035-.045-.052-.101-.047-.158.006-.056.034-.108.077-.145.227-.104.472-.162.722-.17zM18.801 11.52s.177.03.185.15c.008.122-.89.386-.939.323-.035-.045-.051-.101-.045-.158.005-.056.032-.108.075-.145.228-.104.474-.162.724-.17z"/>
    <path fill="#F7F4EE" d="M9.993 12.55c.081-.065.185-.094.289-.083.052.017 0 .154-.055.314l-.394-.033c.069-.09.135-.17.16-.198z"/>
    <path fill="#fff" d="M19.608 11.63s-.041.173-.179.204c-.137.03-.38-.782-.305-.84.045-.041.102-.066.163-.071.06-.005.121.01.173.043.123.094.145.579.148.664z"/>
    <path fill="#F7F4EE" d="M16.67 12.951c.122-.023.246-.023.367 0h-.366z"/>
    <path fill="#FFCA05" d="M18.876 12.488s.223-.027.297.069c.044.052-.228.22-.49.35l-.595.016c-.005-.036.004-.072.025-.102.075-.121.658-.303.763-.333z"/>
    <path fill="#fff" d="M20.89 12.441s.226-.027.3.066c.036.047-.162.18-.385.298l-.702.04c.001-.025.01-.05.025-.07.074-.125.658-.303.762-.334z"/>
    <path fill="#FFCA05" d="M20.89 12.441s.226-.027.3.066c.036.047-.162.18-.385.298l-.702.04c.001-.025.01-.05.025-.07.074-.125.658-.303.762-.334zM15.531 12.668s.201.02.232.116c0 .04-.163.107-.367.165h-.68c-.005-.025-.002-.051.008-.075.01-.023.026-.043.048-.057.244-.088.5-.137.76-.143v-.006z"/>
    <path fill="#FFCA05" d="M20.296 12.127s-.115-.14-.047-.231c.07-.091.892.32.89.399 0 .026-.004.053-.014.077s-.025.047-.044.065c-.019.018-.041.033-.066.042-.025.009-.051.013-.077.012-.235-.08-.453-.204-.642-.364zM14.697 12.36c-.205-.202-.44-.373-.696-.506-.157-.022-.185.097-.174.185.011.088.898.677.95.586.052-.09-.08-.275-.08-.275v.01zM16.38 12.86c-.206-.203-.44-.373-.697-.506-.154-.022-.185.097-.174.185.157.163.338.3.537.407h.388c-.017-.028-.035-.056-.055-.082v-.003z"/>
    <path fill="#E5DED1" d="M18.793 12.898c-.025-.025-.036-.045-.033-.056.014-.052.048-.098.095-.126.047-.027.103-.036.156-.022.109.038.208.101.289.184l-.507.02z"/>
    <path fill="#FFCA05" d="M15.936 12.043s-.165.124-.275.085c-.11-.038.344-.79.44-.803.097-.014.235 0 .254.126.033.18-.33.576-.413.592h-.006z"/>
    <path fill="#FAD560" d="M16.847 10.736s-.225-.03-.258-.14c-.033-.11 1.02-.328 1.1-.276.08.053.147.171.026.276-.28.09-.572.135-.865.135l-.003.005zM10.76 12.485s-.156-.063-.228.036c-.025.038.044.156.143.289l.496.027c-.126-.13-.264-.247-.41-.352z"/>
    <path fill="#FFCA05" d="M19.825 12.489s-.209.027-.245.129c-.035.102.35.165.645.215l.39-.023c.015-.012.027-.028.035-.045.008-.018.012-.037.012-.056 0-.02-.004-.039-.012-.056-.008-.018-.02-.034-.034-.046-.255-.082-.52-.122-.788-.118h-.003z"/>
    <path fill="#fff" d="M13.698 12.206s0-.19.082-.243c.083-.052.455.735.416.81-.038.074-.127.162-.237.088-.11-.075-.24-.567-.275-.655h.014z"/>
    <path fill="#FFCA05" d="M14.221 11.051s.017-.179.13-.195c.112-.017.407.853.352.908-.018.018-.04.033-.063.043-.024.01-.05.015-.075.015-.025 0-.05-.005-.074-.015-.024-.01-.045-.025-.063-.043-.111-.222-.178-.463-.199-.71l-.008-.003zM15.234 11.778s.085-.193.016-.275c-.069-.083-.738.633-.73.72.009.089.061.205.196.16.135-.043.46-.52.518-.605z"/>
    <path fill="#F8D075" d="M16.037 12.697s.086-.193.017-.275c-.069-.083-.41.294-.606.531h.408c.085-.116.157-.22.181-.256zM16.06 10.141s.085-.192.016-.275c-.069-.083-.738.633-.727.724.011.09.06.204.196.16.135-.044.457-.523.514-.606v-.003z"/>
    <path fill="#fff" d="M14.348 10.245s-.163-.138-.259-.097c-.096.042.4.887.487.903.088.017.212 0 .21-.143-.11-.243-.258-.467-.438-.663z"/>
    <path fill="#FFCA05" d="M17.937 12.855s-.16-.11-.275-.06c-.028 0-.022.06 0 .131h.335l-.06-.063v-.008z"/>
    <path fill="#F7F4EE" d="M13.302 11.708s0-.171-.135-.207c-.135-.035-.493.708-.433.768.04.043.092.07.149.08.057.009.115-.002.165-.03.132-.077.237-.532.254-.611z"/>
    <path fill="#fff" d="M10.69 12.24s0 .179.14.217c.14.039.52-.746.457-.809-.042-.044-.097-.073-.157-.082-.06-.01-.12 0-.174.03-.137.08-.247.55-.275.644h.008zM13.987 11.308s-.22-.044-.311.044c-.09.088.735.611.826.583.09-.027.225-.107.173-.236-.052-.13-.6-.353-.696-.391h.008z"/>
    <path fill="#FFCA05" d="M13.783 12.625s-.066-.19-.181-.195c-.061 0-.105.25-.122.504h.333c0-.144-.024-.276-.03-.317v.008z"/>
    <path fill="#fff" d="M19.865 12.072s-.196-.08-.185-.19c.011-.11 1.057-.06 1.101 0 .017.02.029.045.034.071.005.027.004.054-.004.08-.008.025-.022.048-.041.067-.02.02-.043.033-.069.04-.277.017-.556-.01-.825-.08l-.011.012zM19.12 12.815s-.203.08-.307 0c-.105-.08.58-.713.682-.702.102.011.242.067.218.199-.025.132-.507.44-.592.492v.011z"/>
    <path fill="#F8D075" d="M16.676 12.295s0 .151.12.195c.122.044.444-.6.389-.66-.032-.04-.076-.068-.126-.08-.05-.013-.102-.01-.15.01-.118.059-.211.463-.225.535h-.008zM11.831 11.203s0 .152.121.196c.121.044.443-.6.388-.661-.033-.039-.077-.066-.126-.078-.05-.013-.102-.01-.149.01-.118.06-.212.462-.226.533h-.008zM17.017 11.401s0 .155.121.196c.121.041.443-.598.388-.658-.032-.04-.076-.068-.126-.08-.05-.013-.102-.009-.149.011-.118.058-.212.46-.226.531h-.008zM18.414 11.496s0 .151.124.195c.124.044.443-.6.388-.66-.033-.039-.077-.066-.127-.078-.049-.013-.1-.01-.148.009-.119.06-.212.462-.229.534h-.008zM18.443 12.54s0 .152.121.196c.122.044.444-.6.389-.66-.033-.04-.077-.068-.127-.08-.05-.013-.102-.01-.149.01-.118.061-.212.463-.225.535h-.009z"/>
    <path fill="#FFCA05" d="M16.181 10.493c.091-.017.776.35.691.407-.088.032-.183.039-.275.02-.083-.028-.55-.19-.584-.276-.033-.085.08-.135.168-.151zM18.413 11.637s.121-.119.107-.215c-.013-.096-.677.187-.702.262-.024.074-.033.19.066.214.1.025.466-.217.529-.261zM14.127 10.145s.121-.119.107-.215c-.013-.096-.68.187-.704.261-.025.075-.033.19.066.215.099.025.468-.217.531-.261zM15.66 12.488s.121-.118.108-.214c-.014-.097-.68.187-.705.261-.025.075-.033.19.066.215.1.025.465-.218.531-.275v.013z"/>
    <path fill="#FAD560" d="M17.466 10.67s.022-.184.115-.209c.094-.024.276.857.232.917-.044.06-.143.116-.226 0-.078-.232-.119-.474-.121-.718v.01z"/>
    <path fill="#FFCA05" d="M19.468 12.167c.036-.085.2-.104.2-.104.206.001.409.039.6.11.078.077 0 .162-.046.206-.047.044-.787-.13-.754-.212zM14.053 10.912s.03-.168-.047-.214c-.077-.047-.51.655-.482.72.006.022.017.041.032.057.014.016.033.028.053.036.02.007.043.01.064.007.022-.002.042-.01.06-.022.14-.175.247-.373.32-.584zM12.335 11.916s.03-.165-.046-.214c-.078-.05-.51.655-.48.72.006.022.016.042.03.058.015.016.033.029.053.037.02.008.042.01.064.008.021-.002.042-.01.06-.022.14-.176.248-.374.32-.587zM14.098 11.688s.096-.14.044-.215c-.053-.075-.73.39-.733.462-.002.072.033.171.16.157.127-.014.468-.344.528-.404z"/>
    <path fill="#fff" d="M15.41 12.24s-.06-.178-.165-.19c-.105-.01-.127.81-.07.898h.246c.036-.233.03-.47-.017-.702l.006-.005z"/>
    <path fill="#FFCA05" d="M19.18 11.816s0-.168-.09-.209c-.09-.041-.275.686-.234.749.041.063.118.132.193.06.077-.19.122-.394.132-.6zM16.357 12.325s.044.163.138.196c.093.033.156-.686.101-.743-.055-.058-.151-.119-.217-.044-.066.074-.03.514-.022.591z"/>
    <path fill="#FAD560" d="M11.991 11.511c.01.072.036.14.077.199.066.093.51-.573.496-.661-.014-.088-.08-.102-.19-.077-.11.025-.341.462-.383.55v-.01z"/>
    <path fill="#fff" d="M16.936 11.594s.156.082.256.022c.099-.06-.383-.68-.471-.675-.088.006-.212.047-.212.171 0 .124.36.427.427.482zM13.458 10.763s.157.083.259.025c.101-.058-.386-.68-.474-.675-.088.006-.212.047-.212.171 0 .124.364.427.427.479z"/>
    <path fill="#F48020" d="M11.988 12.214c-.008 0-.016-.004-.022-.01-.005-.007-.008-.015-.008-.023v-.025c.008-.073-.006-.147-.04-.212-.035-.066-.088-.12-.153-.154-.042-.02-.078-.048-.108-.083s-.05-.076-.063-.12c-.005-.042.005-.084.028-.119.002-.003.006-.006.01-.008.003-.002.008-.003.012-.003l.012.003.01.008.007.01c.002.004.002.008.002.012s0 .008-.002.012l-.007.01c-.005.011-.007.023-.007.034 0 .012.002.024.007.035.012.035.03.066.054.094.024.027.053.05.086.066.075.04.136.101.176.176.04.075.056.16.047.245v.022c0 .009-.003.017-.01.023-.006.006-.014.01-.023.01l-.008-.003zM20.035 12.352c-.005 0-.009 0-.012-.003-.004-.001-.008-.004-.01-.007-.004-.003-.006-.007-.007-.01l-.002-.013c-.003-.02-.008-.041-.016-.06-.036-.074-.044-.159-.022-.238.021-.079.072-.147.14-.192.033-.016.063-.037.088-.064.024-.027.043-.059.056-.093.007-.022.007-.046 0-.069-.004-.003-.006-.007-.008-.01l-.002-.013c0-.005 0-.009.002-.013s.004-.008.008-.01c.002-.004.006-.006.01-.008l.011-.002c.005 0 .009 0 .012.002.004.002.008.004.01.007.024.035.033.078.025.119-.012.044-.033.085-.062.12-.029.035-.065.063-.106.083-.168.102-.123.25-.093.358.01.025.017.05.019.077 0 .01-.003.018-.01.024-.006.006-.014.01-.023.01l-.008.005zM17.624 12.623c-.03.001-.06-.008-.086-.024l-.007-.01-.002-.012c0-.005 0-.009.002-.012.002-.004.004-.008.007-.01.006-.006.014-.009.022-.009.009 0 .016.003.022.009.012.004.024.007.036.007.012 0 .025-.003.036-.007.067-.03.12-.084.149-.152.034-.077.092-.142.164-.187.072-.044.155-.066.24-.063h.034l.01.006c.004.003.006.006.008.01.002.003.003.007.003.011v.013c-.001.004-.003.008-.006.011-.002.004-.005.006-.01.008-.003.002-.007.004-.011.004h-.025c-.074-.003-.147.016-.21.055-.062.038-.112.095-.142.162-.018.043-.044.08-.077.112-.033.031-.073.055-.116.07h-.036l-.005.008zM13.306 10.64c-.029 0-.058-.01-.082-.026l-.007-.01c-.002-.003-.003-.008-.003-.012l.003-.012.007-.01c.006-.005.014-.008.022-.008.008 0 .016.003.022.008.023.01.049.01.071 0 .053-.014.102-.066.15-.151.034-.078.092-.143.164-.188.073-.044.157-.066.242-.063h.023c.008 0 .015.004.021.01.006.005.01.013.012.02 0 .005 0 .01-.002.013-.001.004-.003.008-.006.01-.003.004-.007.006-.01.008-.004.002-.008.003-.013.003h-.022c-.074-.004-.147.015-.21.054-.064.039-.114.096-.145.163-.017.042-.042.08-.075.112-.033.031-.072.055-.115.07h-.038l-.009.008zM15.598 11.007h-.034c-.02-.003-.04-.011-.057-.022-.018-.012-.033-.026-.044-.044-.003-.003-.006-.006-.007-.01l-.003-.012.003-.012c.001-.004.004-.007.007-.01l.01-.007c.003-.002.007-.002.012-.002.004 0 .008 0 .012.002l.01.007c.017.018.039.03.063.036.036 0 .072-.007.106-.02.033-.014.064-.034.09-.06.061-.058.14-.096.223-.11.084-.013.17 0 .247.036h.022c.007.004.011.01.014.017.002.007.002.015 0 .022-.003.007-.008.013-.014.017-.007.004-.014.005-.022.004h-.022c-.067-.032-.142-.043-.215-.032-.073.011-.141.045-.195.096-.059.054-.135.088-.215.096l.008.008zM10.04 12.376c-.038-.002-.075-.014-.106-.035-.031-.02-.057-.05-.074-.083-.004-.003-.007-.007-.009-.012l-.003-.015c0-.005.002-.01.004-.015.003-.004.006-.008.01-.01.005-.004.01-.006.015-.006.005-.001.01 0 .015.001l.013.008.008.013c.06.083.107.152.34 0 .065-.047.145-.069.225-.06.08.009.153.047.205.107.003.003.005.007.006.011v.012l-.003.012-.008.01-.011.005h-.012l-.012-.003-.01-.008c-.042-.048-.101-.078-.165-.083-.064-.006-.128.013-.178.052-.074.052-.16.085-.25.094v.005zM15.63 11.778c-.004 0-.008 0-.012-.002l-.01-.008c-.003-.003-.005-.007-.006-.01-.002-.004-.002-.009-.002-.013v-.033c.009-.074-.005-.148-.04-.214-.035-.065-.09-.118-.155-.152-.04-.02-.077-.049-.106-.084-.029-.035-.05-.076-.062-.12-.004-.02-.004-.041 0-.062.005-.02.014-.04.027-.056.006-.007.013-.011.021-.012.008-.001.017.001.023.006.007.005.011.013.012.021.001.008-.001.017-.006.023-.005.012-.008.024-.008.036 0 .012.003.025.008.036 0 .052.058.105.14.157.075.04.136.103.175.178.04.076.057.161.048.246v.02c0 .008-.003.016-.01.022-.006.007-.014.01-.023.01l-.014.011zM19.386 12.064c-.01 0-.018-.003-.024-.01-.006-.006-.01-.014-.01-.023v-.022c.009-.073-.005-.147-.04-.213-.034-.065-.087-.118-.152-.153-.041-.02-.078-.049-.107-.084-.03-.035-.051-.076-.064-.12-.006-.042.004-.085.028-.12.003-.004.006-.006.01-.008s.009-.002.013-.002.009 0 .013.002l.01.007.007.01.003.012c0 .005-.001.008-.003.012-.001.004-.004.008-.007.01-.007.023-.007.047 0 .07.012.034.03.066.055.093.024.027.053.05.086.066.075.04.136.101.175.176.04.075.057.16.048.245v.022c0 .004 0 .008-.002.012-.001.005-.003.008-.006.011l-.01.008-.012.002-.011-.003zM13.205 12.576c-.006 0-.012-.002-.018-.005-.005-.003-.01-.008-.012-.014-.003-.008-.002-.017.001-.024.004-.008.01-.014.018-.017.014-.007.029-.012.044-.014.058-.014.127-.028.165-.234.019-.151.085-.293.188-.405.003-.002.006-.005.01-.006l.012-.002c.004 0 .008.002.012.004.004.001.007.004.01.007l.006.01.002.013c0 .004-.002.008-.004.011-.001.004-.004.007-.007.01-.09.104-.148.232-.165.369-.044.228-.127.275-.215.275h-.036l-.01.022zM17.02 11.707c-.004 0-.008-.002-.012-.004l-.01-.01-.005-.011v-.013c.013-.046.043-.086.082-.113.052-.026.109-.04.166-.044.058-.003.116.005.17.024.24.061.275.036.311 0 .02-.016.043-.028.069-.032l.102-.014c.082 0 .21-.02.21-.066 0-.005 0-.009.002-.013.001-.004.004-.008.007-.01.003-.004.007-.006.01-.008.005-.002.009-.002.013-.002.008 0 .016.004.022.01.005.006.008.014.008.023 0 .107-.148.118-.275.129h-.093c-.017.005-.033.014-.047.025-.055.038-.116.06-.36 0-.09-.035-.188-.035-.276 0-.027.016-.047.042-.055.071-.001.008-.005.014-.01.02-.006.004-.013.007-.02.008l-.009.03zM15.726 12.86c-.008 0-.015-.003-.021-.008-.006-.005-.01-.013-.012-.02 0-.009.003-.017.008-.023.005-.007.012-.011.02-.013.074 0 .08-.05.077-.176v-.066c0-.105.066-.14.138-.177.053-.026.102-.06.145-.099.034-.043.056-.094.064-.148.008-.054.001-.11-.02-.16-.002-.008-.002-.016 0-.024.004-.008.01-.014.017-.017l.012-.003c.004 0 .009 0 .012.002.004.002.008.004.01.007.004.003.006.006.007.01.027.062.035.13.025.197-.01.067-.039.13-.082.18-.049.045-.104.082-.163.11-.071.039-.102.058-.102.122v.066c0 .11 0 .223-.132.24h-.003zM19.322 12.807H19.3c-.004 0-.008-.002-.012-.004-.003-.002-.006-.005-.008-.009-.003-.003-.004-.007-.005-.01v-.013c0-.004.002-.008.004-.012s.004-.007.008-.01l.011-.005h.013s.151.019.236-.223c.013-.039.023-.079.03-.119.026-.107.05-.217.163-.275.008-.003.016-.003.024 0s.014.01.018.017c.003.008.003.017 0 .025s-.01.014-.017.019c-.083.035-.102.115-.124.22-.01.043-.021.085-.036.127-.082.242-.228.275-.275.275l-.008-.003zM11.636 12.852c-.077.002-.153-.018-.22-.058-.068-.045-.118-.113-.14-.192v-.014l.005-.011.01-.01.012-.004h.012l.012.005c.003.002.006.005.008.009.002.003.004.007.004.01.018.063.057.116.11.152.054.028.113.045.174.05.06.005.121-.003.179-.022.225-.055.275-.044.322-.022.007.002.015.002.022 0l.012.003c.004.002.007.005.01.009l.005.01v.014l-.003.012-.008.01-.012.005h-.013c-.013.003-.027.003-.04 0-.025 0-.059-.027-.276.025-.058.016-.118.024-.179.025l-.005-.006zM14.735 12.77c-.039-.002-.077-.014-.11-.036-.004-.006-.007-.012-.007-.02 0-.007.001-.014.005-.02.005-.006.01-.01.017-.012.007-.002.014-.002.02 0 0 0 .08.052.114 0 .015-.022.027-.046.036-.072.019-.05.038-.099.082-.113.013-.006.026-.009.04-.009.014 0 .027.003.04.01.066.038.094 0 .1 0 .005-.006.013-.01.021-.01.008 0 .016.004.022.01.003.002.005.006.007.01.002.003.003.007.003.011l-.003.012-.007.01c-.01.014-.023.026-.038.035-.015.009-.032.014-.05.016-.017.003-.034.001-.05-.004-.018-.005-.033-.013-.046-.025h-.025c-.008 0-.033.047-.047.077-.01.031-.024.061-.041.088-.01.015-.024.026-.04.034-.016.008-.033.011-.051.01l.008-.002zM10.72 11.716l-.012-.006c-.004-.003-.006-.007-.008-.01-.002-.004-.004-.009-.004-.013l.001-.013c.02-.065.063-.121.121-.157.063-.03.135-.036.201-.016.046.02.097.02.143.003.046-.017.084-.052.105-.097.007-.015.019-.029.033-.038.003-.003.006-.006.01-.007.003-.002.007-.003.01-.003.005 0 .008.001.012.003.004.001.007.004.01.007.002.002.005.006.006.01l.003.012c0 .004 0 .008-.003.012l-.007.01v.019c-.027.057-.075.1-.134.124-.058.023-.123.023-.182 0-.033-.014-.069-.017-.103-.01-.034.008-.066.026-.09.051-.024.025-.042.055-.052.088-.002.007-.006.012-.011.016-.006.005-.013.006-.02.006l-.03.008zM20.555 12.536c-.12-.002-.241-.014-.36-.036-.005 0-.009-.002-.013-.004-.003-.002-.007-.004-.01-.008l-.005-.011v-.013c.002-.008.007-.015.014-.02.008-.005.016-.006.025-.005.718.124.825-.14.825-.143.003-.008.008-.014.015-.018.008-.004.016-.006.024-.004l.011.005.008.01c.002.003.004.007.004.011l-.001.013s-.066.223-.523.223h-.014z"/>
    <path fill="#FFF9C1" d="M15.47.543c-.085-.088-.173-.173-.275-.253l-.038-.036.05.107c.038.07.08.138.115.21.27.484.412 1.03.41 1.585-.037.753-.352 1.466-.883 2.001-.35.35-.645.75-.876 1.187-.24.491-.326 1.044-.245 1.585.082.5.296.967.62 1.355.101.13.225.245.338.366l.138.14v-.013c.077.085.16.165.236.247l.14.146c-.043-.128-.099-.253-.164-.371-.29-.532-.433-1.13-.416-1.735.044-.734.345-1.43.85-1.965.402-.428.705-.938.89-1.495.149-.54.144-1.112-.013-1.651-.157-.539-.46-1.023-.876-1.399V.543z"/>
    <path fill="#FFF9C1" d="M16.652 7.765c-.215-.246-.369-.539-.449-.855-.08-.316-.084-.647-.011-.965.041-.187.1-.372.149-.55-.044.04-.086.081-.124.123v-.016c-.102.097-.194.204-.275.32-.174.199-.303.433-.378.685-.076.253-.098.52-.063.781.066.418.237.813.498 1.146.278.374.431.827.438 1.293-.002.359-.068.714-.195 1.05.046-.036.087-.077.123-.122.027-.021.051-.044.075-.069.042-.03.08-.066.115-.104.243-.214.427-.486.537-.79.106-.331.122-.684.045-1.023-.076-.339-.242-.651-.48-.904h-.005z"/>
    <path fill="#fff" fill-rule="evenodd" d="M97.022 19.715c0 2.012-1.576 3.174-3.797 3.174-1.575 0-2.583-.794-3.332-1.36l.18-.284c.827-1.417 1.525.652 2.971.652.956 0 1.498-.425 1.498-1.417 0-2.07-4.623-2.438-4.623-5.753 0-1.843 1.756-2.778 3.564-2.778 1.576 0 2.557.709 3.126 1.276l-.543.907c-.335-.426-1.162-1.162-2.221-1.162-.75 0-1.266.481-1.266 1.275 0 2.125 4.443 2.239 4.443 5.47zM46.887 13.74c0 2.948-2.84 3.996-5.036 3.996h-.336c0-.255 0-.652.439-.765 1.265-.34 2.195-1.162 2.195-3.146 0-2.154-.878-2.976-2.195-2.976h-.904v11.847H38.44V11.53c0-1.049-.93-1.106-.93-1.106v-.623h4.985c-.026.028 4.391-.227 4.391 3.94zM62.385 17.786l2.66 4.875h-1.498c-1.007 0-1.55-.397-1.885-1.162l-1.705-3.373v-.651h.207c.826 0 1.808-.482 1.808-2.296 0-1.445-.672-2.154-1.602-2.154h-1.085v9.636h-2.402v-9.154c0-.85-.775-.907-.775-.907v-.51h4.727c1.989 0 3.745.907 3.745 3.089 0 1.445-1.084 2.21-2.195 2.607zM70.96 20.712c-.283.369-.903.652-1.368.652-.672 0-1.524-.538-1.524-2.182 0-2.55 2.893-3.316 2.893-3.316v4.846zm-.826-8.814c-2.118 0-3.048.879-3.59 1.304l.258 1.077s1.11-1.247 2.609-1.247c.852 0 1.55.368 1.55 1.077 0 .539-.13.822-.853 1.134-1.343.566-4.365 1.332-4.365 4.393 0 2.805 2.04 3.259 2.764 3.259.956 0 1.834-.425 2.48-1.36.206.623.464 1.161 1.678 1.161h.698V15.47c-.026-1.842-.336-3.57-3.229-3.57zM52.312 20.712c-.284.369-.904.652-1.37.652-.67 0-1.523-.538-1.523-2.182 0-2.55 2.893-3.316 2.893-3.316v4.846zm-.827-8.814c-2.118 0-3.048.879-3.59 1.304l.258 1.077s1.11-1.247 2.609-1.247c.852 0 1.55.368 1.55 1.077 0 .539-.155.822-.853 1.134-1.369.566-4.365 1.332-4.365 4.393 0 2.805 2.04 3.259 2.764 3.259.956 0 1.834-.425 2.48-1.36.206.623.465 1.161 1.678 1.161h.698V15.47c-.026-1.842-.336-3.57-3.229-3.57zM78.425 21.726h-.49v-8.7h.49c1.73 0 3.022 1.104 3.022 4.335 0 3.146-1.059 4.365-3.022 4.365zm.646-9.636h-4.314v.51s.775.057.775.907v9.154h3.539c2.686 0 5.037-1.502 5.037-5.3 0-3.77-2.273-5.271-5.037-5.271zM101.258 13.025v3.713h2.738v.935h-2.738v4.053h3.952v.935h-6.354v-9.154c0-.85-.775-.907-.775-.907v-.51h7.129v.935h-3.952zM85.166 12.09h3.178v9.21c0 .766-.414 1.333-1.189 1.333h-1.214v-9.126c0-.85-.775-.907-.775-.907v-.51zM82.61 26.911c.412.057.748.312.748.822V28.47l-.026.028-.025.028-.026.029-.026.028-.026.029-.026.028H82.377c-.388 0-.724-.17-.956-.51l-.026-.057.284-.283.026.056c.181.227.388.369.672.369.258 0 .49-.17.49-.454 0-.368-.361-.453-.645-.453h-.207l-.077-.255.723-.879h-1.137v-.397h1.68v.255l-.595.88zm-3.023-.765l-.052.708c.13-.056.259-.085.414-.085.49 0 .904.312.904.907V28.385l-.026.028-.026.029-.026.028-.026.028-.025.028-.026.029-.026.028-.026.029-.026.028-.026.028-.025.029H79.846c-.362 0-.672-.17-.93-.454l-.026-.028.258-.312.052.057c.18.198.413.34.671.34.284 0 .543-.199.543-.539s-.259-.51-.569-.51c-.18 0-.335.057-.49.142l-.026.028-.233-.17.078-1.417h1.524v.397h-1.11v-.085zm-1.627 1.133c-.155.199-.387.312-.646.312-.49 0-.93-.34-.93-.907 0-.595.414-.992.956-.992.258 0 .49.085.697.284.284.312.336.68.336 1.105V27.705l-.026.028-.025.028-.026.029-.026.028-.026.028-.026.029-.026.028-.025.028-.026.029-.026.028-.026.028-.026.029-.026.028-.025.028-.026.029-.026.028-.026.028-.026.029-.026.028-.025.028-.026.029-.026.028-.026.028-.026.029-.025.028-.026.029H77.288c-.31 0-.568-.142-.8-.34l-.052-.029.232-.34.052.057c.155.17.336.283.568.283.44.142.646-.368.672-.794zm-2.841-1.105l-.44.142-.103-.368.672-.256h.284v2.863h-.388v-2.38h-.025zm-3.745-.028v.793h1.343v.397h-1.343v.822h1.523v.397h-1.911V25.72h1.911v.396h-1.523v.029zm-2.015 2.465c-.75 0-1.292-.651-1.292-1.473 0-.822.543-1.474 1.318-1.474.413 0 .697.142 1.007.453l.052.057-.259.312-.051-.057c-.207-.226-.44-.368-.75-.368-.542 0-.903.482-.903 1.048V27.846l.025.029.026.028.026.028.026.029.026.028.025.028.026.029.026.028.026.028.026.029.026.028.025.028.026.029.026.028H69.462c.31 0 .542-.142.75-.368l.05-.029.26.284-.053.056c-.387.256-.697.425-1.11.425zm-3.797-2.153v2.097h-.388V25.72h.336l1.472 2.04v-2.04h.388v2.834h-.31l-1.498-2.097zm-1.214-.737v2.834h-.388V25.72h.388zm-1.937 1.218c.413.114.852.284.852.822 0 .567-.44.822-.904.822-.413 0-.749-.141-1.059-.453l-.052-.029.259-.311.051.056c.233.255.465.369.801.369.233 0 .49-.114.49-.397 0-.34-.36-.397-.593-.454-.44-.113-.879-.283-.879-.85 0-.538.44-.793.879-.793.361 0 .62.113.904.34l.051.028-.232.34-.052-.028c-.206-.17-.413-.284-.671-.284-.207 0-.465.114-.465.369v.255h.336l.051.028h.052l.18.17zm-3.384 1.616v-.539h.44v.539h-.44zm-1.834 0h-.904V25.72h.904c.75 0 1.37.567 1.37 1.417 0 .85-.62 1.417-1.37 1.417zm-3.513-2.097v2.097h-.387V25.72h.336l1.472 2.04v-2.04h.387v2.834h-.31l-1.498-2.097zm-2.583-.312v.793h1.344v.397h-1.344v.822h1.524v.397H50.71V25.72h1.911v.396h-1.524v.029zM49.6 27.988v-.567h-.749v-.397h1.137v1.162l-.026.029c-.284.283-.646.425-1.033.425-.775 0-1.317-.624-1.317-1.474 0-.822.542-1.474 1.29-1.474.388 0 .672.114.957.369l.051.028-.258.34-.052-.028c-.206-.198-.413-.284-.723-.284-.517 0-.878.51-.878 1.05 0 .623.336 1.076.93 1.076.258-.028.49-.113.671-.255zm-4.055-1.842v.793h1.343v.397h-1.343v.822h1.524v.397h-1.911V25.72h1.911v.396h-1.524v.029zm-2.402 2.012h1.395v.397h-1.782V25.72h.387v2.437zm-2.919-.312h-1.265l-.285.709h-.413l1.188-2.863h.336l1.188 2.863h-.413l-.336-.709zM77.34 26.09c-.31 0-.542.227-.542.567 0 .34.258.539.542.539.284 0 .568-.227.568-.567 0-.34-.258-.539-.568-.539zm-20.663.057v2.012h.516c.543 0 .956-.397.956-.992 0-.623-.413-1.02-.956-1.02h-.516zm-17.1.142l-.464 1.162h.955l-.49-1.162zM106.811 9.426c.646 0 1.188.595 1.188 1.303 0 .709-.542 1.304-1.188 1.304-.646 0-1.188-.595-1.188-1.303 0-.71.542-1.304 1.188-1.304zm0 .141c.594 0 1.059.51 1.059 1.162 0 .652-.465 1.162-1.059 1.162-.594 0-1.059-.51-1.059-1.162 0-.651.465-1.162 1.059-1.162z" clip-rule="evenodd"/>
    <path fill="#fff" d="M106.191 11.27v-.823h-.258v-.17h.698v.17h-.259v.822h-.181zm.543 0v-.964h.258l.155.652.155-.652h.258v.963h-.155v-.765l-.18.765h-.181l-.181-.765v.765h-.129z"/>
</svg>
